<?xml version="1.0" encoding="UTF-8" standalone="no"?>
<svg
   viewBox="0 0 793.7007874015749 1122.5196850393702"
   width="793.7007874015749"
   height="1122.5196850393702"
   version="1.1"
   id="svg21839"
   sodipodi:docname="B12.svg"
   inkscape:version="1.2.2 (732a01da63, 2022-12-09)"
   xmlns:inkscape="http://www.inkscape.org/namespaces/inkscape"
   xmlns:sodipodi="http://sodipodi.sourceforge.net/DTD/sodipodi-0.dtd"
   xmlns="http://www.w3.org/2000/svg"
   xmlns:svg="http://www.w3.org/2000/svg">
  <sodipodi:namedview
     id="namedview21841"
     pagecolor="#ffffff"
     bordercolor="#000000"
     borderopacity="0.25"
     inkscape:showpageshadow="2"
     inkscape:pageopacity="0.0"
     inkscape:pagecheckerboard="0"
     inkscape:deskcolor="#d1d1d1"
     showgrid="false"
     inkscape:zoom="2.9006174"
     inkscape:cx="326.13747"
     inkscape:cy="186.33964"
     inkscape:window-width="2400"
     inkscape:window-height="1271"
     inkscape:window-x="2391"
     inkscape:window-y="72"
     inkscape:window-maximized="1"
     inkscape:current-layer="g21835" />
  <desc
     id="desc21148">Bar 12.DXF - scale = 0.176619, origin = (0.000000, 0.000000), method = auto</desc>
  <defs
     id="defs21163">
    <marker
       id="DistanceX"
       orient="auto"
       refX="0.0"
       refY="0.0"
       style="overflow:visible">
      <path
         d="M 3,-3 L -3,3 M 0,-5 L  0,5"
         style="stroke:#000000; stroke-width:0.5"
         id="path21150" />
    </marker>
    <pattern
       id="Hatch"
       patternUnits="userSpaceOnUse"
       width="8"
       height="8"
       x="0"
       y="0">
      <path
         d="M8 4 l-4,4"
         stroke="#000000"
         stroke-width="0.25"
         linecap="square"
         id="path21153" />
      <path
         d="M6 2 l-4,4"
         stroke="#000000"
         stroke-width="0.25"
         linecap="square"
         id="path21155" />
      <path
         d="M4 0 l-4,4"
         stroke="#000000"
         stroke-width="0.25"
         linecap="square"
         id="path21157" />
    </pattern>
    <symbol
       id="*Model_Space" />
    <symbol
       id="*Paper_Space" />
    <symbol
       id="*Paper_Space0" />
  </defs>
  <g
     inkscape:groupmode="layer"
     inkscape:label="0"
     id="g21835">
    <g
       id="b12-s10"
       style="fill:#ff9955">
      <path
         id="path22028"
         style="fill:#ff9955;stroke:#00ff00;stroke-width:0.377953;stroke-opacity:0"
         d="M 477.38086 100.44336 L 477.4043 124.42383 L 490.83203 124.42188 L 490.70703 100.43945 L 477.38086 100.44336 z " />
      <path
         id="path22028-1"
         style="fill:#ff9955;stroke:#00ff00;stroke-width:0.377953;stroke-opacity:0"
         d="m 477.38086,250.44336 0.0234,23.98047 13.42773,-0.002 -0.125,-23.98243 z" />
      <path
         id="path22028-0"
         style="fill:#ff9955;stroke:#00ff00;stroke-width:0.377953;stroke-opacity:0"
         d="m 477.38086,150.44336 0.0234,23.98047 13.42773,-0.002 -0.125,-23.98243 z" />
      <path
         id="path22028-6"
         style="fill:#ff9955;stroke:#00ff00;stroke-width:0.377953;stroke-opacity:0"
         d="m 477.38086,200.44336 0.0234,23.98047 13.42773,-0.002 -0.125,-23.98243 z" />
    </g>
    <g
       id="b12-s9">
      <path
         id="path22022-9"
         style="fill:#008080;stroke:#00ff00;stroke-width:0.377953;stroke-opacity:0"
         d="m 477.38086,200.44336 -13.43945,0.004 0.26562,23.97656 h 13.19727 z" />
      <g
         id="b12-s91"
         style="fill:#008080">
        <path
           id="path22022"
           style="fill:#008080;stroke:#00ff00;stroke-width:0.377953;stroke-opacity:0"
           d="m 477.38086,100.44336 -13.43945,0.004 0.26562,23.97656 h 13.19727 z" />
        <path
           id="path22022-7"
           style="fill:#008080;stroke:#00ff00;stroke-width:0.377953;stroke-opacity:0"
           d="m 477.38086,250.44336 -13.43945,0.004 0.26562,23.97656 h 13.19727 z" />
        <path
           id="path22022-3"
           style="fill:#008080;stroke:#00ff00;stroke-width:0.377953;stroke-opacity:0"
           d="m 477.38086,150.44336 -13.43945,0.004 0.26562,23.97656 h 13.19727 z" />
        <path
           style="fill:#008080;stroke:#000000;stroke-linecap:round"
           d="M 477.3565,224.352 V 200.5"
           id="path21805-1" />
      </g>
    </g>
    <g
       id="b12-s12"
       style="fill:#ff9955">
      <path
         id="path22031"
         style="fill:#ff9955;stroke:#00ff00;stroke-width:0.377953;stroke-opacity:0"
         d="M 543.97852 100.42578 L 504.18555 100.43555 L 504.11523 124.42188 L 544.11523 124.41992 L 543.97852 100.42578 z " />
      <path
         id="path22031-1"
         style="fill:#ff9955;stroke:#00ff00;stroke-width:0.377953;stroke-opacity:0"
         d="m 543.97852,250.42578 -39.79297,0.01 -0.0703,23.98633 40,-0.002 z" />
      <path
         id="path22031-5"
         style="fill:#ff9955;stroke:#00ff00;stroke-width:0.377953;stroke-opacity:0"
         d="m 543.97852,150.42578 -39.79297,0.01 -0.0703,23.98633 40,-0.002 z" />
      <path
         id="path22031-9"
         style="fill:#ff9955;stroke:#00ff00;stroke-width:0.377953;stroke-opacity:0"
         d="m 543.97852,200.42578 -39.79297,0.01 -0.0703,23.98633 40,-0.002 z" />
    </g>
    <g
       id="b12-s11">
      <path
         id="path22025-70"
         style="fill:#008080;stroke:#00ff00;stroke-width:0.377953;stroke-opacity:0"
         d="m 504.18555,200.43555 -13.47852,0.004 0.125,23.98243 h 13.2832 z" />
      <g
         id="b12-s1111"
         style="fill:#008080">
        <path
           id="path22025"
           style="fill:#008080;stroke:#00ff00;stroke-width:0.377953;stroke-opacity:0"
           d="m 504.18555,100.43555 -13.47852,0.004 0.125,23.98243 h 13.2832 z" />
        <path
           id="path22025-7"
           style="fill:#008080;stroke:#00ff00;stroke-width:0.377953;stroke-opacity:0"
           d="m 504.18555,250.43555 -13.47852,0.004 0.125,23.98243 h 13.2832 z" />
        <path
           id="path22025-3"
           style="fill:#008080;stroke:#00ff00;stroke-width:0.377953;stroke-opacity:0"
           d="m 504.18555,150.43555 -13.47852,0.004 0.125,23.98243 h 13.2832 z" />
        <path
           style="fill:#008080;stroke:#000000;stroke-linecap:round"
           d="M 504.0575,224.352 V 200.5"
           id="path21801-77" />
      </g>
    </g>
    <g
       id="b12-s1"
       style="fill:#008080">
      <path
         id="path21998"
         style="fill:#008080;stroke:#00ff00;stroke-width:0.377953;stroke-opacity:0"
         d="M 250.34766 100.50195 L 196.93164 100.51562 L 196.85742 124.43359 L 250.22266 124.43164 L 250.34766 100.50195 z " />
      <path
         id="path21998-5"
         style="fill:#008080;stroke:#00ff00;stroke-width:0.377953;stroke-opacity:0"
         d="m 250.34766,250.50195 -53.41602,0.0137 -0.0742,23.91797 53.36524,-0.002 z" />
      <path
         id="path21998-1"
         style="fill:#008080;stroke:#00ff00;stroke-width:0.377953;stroke-opacity:0"
         d="m 250.34766,150.50195 -53.41602,0.0137 -0.0742,23.91797 53.36524,-0.002 z" />
      <path
         id="path21998-4"
         style="fill:#008080;stroke:#00ff00;stroke-width:0.377953;stroke-opacity:0"
         d="m 250.34766,200.50195 -53.41602,0.0137 -0.0742,23.91797 53.36524,-0.002 z" />
    </g>
    <g
       id="b12-s2"
       style="fill:#ff9955">
      <path
         id="path22001"
         style="fill:#ff9955;stroke:#00ff00;stroke-width:0.377953;stroke-opacity:0"
         d="M 290.32031 100.49219 L 250.34766 100.50195 L 250.22266 124.43164 L 290.47852 124.42969 L 290.32031 100.49219 z " />
      <path
         id="path22001-5"
         style="fill:#ff9955;stroke:#00ff00;stroke-width:0.377953;stroke-opacity:0"
         d="m 290.32031,250.49219 -39.97265,0.01 -0.125,23.92969 40.25586,-0.002 z" />
      <path
         id="path22001-53"
         style="fill:#ff9955;stroke:#00ff00;stroke-width:0.377953;stroke-opacity:0"
         d="m 290.32031,150.49219 -39.97265,0.01 -0.125,23.92969 40.25586,-0.002 z" />
      <path
         id="path22001-6"
         style="fill:#ff9955;stroke:#00ff00;stroke-width:0.377953;stroke-opacity:0"
         d="m 290.32031,200.49219 -39.97265,0.01 -0.125,23.92969 40.25586,-0.002 z" />
    </g>
    <g
       id="b12-s3"
       style="fill:#008080">
      <path
         id="path22004"
         style="fill:#008080;stroke:#00ff00;stroke-width:0.377953;stroke-opacity:0"
         d="M 303.78516 100.48828 L 290.32031 100.49219 L 290.47852 124.42969 L 303.85742 124.42969 L 303.78516 100.48828 z " />
      <path
         id="path22004-5"
         style="fill:#008080;stroke:#00ff00;stroke-width:0.377953;stroke-opacity:0"
         d="m 303.78516,250.48828 -13.46485,0.004 0.15821,23.9375 h 13.3789 z" />
      <path
         id="path22004-1"
         style="fill:#008080;stroke:#00ff00;stroke-width:0.377953;stroke-opacity:0"
         d="m 303.78516,150.48828 -13.46485,0.004 0.15821,23.9375 h 13.3789 z" />
      <path
         id="path22004-3"
         style="fill:#008080;stroke:#00ff00;stroke-width:0.377953;stroke-opacity:0"
         d="m 303.78516,200.48828 -13.46485,0.004 0.15821,23.9375 h 13.3789 z" />
    </g>
    <g
       id="b12-s4"
       style="fill:#ff9955">
      <path
         id="path22007"
         style="fill:#ff9955;stroke:#00ff00;stroke-width:0.377953;stroke-opacity:0"
         d="M 317.1543 100.48438 L 303.78516 100.48828 L 303.85742 124.42969 L 317.1543 124.42969 L 317.1543 100.48438 z " />
      <path
         id="path22007-9"
         style="fill:#ff9955;stroke:#00ff00;stroke-width:0.377953;stroke-opacity:0"
         d="m 317.1543,250.48438 -13.36914,0.004 0.0723,23.94141 h 13.29688 z" />
      <path
         id="path22007-0"
         style="fill:#ff9955;stroke:#00ff00;stroke-width:0.377953;stroke-opacity:0"
         d="m 317.1543,150.48438 -13.36914,0.004 0.0723,23.94141 h 13.29688 z" />
      <path
         id="path22007-4"
         style="fill:#ff9955;stroke:#00ff00;stroke-width:0.377953;stroke-opacity:0"
         d="m 317.1543,200.48438 -13.36914,0.004 0.0723,23.94141 h 13.29688 z" />
    </g>
    <g
       id="b12-s5"
       style="fill:#008080">
      <path
         id="path22010"
         style="fill:#008080;stroke:#00ff00;stroke-width:0.377953;stroke-opacity:0"
         d="M 330.45117 100.48047 L 317.1543 100.48438 L 317.1543 124.42969 L 330.54688 124.42969 L 330.45117 100.48047 z " />
      <path
         id="path22010-1"
         style="fill:#008080;stroke:#00ff00;stroke-width:0.377953;stroke-opacity:0"
         d="m 330.45117,250.48047 -13.29687,0.004 v 23.94531 h 13.39258 z" />
      <path
         id="path22010-4"
         style="fill:#008080;stroke:#00ff00;stroke-width:0.377953;stroke-opacity:0"
         d="m 330.45117,150.48047 -13.29687,0.004 v 23.94531 h 13.39258 z" />
      <path
         id="path22010-2"
         style="fill:#008080;stroke:#00ff00;stroke-width:0.377953;stroke-opacity:0"
         d="m 330.45117,200.48047 -13.29687,0.004 v 23.94531 h 13.39258 z" />
    </g>
    <g
       id="b12-s6"
       style="fill:#ff9955">
      <path
         id="path22013"
         style="fill:#ff9955;stroke:#00ff00;stroke-width:0.377953;stroke-opacity:0"
         d="M 370.48438 100.4707 L 330.45117 100.48047 L 330.54688 124.42969 L 370.77539 124.42773 L 370.48438 100.4707 z " />
      <path
         id="path22013-2"
         style="fill:#ff9955;stroke:#00ff00;stroke-width:0.377953;stroke-opacity:0"
         d="m 370.48438,250.4707 -40.03321,0.01 0.0957,23.94922 40.22851,-0.002 z" />
      <path
         id="path22013-6"
         style="fill:#ff9955;stroke:#00ff00;stroke-width:0.377953;stroke-opacity:0"
         d="m 370.48438,150.4707 -40.03321,0.01 0.0957,23.94922 40.22851,-0.002 z" />
      <path
         id="path22013-1"
         style="fill:#ff9955;stroke:#00ff00;stroke-width:0.377953;stroke-opacity:0"
         d="m 370.48438,200.4707 -40.03321,0.01 0.0957,23.94922 40.22851,-0.002 z" />
    </g>
    <g
       id="b12-s7"
       style="fill:#008080">
      <path
         id="path22016"
         style="fill:#008080;stroke:#00ff00;stroke-width:0.377953;stroke-opacity:0"
         d="M 424.00586 100.45703 L 370.48438 100.4707 L 370.77539 124.42773 L 424.02148 124.42578 L 424.00586 100.45703 z " />
      <path
         id="path22016-2"
         style="fill:#008080;stroke:#00ff00;stroke-width:0.377953;stroke-opacity:0"
         d="m 424.00586,250.45703 -53.52148,0.0137 0.29101,23.95703 53.24609,-0.002 z" />
      <path
         id="path22016-5"
         style="fill:#008080;stroke:#00ff00;stroke-width:0.377953;stroke-opacity:0"
         d="m 424.00586,150.45703 -53.52148,0.0137 0.29101,23.95703 53.24609,-0.002 z" />
      <path
         id="path22016-3"
         style="fill:#008080;stroke:#00ff00;stroke-width:0.377953;stroke-opacity:0"
         d="m 424.00586,200.45703 -53.52148,0.0137 0.29101,23.95703 53.24609,-0.002 z" />
    </g>
    <g
       id="b12-s8"
       style="fill:#ff9955">
      <path
         id="path22019"
         style="fill:#ff9955;stroke:#00ff00;stroke-width:0.377953;stroke-opacity:0"
         d="M 463.94141 100.44727 L 424.00586 100.45703 L 424.02148 124.42578 L 464.20703 124.42383 L 463.94141 100.44727 z " />
      <path
         id="path22019-0"
         style="fill:#ff9955;stroke:#00ff00;stroke-width:0.377953;stroke-opacity:0"
         d="m 463.94141,250.44727 -39.93555,0.01 0.0156,23.96875 40.18555,-0.002 z" />
      <path
         id="path22019-5"
         style="fill:#ff9955;stroke:#00ff00;stroke-width:0.377953;stroke-opacity:0"
         d="m 463.94141,150.44727 -39.93555,0.01 0.0156,23.96875 40.18555,-0.002 z" />
      <path
         id="path22019-8"
         style="fill:#ff9955;stroke:#00ff00;stroke-width:0.377953;stroke-opacity:0"
         d="m 463.94141,200.44727 -39.93555,0.01 0.0156,23.96875 40.18555,-0.002 z" />
    </g>
    <g
       id="b12-s13"
       style="fill:#008080">
      <path
         id="path22034"
         style="fill:#008080;stroke:#00ff00;stroke-width:0.377953;stroke-opacity:0"
         d="M 597.58203 100.41211 L 543.97852 100.42578 L 544.11523 124.41992 L 597.50977 124.41797 L 597.58203 100.41211 z " />
      <path
         id="path22034-2"
         style="fill:#008080;stroke:#00ff00;stroke-width:0.377953;stroke-opacity:0"
         d="m 597.58203,250.41211 -53.60351,0.0137 0.13671,23.99414 53.39454,-0.002 z" />
      <path
         id="path22034-6"
         style="fill:#008080;stroke:#00ff00;stroke-width:0.377953;stroke-opacity:0"
         d="m 597.58203,150.41211 -53.60351,0.0137 0.13671,23.99414 53.39454,-0.002 z" />
      <path
         id="path22034-3"
         style="fill:#008080;stroke:#00ff00;stroke-width:0.377953;stroke-opacity:0"
         d="m 597.58203,200.41211 -53.60351,0.0137 0.13671,23.99414 53.39454,-0.002 z" />
    </g>
    <path
       id="path21968"
       style="fill:#b3b3b3;stroke:#00ff00;stroke-width:0.377953;stroke-opacity:0"
       d="M 196.93164 100.51562 L 190.32617 100.51758 L 190.33008 124.43359 L 196.85742 124.43359 L 196.93164 100.51562 z " />
    <path
       id="path22037"
       style="fill:#b3b3b3;stroke:#00ff00;stroke-width:0.377953;stroke-opacity:0"
       d="M 597.58203 100.41211 L 597.50977 124.41797 L 604.17383 124.41797 L 604.26758 100.41016 L 597.58203 100.41211 z " />
    <path
       style="fill:none;stroke:#000000;stroke-linecap:round"
       d="M 196.9915,124.352 V 100.5"
       id="path21795" />
    <path
       style="fill:none;stroke:#000000;stroke-linecap:round"
       d="M 597.5125,124.352 V 100.5"
       id="path21797" />
    <path
       style="fill:none;stroke:#000000;stroke-linecap:round"
       d="M 544.1105,124.352 V 100.5"
       id="path21799" />
    <path
       style="fill:none;stroke:#000000;stroke-linecap:round"
       d="M 504.0575,124.352 V 100.5"
       id="path21801" />
    <path
       style="fill:none;stroke:#000000;stroke-linecap:round"
       d="M 490.7075,124.352 V 100.5"
       id="path21803" />
    <path
       style="fill:none;stroke:#000000;stroke-linecap:round"
       d="M 477.3565,124.352 V 100.5"
       id="path21805" />
    <path
       style="fill:none;stroke:#000000;stroke-linecap:round"
       d="M 464.0055,124.352 V 100.5"
       id="path21807" />
    <path
       style="fill:none;stroke:#000000;stroke-linecap:round"
       d="M 423.9535,124.352 V 100.5"
       id="path21809" />
    <path
       style="fill:none;stroke:#000000;stroke-linecap:round"
       d="M 370.5505,124.352 V 100.5"
       id="path21811" />
    <path
       style="fill:none;stroke:#000000;stroke-linecap:round"
       d="M 330.4985,124.352 V 100.5"
       id="path21813" />
    <path
       style="fill:none;stroke:#000000;stroke-linecap:round"
       d="M 317.1475,124.352 V 100.5"
       id="path21815" />
    <path
       style="fill:none;stroke:#000000;stroke-linecap:round"
       d="M 303.7965,124.352 V 100.5"
       id="path21817" />
    <path
       style="fill:none;stroke:#000000;stroke-linecap:round"
       d="M 290.4465,124.352 V 100.5"
       id="path21819" />
    <path
       style="fill:none;stroke:#000000;stroke-linecap:round"
       d="M 250.3945,124.352 V 100.5"
       id="path21821" />
    <path
       style="fill:none;stroke:#000000;stroke-width:0.631;stroke-linecap:round"
       d="m 190.3155,124.442 h 413.873"
       id="path21823" />
    <path
       style="fill:none;stroke:#000000;stroke-width:0.631;stroke-linecap:round"
       d="M 604.1885,100.411 H 190.3155"
       id="path21825" />
    <path
       style="fill:none;stroke:#000000;stroke-width:0.631;stroke-linecap:round"
       d="m 190.3155,100.411 v 24.031"
       id="path21827" />
    <path
       style="fill:none;stroke:#000000;stroke-width:0.631;stroke-linecap:round"
       d="m 604.1885,100.411 v 24.031"
       id="path21829" />
    <path
       id="path21968-7"
       style="fill:#b3b3b3;stroke:#00ff00;stroke-width:0.377953;stroke-opacity:0"
       d="m 196.93164,250.51562 -6.60547,0.002 0.004,23.91601 h 6.52734 z" />
    <path
       id="path22037-4"
       style="fill:#b3b3b3;stroke:#00ff00;stroke-width:0.377953;stroke-opacity:0"
       d="m 597.58203,250.41211 -0.0723,24.00586 h 6.66406 l 0.0937,-24.00781 z" />
    <path
       style="fill:none;stroke:#000000;stroke-linecap:round"
       d="M 196.9915,274.352 V 250.5"
       id="path21795-5" />
    <path
       style="fill:none;stroke:#000000;stroke-linecap:round"
       d="M 597.5125,274.352 V 250.5"
       id="path21797-7" />
    <path
       style="fill:none;stroke:#000000;stroke-linecap:round"
       d="M 544.1105,274.352 V 250.5"
       id="path21799-3" />
    <path
       style="fill:none;stroke:#000000;stroke-linecap:round"
       d="M 504.0575,274.352 V 250.5"
       id="path21801-4" />
    <path
       style="fill:none;stroke:#000000;stroke-linecap:round"
       d="M 490.7075,274.352 V 250.5"
       id="path21803-1" />
    <path
       style="fill:none;stroke:#000000;stroke-linecap:round"
       d="M 477.3565,274.352 V 250.5"
       id="path21805-3" />
    <path
       style="fill:none;stroke:#000000;stroke-linecap:round"
       d="M 464.0055,274.352 V 250.5"
       id="path21807-1" />
    <path
       style="fill:none;stroke:#000000;stroke-linecap:round"
       d="M 423.9535,274.352 V 250.5"
       id="path21809-2" />
    <path
       style="fill:none;stroke:#000000;stroke-linecap:round"
       d="M 370.5505,274.352 V 250.5"
       id="path21811-2" />
    <path
       style="fill:none;stroke:#000000;stroke-linecap:round"
       d="M 330.4985,274.352 V 250.5"
       id="path21813-5" />
    <path
       style="fill:none;stroke:#000000;stroke-linecap:round"
       d="M 317.1475,274.352 V 250.5"
       id="path21815-4" />
    <path
       style="fill:none;stroke:#000000;stroke-linecap:round"
       d="M 303.7965,274.352 V 250.5"
       id="path21817-2" />
    <path
       style="fill:none;stroke:#000000;stroke-linecap:round"
       d="M 290.4465,274.352 V 250.5"
       id="path21819-0" />
    <path
       style="fill:none;stroke:#000000;stroke-linecap:round"
       d="M 250.3945,274.352 V 250.5"
       id="path21821-9" />
    <path
       style="fill:none;stroke:#000000;stroke-width:0.631;stroke-linecap:round"
       d="m 190.3155,274.442 h 413.873"
       id="path21823-5" />
    <path
       style="fill:none;stroke:#000000;stroke-width:0.631;stroke-linecap:round"
       d="M 604.1885,250.411 H 190.3155"
       id="path21825-9" />
    <path
       style="fill:none;stroke:#000000;stroke-width:0.631;stroke-linecap:round"
       d="m 190.3155,250.411 v 24.031"
       id="path21827-4" />
    <path
       style="fill:none;stroke:#000000;stroke-width:0.631;stroke-linecap:round"
       d="m 604.1885,250.411 v 24.031"
       id="path21829-2" />
    <path
       id="path21968-4"
       style="fill:#b3b3b3;stroke:#00ff00;stroke-width:0.377953;stroke-opacity:0"
       d="m 196.93164,150.51562 -6.60547,0.002 0.004,23.91601 h 6.52734 z" />
    <path
       id="path22037-43"
       style="fill:#b3b3b3;stroke:#00ff00;stroke-width:0.377953;stroke-opacity:0"
       d="m 597.58203,150.41211 -0.0723,24.00586 h 6.66406 l 0.0937,-24.00781 z" />
    <path
       style="fill:none;stroke:#000000;stroke-linecap:round"
       d="M 196.9915,174.352 V 150.5"
       id="path21795-4" />
    <path
       style="fill:none;stroke:#000000;stroke-linecap:round"
       d="M 597.5125,174.352 V 150.5"
       id="path21797-8" />
    <path
       style="fill:none;stroke:#000000;stroke-linecap:round"
       d="M 544.1105,174.352 V 150.5"
       id="path21799-9" />
    <path
       style="fill:none;stroke:#000000;stroke-linecap:round"
       d="M 504.0575,174.352 V 150.5"
       id="path21801-7" />
    <path
       style="fill:none;stroke:#000000;stroke-linecap:round"
       d="M 490.7075,174.352 V 150.5"
       id="path21803-6" />
    <path
       style="fill:none;stroke:#000000;stroke-linecap:round"
       d="M 477.3565,174.352 V 150.5"
       id="path21805-6" />
    <path
       style="fill:none;stroke:#000000;stroke-linecap:round"
       d="M 464.0055,174.352 V 150.5"
       id="path21807-9" />
    <path
       style="fill:none;stroke:#000000;stroke-linecap:round"
       d="M 423.9535,174.352 V 150.5"
       id="path21809-8" />
    <path
       style="fill:none;stroke:#000000;stroke-linecap:round"
       d="M 370.5505,174.352 V 150.5"
       id="path21811-8" />
    <path
       style="fill:none;stroke:#000000;stroke-linecap:round"
       d="M 330.4985,174.352 V 150.5"
       id="path21813-2" />
    <path
       style="fill:none;stroke:#000000;stroke-linecap:round"
       d="M 317.1475,174.352 V 150.5"
       id="path21815-0" />
    <path
       style="fill:none;stroke:#000000;stroke-linecap:round"
       d="M 303.7965,174.352 V 150.5"
       id="path21817-4" />
    <path
       style="fill:none;stroke:#000000;stroke-linecap:round"
       d="M 290.4465,174.352 V 150.5"
       id="path21819-9" />
    <path
       style="fill:none;stroke:#000000;stroke-linecap:round"
       d="M 250.3945,174.352 V 150.5"
       id="path21821-7" />
    <path
       style="fill:none;stroke:#000000;stroke-width:0.631;stroke-linecap:round"
       d="m 190.3155,174.442 h 413.873"
       id="path21823-53" />
    <path
       style="fill:none;stroke:#000000;stroke-width:0.631;stroke-linecap:round"
       d="M 604.1885,150.411 H 190.3155"
       id="path21825-5" />
    <path
       style="fill:none;stroke:#000000;stroke-width:0.631;stroke-linecap:round"
       d="m 190.3155,150.411 v 24.031"
       id="path21827-1" />
    <path
       style="fill:none;stroke:#000000;stroke-width:0.631;stroke-linecap:round"
       d="m 604.1885,150.411 v 24.031"
       id="path21829-7" />
    <path
       id="path21968-45"
       style="fill:#b3b3b3;stroke:#00ff00;stroke-width:0.377953;stroke-opacity:0"
       d="m 196.93164,200.51562 -6.60547,0.002 0.004,23.91601 h 6.52734 z" />
    <path
       id="path22037-1"
       style="fill:#b3b3b3;stroke:#00ff00;stroke-width:0.377953;stroke-opacity:0"
       d="m 597.58203,200.41211 -0.0723,24.00586 h 6.66406 l 0.0937,-24.00781 z" />
    <path
       style="fill:none;stroke:#000000;stroke-linecap:round"
       d="M 196.9915,224.352 V 200.5"
       id="path21795-8" />
    <path
       style="fill:none;stroke:#000000;stroke-linecap:round"
       d="M 597.5125,224.352 V 200.5"
       id="path21797-3" />
    <path
       style="fill:none;stroke:#000000;stroke-linecap:round"
       d="M 544.1105,224.352 V 200.5"
       id="path21799-94" />
    <path
       style="fill:none;stroke:#000000;stroke-linecap:round"
       d="M 490.7075,224.352 V 200.5"
       id="path21803-8" />
    <path
       style="fill:none;stroke:#000000;stroke-linecap:round"
       d="M 464.0055,224.352 V 200.5"
       id="path21807-5" />
    <path
       style="fill:none;stroke:#000000;stroke-linecap:round"
       d="M 423.9535,224.352 V 200.5"
       id="path21809-7" />
    <path
       style="fill:none;stroke:#000000;stroke-linecap:round"
       d="M 370.5505,224.352 V 200.5"
       id="path21811-0" />
    <path
       style="fill:none;stroke:#000000;stroke-linecap:round"
       d="M 330.4985,224.352 V 200.5"
       id="path21813-50" />
    <path
       style="fill:none;stroke:#000000;stroke-linecap:round"
       d="M 317.1475,224.352 V 200.5"
       id="path21815-49" />
    <path
       style="fill:none;stroke:#000000;stroke-linecap:round"
       d="M 303.7965,224.352 V 200.5"
       id="path21817-7" />
    <path
       style="fill:none;stroke:#000000;stroke-linecap:round"
       d="M 290.4465,224.352 V 200.5"
       id="path21819-5" />
    <path
       style="fill:none;stroke:#000000;stroke-linecap:round"
       d="M 250.3945,224.352 V 200.5"
       id="path21821-73" />
    <path
       style="fill:none;stroke:#000000;stroke-width:0.631;stroke-linecap:round"
       d="m 190.3155,224.442 h 413.873"
       id="path21823-7" />
    <path
       style="fill:none;stroke:#000000;stroke-width:0.631;stroke-linecap:round"
       d="M 604.1885,200.411 H 190.3155"
       id="path21825-8" />
    <path
       style="fill:none;stroke:#000000;stroke-width:0.631;stroke-linecap:round"
       d="m 190.3155,200.411 v 24.031"
       id="path21827-0" />
    <path
       style="fill:none;stroke:#000000;stroke-width:0.631;stroke-linecap:round"
       d="m 604.1885,200.411 v 24.031"
       id="path21829-9" />
  </g>
  <g
     inkscape:groupmode="layer"
     inkscape:label="FORMAT"
     id="g21837" />
</svg>
