<?xml version="1.0" encoding="UTF-8" standalone="no"?>
<svg
   viewBox="0 0 793.7007874015749 1122.5196850393702"
   width="793.7007874015749"
   height="1122.5196850393702"
   version="1.1"
   id="svg31610"
   sodipodi:docname="Bar_V106.svg"
   inkscape:version="1.2.2 (732a01da63, 2022-12-09)"
   xmlns:inkscape="http://www.inkscape.org/namespaces/inkscape"
   xmlns:sodipodi="http://sodipodi.sourceforge.net/DTD/sodipodi-0.dtd"
   xmlns="http://www.w3.org/2000/svg"
   xmlns:svg="http://www.w3.org/2000/svg">
  <sodipodi:namedview
     id="namedview31612"
     pagecolor="#ffffff"
     bordercolor="#000000"
     borderopacity="0.25"
     inkscape:showpageshadow="2"
     inkscape:pageopacity="0.0"
     inkscape:pagecheckerboard="0"
     inkscape:deskcolor="#d1d1d1"
     showgrid="false"
     inkscape:zoom="2.9006174"
     inkscape:cx="484.37964"
     inkscape:cy="141.86635"
     inkscape:window-width="2400"
     inkscape:window-height="1271"
     inkscape:window-x="2391"
     inkscape:window-y="72"
     inkscape:window-maximized="1"
     inkscape:current-layer="g31606" />
  <desc
     id="desc30923">Bar 6.DXF - scale = 0.176619, origin = (0.000000, 0.000000), method = auto</desc>
  <defs
     id="defs30938">
    <marker
       id="DistanceX"
       orient="auto"
       refX="0.0"
       refY="0.0"
       style="overflow:visible">
      <path
         d="M 3,-3 L -3,3 M 0,-5 L  0,5"
         style="stroke:#000000; stroke-width:0.5"
         id="path30925" />
    </marker>
    <pattern
       id="Hatch"
       patternUnits="userSpaceOnUse"
       width="8"
       height="8"
       x="0"
       y="0">
      <path
         d="M8 4 l-4,4"
         stroke="#000000"
         stroke-width="0.25"
         linecap="square"
         id="path30928" />
      <path
         d="M6 2 l-4,4"
         stroke="#000000"
         stroke-width="0.25"
         linecap="square"
         id="path30930" />
      <path
         d="M4 0 l-4,4"
         stroke="#000000"
         stroke-width="0.25"
         linecap="square"
         id="path30932" />
    </pattern>
    <symbol
       id="*Model_Space" />
    <symbol
       id="*Paper_Space" />
    <symbol
       id="*Paper_Space0" />
  </defs>
  <g
     inkscape:groupmode="layer"
     inkscape:label="0"
     id="g31606">
    <g
       id="b6-s11"
       style="fill:#ffdd55">
      <path
         id="path31995-57"
         style="fill:#ffdd55;stroke:#000000;stroke-width:0.377953;stroke-opacity:0"
         d="m 597.47461,250.37891 -13.42188,0.002 0.25977,24.04102 13.25977,0.002 z" />
      <path
         id="path31995"
         style="fill:#ffdd55;stroke:#000000;stroke-width:0.377953;stroke-opacity:0"
         d="m 597.47461,100.37891 -13.42188,0.002 0.25977,24.04102 13.25977,0.002 z" />
      <path
         id="path31995-5"
         style="fill:#ffdd55;stroke:#000000;stroke-width:0.377953;stroke-opacity:0"
         d="m 597.47461,150.37891 -13.42188,0.002 0.25977,24.04102 13.25977,0.002 z" />
      <path
         id="path31995-7"
         style="fill:#ffdd55;stroke:#000000;stroke-width:0.377953;stroke-opacity:0"
         d="m 597.47461,200.37891 -13.42188,0.002 0.25977,24.04102 13.25977,0.002 z" />
    </g>
    <path
       id="path31998"
       style="fill:#b3b3b3;stroke:#000000;stroke-width:0.377953;stroke-opacity:0"
       d="M 597.47461 100.37891 L 597.57227 124.42383 L 604.12695 124.42383 L 604.18164 100.37695 L 597.47461 100.37891 z " />
    <path
       id="path31998-8"
       style="fill:#b3b3b3;stroke:#000000;stroke-width:0.377953;stroke-opacity:0"
       d="m 597.47461,150.37891 0.0977,24.04492 h 6.55468 l 0.0547,-24.04688 z" />
    <path
       id="path31998-7"
       style="fill:#b3b3b3;stroke:#000000;stroke-width:0.377953;stroke-opacity:0"
       d="m 597.47461,200.37891 0.0977,24.04492 h 6.55468 l 0.0547,-24.04688 z" />
    <path
       id="path31998-4"
       style="fill:#b3b3b3;stroke:#000000;stroke-width:0.377953;stroke-opacity:0"
       d="m 597.47461,250.37891 0.0977,24.04492 h 6.55468 l 0.0547,-24.04688 z" />
    <g
       id="b6-s1"
       style="fill:#ffdd55">
      <path
         id="path31965"
         style="fill:#ffdd55;stroke:#000000;stroke-width:0.377953;stroke-opacity:0"
         d="M 210.13867 100.45898 L 197.20703 100.46094 L 196.92578 124.39258 L 210.20312 124.39453 L 210.13867 100.45898 z " />
      <path
         id="path31965-1"
         style="fill:#ffdd55;stroke:#000000;stroke-width:0.377953;stroke-opacity:0"
         d="m 210.13867,150.45898 -12.93164,0.002 -0.28125,23.93164 13.27734,0.002 z" />
      <path
         id="path31965-2"
         style="fill:#ffdd55;stroke:#000000;stroke-width:0.377953;stroke-opacity:0"
         d="m 210.13867,200.45898 -12.93164,0.002 -0.28125,23.93164 13.27734,0.002 z" />
      <path
         id="path31965-8"
         style="fill:#ffdd55;stroke:#000000;stroke-width:0.377953;stroke-opacity:0"
         d="m 210.13867,250.45898 -12.93164,0.002 -0.28125,23.93164 13.27734,0.002 z" />
    </g>
    <g
       id="b6-s2"
       style="fill:#ff9955">
      <path
         id="path31968"
         style="fill:#ff9955;stroke:#000000;stroke-width:0.377953;stroke-opacity:0"
         d="M 250.39648 100.45117 L 210.13867 100.45898 L 210.20312 124.39453 L 250.54102 124.39844 L 250.39648 100.45117 z " />
      <path
         id="path31968-4"
         style="fill:#ff9955;stroke:#000000;stroke-width:0.377953;stroke-opacity:0"
         d="m 250.39648,150.45117 -40.25781,0.008 0.0645,23.93555 40.3379,0.004 z" />
      <path
         id="path31968-3"
         style="fill:#ff9955;stroke:#000000;stroke-width:0.377953;stroke-opacity:0"
         d="m 250.39648,200.45117 -40.25781,0.008 0.0645,23.93555 40.3379,0.004 z" />
      <path
         id="path31968-2"
         style="fill:#ff9955;stroke:#000000;stroke-width:0.377953;stroke-opacity:0"
         d="m 250.39648,250.45117 -40.25781,0.008 0.0645,23.93555 40.3379,0.004 z" />
    </g>
    <g
       id="b6-s3"
       style="fill:#008080">
      <path
         id="path31971"
         style="fill:#008080;stroke:#000000;stroke-width:0.377953;stroke-opacity:0"
         d="M 303.77148 100.43945 L 250.39648 100.45117 L 250.54102 124.39844 L 303.77148 124.40234 L 303.77148 100.43945 z " />
      <path
         id="path31971-9"
         style="fill:#008080;stroke:#000000;stroke-width:0.377953;stroke-opacity:0"
         d="m 303.77148,150.43945 -53.375,0.0117 0.14454,23.94727 53.23046,0.004 z" />
      <path
         id="path31971-5"
         style="fill:#008080;stroke:#000000;stroke-width:0.377953;stroke-opacity:0"
         d="m 303.77148,200.43945 -53.375,0.0117 0.14454,23.94727 53.23046,0.004 z" />
      <path
         id="path31971-2"
         style="fill:#008080;stroke:#000000;stroke-width:0.377953;stroke-opacity:0"
         d="m 303.77148,250.43945 -53.375,0.0117 0.14454,23.94727 53.23046,0.004 z" />
    </g>
    <g
       id="b6-s4">
      <path
         id="path31974"
         style="fill:#ff9955;stroke:#000000;stroke-width:0.377953;stroke-opacity:0"
         d="M 370.58984 100.42578 L 303.77148 100.43945 L 303.77148 124.40234 L 370.72656 124.40625 L 370.58984 100.42578 z " />
      <path
         id="path31974-0"
         style="fill:#ff9955;stroke:#000000;stroke-width:0.377953;stroke-opacity:0"
         d="m 370.58984,150.42578 -66.81836,0.0137 v 23.96289 l 66.95508,0.004 z" />
      <path
         id="path31974-7"
         style="fill:#ff9955;stroke:#000000;stroke-width:0.377953;stroke-opacity:0"
         d="m 370.58984,200.42578 -66.81836,0.0137 v 23.96289 l 66.95508,0.004 z" />
      <path
         id="path31974-2"
         style="fill:#ff9955;stroke:#000000;stroke-width:0.377953;stroke-opacity:0"
         d="m 370.58984,250.42578 -66.81836,0.0137 v 23.96289 l 66.95508,0.004 z" />
    </g>
    <g
       id="b6-s5"
       style="fill:#ffdd55">
      <path
         id="path31977"
         style="fill:#ffdd55;stroke:#000000;stroke-width:0.377953;stroke-opacity:0"
         d="M 383.95117 100.42383 L 370.58984 100.42578 L 370.72656 124.40625 L 383.84961 124.4082 L 383.95117 100.42383 z " />
      <path
         id="path31977-7"
         style="fill:#ffdd55;stroke:#000000;stroke-width:0.377953;stroke-opacity:0"
         d="m 383.95117,150.42383 -13.36133,0.002 0.13672,23.98047 13.12305,0.002 z" />
      <path
         id="path31977-5"
         style="fill:#ffdd55;stroke:#000000;stroke-width:0.377953;stroke-opacity:0"
         d="m 383.95117,200.42383 -13.36133,0.002 0.13672,23.98047 13.12305,0.002 z" />
      <path
         id="path31977-74"
         style="fill:#ffdd55;stroke:#000000;stroke-width:0.377953;stroke-opacity:0"
         d="m 383.95117,250.42383 -13.36133,0.002 0.13672,23.98047 13.12305,0.002 z" />
    </g>
    <g
       id="b6-s6"
       style="fill:#008080">
      <path
         id="path31980"
         style="fill:#008080;stroke:#000000;stroke-width:0.377953;stroke-opacity:0"
         d="M 410.50586 100.41797 L 383.95117 100.42383 L 383.84961 124.4082 L 410.71289 124.41016 L 410.50586 100.41797 z " />
      <path
         id="path31980-3"
         style="fill:#008080;stroke:#000000;stroke-width:0.377953;stroke-opacity:0"
         d="m 410.50586,150.41797 -26.55469,0.006 -0.10156,23.98437 26.86328,0.002 z" />
      <path
         id="path31980-6"
         style="fill:#008080;stroke:#000000;stroke-width:0.377953;stroke-opacity:0"
         d="m 410.50586,200.41797 -26.55469,0.006 -0.10156,23.98437 26.86328,0.002 z" />
      <path
         id="path31980-8"
         style="fill:#008080;stroke:#000000;stroke-width:0.377953;stroke-opacity:0"
         d="m 410.50586,250.41797 -26.55469,0.006 -0.10156,23.98437 26.86328,0.002 z" />
    </g>
    <g
       id="b6-s7"
       style="fill:#ffdd55">
      <path
         id="path31983"
         style="fill:#ffdd55;stroke:#000000;stroke-width:0.377953;stroke-opacity:0"
         d="M 423.94141 100.41602 L 410.50586 100.41797 L 410.71289 124.41016 L 424.07422 124.41016 L 423.94141 100.41602 z " />
      <path
         id="path31983-4"
         style="fill:#ffdd55;stroke:#000000;stroke-width:0.377953;stroke-opacity:0"
         d="m 423.94141,150.41602 -13.43555,0.002 0.20703,23.99219 h 13.36133 z" />
      <path
         id="path31983-0"
         style="fill:#ffdd55;stroke:#000000;stroke-width:0.377953;stroke-opacity:0"
         d="m 423.94141,200.41602 -13.43555,0.002 0.20703,23.99219 h 13.36133 z" />
      <path
         id="path31983-1"
         style="fill:#ffdd55;stroke:#000000;stroke-width:0.377953;stroke-opacity:0"
         d="m 423.94141,250.41602 -13.43555,0.002 0.20703,23.99219 h 13.36133 z" />
    </g>
    <g
       id="b6-s8">
      <path
         id="path31986"
         style="fill:#ff9955;stroke:#000000;stroke-width:0.377953;stroke-opacity:0"
         d="M 490.52539 100.40234 L 423.94141 100.41602 L 424.07422 124.41016 L 490.6875 124.41602 L 490.52539 100.40234 z " />
      <path
         id="path31986-6"
         style="fill:#ff9955;stroke:#000000;stroke-width:0.377953;stroke-opacity:0"
         d="m 490.52539,150.40234 -66.58398,0.0137 0.13281,23.99414 66.61328,0.006 z" />
      <path
         id="path31986-60"
         style="fill:#ff9955;stroke:#000000;stroke-width:0.377953;stroke-opacity:0"
         d="m 490.52539,200.40234 -66.58398,0.0137 0.13281,23.99414 66.61328,0.006 z" />
      <path
         id="path31986-3"
         style="fill:#ff9955;stroke:#000000;stroke-width:0.377953;stroke-opacity:0"
         d="m 490.52539,250.40234 -66.58398,0.0137 0.13281,23.99414 66.61328,0.006 z" />
    </g>
    <g
       id="b6-s9"
       style="fill:#008080">
      <path
         id="path31989"
         style="fill:#008080;stroke:#000000;stroke-width:0.377953;stroke-opacity:0"
         d="M 544.07617 100.39062 L 490.52539 100.40234 L 490.6875 124.41602 L 544.14258 124.41992 L 544.07617 100.39062 z " />
      <path
         id="path31989-7"
         style="fill:#008080;stroke:#000000;stroke-width:0.377953;stroke-opacity:0"
         d="m 544.07617,150.39062 -53.55078,0.0117 0.16211,24.01368 53.45508,0.004 z" />
      <path
         id="path31989-3"
         style="fill:#008080;stroke:#000000;stroke-width:0.377953;stroke-opacity:0"
         d="m 544.07617,200.39062 -53.55078,0.0117 0.16211,24.01368 53.45508,0.004 z" />
      <path
         id="path31989-8"
         style="fill:#008080;stroke:#000000;stroke-width:0.377953;stroke-opacity:0"
         d="m 544.07617,250.39062 -53.55078,0.0117 0.16211,24.01368 53.45508,0.004 z" />
    </g>
    <g
       id="b6-s10">
      <path
         id="path31992"
         style="fill:#ff9955;stroke:#000000;stroke-width:0.377953;stroke-opacity:0"
         d="M 584.05273 100.38086 L 544.07617 100.39062 L 544.14258 124.41992 L 584.3125 124.42188 L 584.05273 100.38086 z " />
      <path
         id="path31992-5"
         style="fill:#ff9955;stroke:#000000;stroke-width:0.377953;stroke-opacity:0"
         d="m 584.05273,150.38086 -39.97656,0.01 0.0664,24.0293 40.16992,0.002 z" />
      <path
         id="path31992-2"
         style="fill:#ff9955;stroke:#000000;stroke-width:0.377953;stroke-opacity:0"
         d="m 584.05273,200.38086 -39.97656,0.01 0.0664,24.0293 40.16992,0.002 z" />
      <path
         id="path31992-7"
         style="fill:#ff9955;stroke:#000000;stroke-width:0.377953;stroke-opacity:0"
         d="m 584.05273,250.38086 -39.97656,0.01 0.0664,24.0293 40.16992,0.002 z" />
    </g>
    <path
       style="fill:#ffdd55;stroke:#000000;stroke-linecap:round"
       d="M 597.5125,274.352 V 250.5"
       id="path31572-9" />
    <path
       id="path31939"
       style="fill:#b3b3b3;stroke:#000000;stroke-width:0.377953;stroke-opacity:0"
       d="M 197.20703 100.46094 L 190.35742 100.46289 L 190.31445 124.39258 L 196.92578 124.39258 L 197.20703 100.46094 z " />
    <path
       style="fill:none;stroke:#000000;stroke-linecap:round"
       d="M 196.9905,124.352 V 100.5"
       id="path31570" />
    <path
       style="fill:none;stroke:#000000;stroke-linecap:round"
       d="M 597.5125,124.352 V 100.5"
       id="path31572" />
    <path
       style="fill:none;stroke:#000000;stroke-linecap:round"
       d="M 584.1615,124.352 V 100.5"
       id="path31574" />
    <path
       style="fill:none;stroke:#000000;stroke-linecap:round"
       d="M 544.1095,124.352 V 100.5"
       id="path31576" />
    <path
       style="fill:none;stroke:#000000;stroke-linecap:round"
       d="M 490.7065,124.352 V 100.5"
       id="path31578" />
    <path
       style="fill:none;stroke:#000000;stroke-linecap:round"
       d="M 423.9525,124.352 V 100.5"
       id="path31580" />
    <path
       style="fill:none;stroke:#000000;stroke-linecap:round"
       d="M 410.6025,124.352 V 100.5"
       id="path31582" />
    <path
       style="fill:none;stroke:#000000;stroke-linecap:round"
       d="M 383.9005,124.352 V 100.5"
       id="path31584" />
    <path
       style="fill:none;stroke:#000000;stroke-linecap:round"
       d="M 370.5495,124.352 V 100.5"
       id="path31586" />
    <path
       style="fill:none;stroke:#000000;stroke-linecap:round"
       d="M 303.7965,124.352 V 100.5"
       id="path31588" />
    <path
       style="fill:none;stroke:#000000;stroke-linecap:round"
       d="M 250.3935,124.352 V 100.5"
       id="path31590" />
    <path
       style="fill:none;stroke:#000000;stroke-linecap:round"
       d="M 210.3415,124.352 V 100.5"
       id="path31592" />
    <path
       style="fill:none;stroke:#000000;stroke-width:0.631;stroke-linecap:round"
       d="m 190.3155,124.441 h 413.872"
       id="path31594" />
    <path
       style="fill:none;stroke:#000000;stroke-width:0.631;stroke-linecap:round"
       d="M 604.1875,100.41 H 190.3155"
       id="path31596" />
    <path
       style="fill:none;stroke:#000000;stroke-width:0.631;stroke-linecap:round"
       d="m 190.3155,100.41 v 24.031"
       id="path31598" />
    <path
       style="fill:none;stroke:#000000;stroke-width:0.631;stroke-linecap:round"
       d="m 604.1875,100.41 v 24.031"
       id="path31600" />
    <path
       id="path31939-9"
       style="fill:#b3b3b3;stroke:#000000;stroke-width:0.377953;stroke-opacity:0"
       d="m 197.20703,150.46094 -6.84961,0.002 -0.043,23.92969 h 6.61133 z" />
    <path
       style="fill:none;stroke:#000000;stroke-linecap:round"
       d="M 196.9905,174.352 V 150.5"
       id="path31570-6" />
    <path
       style="fill:none;stroke:#000000;stroke-linecap:round"
       d="M 597.5125,174.352 V 150.5"
       id="path31572-3" />
    <path
       style="fill:none;stroke:#000000;stroke-linecap:round"
       d="M 584.1615,174.352 V 150.5"
       id="path31574-3" />
    <path
       style="fill:none;stroke:#000000;stroke-linecap:round"
       d="M 544.1095,174.352 V 150.5"
       id="path31576-9" />
    <path
       style="fill:none;stroke:#000000;stroke-linecap:round"
       d="M 490.7065,174.352 V 150.5"
       id="path31578-4" />
    <path
       style="fill:none;stroke:#000000;stroke-linecap:round"
       d="M 423.9525,174.352 V 150.5"
       id="path31580-0" />
    <path
       style="fill:none;stroke:#000000;stroke-linecap:round"
       d="M 410.6025,174.352 V 150.5"
       id="path31582-2" />
    <path
       style="fill:none;stroke:#000000;stroke-linecap:round"
       d="M 383.9005,174.352 V 150.5"
       id="path31584-1" />
    <path
       style="fill:none;stroke:#000000;stroke-linecap:round"
       d="M 370.5495,174.352 V 150.5"
       id="path31586-9" />
    <path
       style="fill:none;stroke:#000000;stroke-linecap:round"
       d="M 303.7965,174.352 V 150.5"
       id="path31588-0" />
    <path
       style="fill:none;stroke:#000000;stroke-linecap:round"
       d="M 250.3935,174.352 V 150.5"
       id="path31590-1" />
    <path
       style="fill:none;stroke:#000000;stroke-linecap:round"
       d="M 210.3415,174.352 V 150.5"
       id="path31592-8" />
    <path
       style="fill:none;stroke:#000000;stroke-width:0.631;stroke-linecap:round"
       d="m 190.3155,174.441 h 413.872"
       id="path31594-9" />
    <path
       style="fill:none;stroke:#000000;stroke-width:0.631;stroke-linecap:round"
       d="M 604.1875,150.41 H 190.3155"
       id="path31596-4" />
    <path
       style="fill:none;stroke:#000000;stroke-width:0.631;stroke-linecap:round"
       d="m 190.3155,150.41 v 24.031"
       id="path31598-7" />
    <path
       style="fill:none;stroke:#000000;stroke-width:0.631;stroke-linecap:round"
       d="m 604.1875,150.41 v 24.031"
       id="path31600-8" />
    <path
       id="path31939-2"
       style="fill:#b3b3b3;stroke:#000000;stroke-width:0.377953;stroke-opacity:0"
       d="m 197.20703,200.46094 -6.84961,0.002 -0.043,23.92969 h 6.61133 z" />
    <path
       style="fill:none;stroke:#000000;stroke-linecap:round"
       d="M 196.9905,224.352 V 200.5"
       id="path31570-8" />
    <path
       style="fill:none;stroke:#000000;stroke-linecap:round"
       d="M 597.5125,224.352 V 200.5"
       id="path31572-2" />
    <path
       style="fill:none;stroke:#000000;stroke-linecap:round"
       d="M 584.1615,224.352 V 200.5"
       id="path31574-9" />
    <path
       style="fill:none;stroke:#000000;stroke-linecap:round"
       d="M 544.1095,224.352 V 200.5"
       id="path31576-3" />
    <path
       style="fill:none;stroke:#000000;stroke-linecap:round"
       d="M 490.7065,224.352 V 200.5"
       id="path31578-6" />
    <path
       style="fill:none;stroke:#000000;stroke-linecap:round"
       d="M 423.9525,224.352 V 200.5"
       id="path31580-7" />
    <path
       style="fill:none;stroke:#000000;stroke-linecap:round"
       d="M 410.6025,224.352 V 200.5"
       id="path31582-4" />
    <path
       style="fill:none;stroke:#000000;stroke-linecap:round"
       d="M 383.9005,224.352 V 200.5"
       id="path31584-4" />
    <path
       style="fill:none;stroke:#000000;stroke-linecap:round"
       d="M 370.5495,224.352 V 200.5"
       id="path31586-8" />
    <path
       style="fill:none;stroke:#000000;stroke-linecap:round"
       d="M 303.7965,224.352 V 200.5"
       id="path31588-2" />
    <path
       style="fill:none;stroke:#000000;stroke-linecap:round"
       d="M 250.3935,224.352 V 200.5"
       id="path31590-0" />
    <path
       style="fill:none;stroke:#000000;stroke-linecap:round"
       d="M 210.3415,224.352 V 200.5"
       id="path31592-9" />
    <path
       style="fill:none;stroke:#000000;stroke-width:0.631;stroke-linecap:round"
       d="m 190.3155,224.441 h 413.872"
       id="path31594-5" />
    <path
       style="fill:none;stroke:#000000;stroke-width:0.631;stroke-linecap:round"
       d="M 604.1875,200.41 H 190.3155"
       id="path31596-2" />
    <path
       style="fill:none;stroke:#000000;stroke-width:0.631;stroke-linecap:round"
       d="m 190.3155,200.41 v 24.031"
       id="path31598-77" />
    <path
       style="fill:none;stroke:#000000;stroke-width:0.631;stroke-linecap:round"
       d="m 604.1875,200.41 v 24.031"
       id="path31600-5" />
    <path
       id="path31939-3"
       style="fill:#b3b3b3;stroke:#000000;stroke-width:0.377953;stroke-opacity:0"
       d="m 197.20703,250.46094 -6.84961,0.002 -0.043,23.92969 h 6.61133 z" />
    <path
       style="fill:none;stroke:#000000;stroke-linecap:round"
       d="M 196.9905,274.352 V 250.5"
       id="path31570-5" />
    <path
       style="fill:none;stroke:#000000;stroke-linecap:round"
       d="M 584.1615,274.352 V 250.5"
       id="path31574-7" />
    <path
       style="fill:none;stroke:#000000;stroke-linecap:round"
       d="M 544.1095,274.352 V 250.5"
       id="path31576-96" />
    <path
       style="fill:none;stroke:#000000;stroke-linecap:round"
       d="M 490.7065,274.352 V 250.5"
       id="path31578-3" />
    <path
       style="fill:none;stroke:#000000;stroke-linecap:round"
       d="M 423.9525,274.352 V 250.5"
       id="path31580-70" />
    <path
       style="fill:none;stroke:#000000;stroke-linecap:round"
       d="M 410.6025,274.352 V 250.5"
       id="path31582-1" />
    <path
       style="fill:none;stroke:#000000;stroke-linecap:round"
       d="M 383.9005,274.352 V 250.5"
       id="path31584-0" />
    <path
       style="fill:none;stroke:#000000;stroke-linecap:round"
       d="M 370.5495,274.352 V 250.5"
       id="path31586-3" />
    <path
       style="fill:none;stroke:#000000;stroke-linecap:round"
       d="M 303.7965,274.352 V 250.5"
       id="path31588-4" />
    <path
       style="fill:none;stroke:#000000;stroke-linecap:round"
       d="M 250.3935,274.352 V 250.5"
       id="path31590-09" />
    <path
       style="fill:none;stroke:#000000;stroke-linecap:round"
       d="M 210.3415,274.352 V 250.5"
       id="path31592-1" />
    <path
       style="fill:none;stroke:#000000;stroke-width:0.631;stroke-linecap:round"
       d="m 190.3155,274.441 h 413.872"
       id="path31594-8" />
    <path
       style="fill:none;stroke:#000000;stroke-width:0.631;stroke-linecap:round"
       d="M 604.1875,250.41 H 190.3155"
       id="path31596-7" />
    <path
       style="fill:none;stroke:#000000;stroke-width:0.631;stroke-linecap:round"
       d="m 190.3155,250.41 v 24.031"
       id="path31598-0" />
    <path
       style="fill:none;stroke:#000000;stroke-width:0.631;stroke-linecap:round"
       d="m 604.1875,250.41 v 24.031"
       id="path31600-81" />
  </g>
  <g
     inkscape:groupmode="layer"
     inkscape:label="FORMAT"
     id="g31608" />
</svg>
