<?xml version="1.0" encoding="UTF-8" standalone="no"?>
<svg
   viewBox="0 0 793.7007874015749 1122.5196850393702"
   width="793.7007874015749"
   height="1122.5196850393702"
   version="1.1"
   id="svg75759"
   sodipodi:docname="Bar_V4.svg"
   inkscape:version="1.2.2 (732a01da63, 2022-12-09)"
   xmlns:inkscape="http://www.inkscape.org/namespaces/inkscape"
   xmlns:sodipodi="http://sodipodi.sourceforge.net/DTD/sodipodi-0.dtd"
   xmlns="http://www.w3.org/2000/svg"
   xmlns:svg="http://www.w3.org/2000/svg">
  <sodipodi:namedview
     id="namedview75761"
     pagecolor="#ffffff"
     bordercolor="#000000"
     borderopacity="0.25"
     inkscape:showpageshadow="2"
     inkscape:pageopacity="0.0"
     inkscape:pagecheckerboard="0"
     inkscape:deskcolor="#d1d1d1"
     showgrid="false"
     inkscape:zoom="1.3986392"
     inkscape:cx="-16.087065"
     inkscape:cy="283.48984"
     inkscape:window-width="2400"
     inkscape:window-height="1271"
     inkscape:window-x="2391"
     inkscape:window-y="72"
     inkscape:window-maximized="1"
     inkscape:current-layer="g75755" />
  <desc
     id="desc75074">Pièce1.DXF - scale = 0.176619, origin = (0.000000, 0.000000), method = auto</desc>
  <defs
     id="defs75089">
    <linearGradient
       id="linearGradient77979"
       inkscape:swatch="solid">
      <stop
         style="stop-color:#000000;stop-opacity:1;"
         offset="0"
         id="stop77977" />
    </linearGradient>
    <linearGradient
       id="linearGradient76975"
       inkscape:swatch="solid">
      <stop
         style="stop-color:#000000;stop-opacity:1;"
         offset="0"
         id="stop76973" />
    </linearGradient>
    <linearGradient
       id="linearGradient76278"
       inkscape:swatch="solid">
      <stop
         style="stop-color:#000000;stop-opacity:1;"
         offset="0"
         id="stop76276" />
    </linearGradient>
    <marker
       id="DistanceX"
       orient="auto"
       refX="0.0"
       refY="0.0"
       style="overflow:visible">
      <path
         d="M 3,-3 L -3,3 M 0,-5 L  0,5"
         style="stroke:#000000; stroke-width:0.5"
         id="path75076" />
    </marker>
    <pattern
       id="Hatch"
       patternUnits="userSpaceOnUse"
       width="8"
       height="8"
       x="0"
       y="0">
      <path
         d="M8 4 l-4,4"
         stroke="#000000"
         stroke-width="0.25"
         linecap="square"
         id="path75079" />
      <path
         d="M6 2 l-4,4"
         stroke="#000000"
         stroke-width="0.25"
         linecap="square"
         id="path75081" />
      <path
         d="M4 0 l-4,4"
         stroke="#000000"
         stroke-width="0.25"
         linecap="square"
         id="path75083" />
    </pattern>
    <symbol
       id="*Model_Space" />
    <symbol
       id="*Paper_Space" />
    <symbol
       id="*Paper_Space0" />
  </defs>
  <g
     inkscape:groupmode="layer"
     inkscape:label="0"
     id="g75755">
    <circle
       id="path80433"
       style="fill:#ffff00;stroke:#000000"
       cx="240.65022"
       cy="201.21594"
       r="0.1923914" />
    <path
       id="b4-s3"
       style="fill:#ffff00;fill-opacity:0.968553;stroke:#000000;stroke-width:0.377953;stroke-dasharray:none;stroke-opacity:1"
       d="m 329.69795,135.83658 a 16.954872,9.7845755 59.255673 0 0 -3.37695,0.82422 l -0.004,-0.006 -34.22461,22.56055 18.05078,28.67187 33.49219,-22.05664 -0.01,-0.0156 a 16.954872,9.7845755 59.255673 0 0 0.008,-0.004 16.954872,9.7845755 59.255673 0 0 -0.25782,-19.57226 16.954872,9.7845755 59.255673 0 0 -13.67773,-10.40235 z" />
    <path
       id="b4-s2"
       style="fill:#008080;fill-opacity:1;stroke:#000000;stroke-width:0.377953;stroke-dasharray:none"
       d="M 296.57422 157.84766 A 16.954872 9.7845755 59.255673 0 0 292.69531 158.6543 A 16.954872 9.7845755 59.255673 0 0 291.55664 159.56641 L 223.39844 204.49805 L 241.24805 233.25781 L 310.14258 187.88672 L 310.07031 187.77148 A 16.954872 9.7845755 59.255673 0 0 309.77148 168.22266 A 16.954872 9.7845755 59.255673 0 0 296.57422 157.84766 z " />
    <path
       id="b4-s1"
       style="fill:#0000ff;fill-opacity:1;stroke:#000000;stroke-width:0.377953;stroke-dasharray:none"
       d="M 227.39844 203.60742 A 16.954872 9.7845755 59.255673 0 0 223.52148 204.41211 A 16.954872 9.7845755 59.255673 0 0 223.40234 204.50391 L 223.39844 204.49805 L 163.88477 243.72852 L 181.29102 272.74219 L 240.66211 233.64453 A 16.954872 9.7845755 59.255673 0 0 240.85547 233.55664 A 16.954872 9.7845755 59.255673 0 0 240.59766 213.98242 A 16.954872 9.7845755 59.255673 0 0 227.39844 203.60742 z " />
    <ellipse
       style="fill:#ffffff;fill-opacity:1;stroke:#000000;stroke-width:0.377953;stroke-dasharray:none"
       id="path76274-3"
       cx="-16.363308"
       cy="310.16937"
       rx="9.7845755"
       ry="16.954872"
       transform="matrix(-0.85945703,0.511208,0.511208,0.85945703,0,0)" />
  </g>
  <g
     inkscape:groupmode="layer"
     inkscape:label="FORMAT"
     id="g75757" />
</svg>
