<?xml version="1.0" encoding="UTF-8" standalone="no"?>
<svg
   viewBox="0 0 793.7007874015749 1122.5196850393702"
   width="793.7007874015749"
   height="1122.5196850393702"
   version="1.1"
   id="svg15847"
   sodipodi:docname="B8.svg"
   inkscape:version="1.2.2 (732a01da63, 2022-12-09)"
   xmlns:inkscape="http://www.inkscape.org/namespaces/inkscape"
   xmlns:sodipodi="http://sodipodi.sourceforge.net/DTD/sodipodi-0.dtd"
   xmlns="http://www.w3.org/2000/svg"
   xmlns:svg="http://www.w3.org/2000/svg">
  <sodipodi:namedview
     id="namedview15849"
     pagecolor="#ffffff"
     bordercolor="#000000"
     borderopacity="0.25"
     inkscape:showpageshadow="2"
     inkscape:pageopacity="0.0"
     inkscape:pagecheckerboard="0"
     inkscape:deskcolor="#d1d1d1"
     showgrid="false"
     inkscape:zoom="1.4503087"
     inkscape:cx="327.51648"
     inkscape:cy="209.9553"
     inkscape:window-width="2400"
     inkscape:window-height="1271"
     inkscape:window-x="2391"
     inkscape:window-y="72"
     inkscape:window-maximized="1"
     inkscape:current-layer="g15843" />
  <desc
     id="desc15172">MP_8.DXF - scale = 0.176619, origin = (0.000000, 0.000000), method = auto</desc>
  <defs
     id="defs15187">
    <marker
       id="DistanceX"
       orient="auto"
       refX="0.0"
       refY="0.0"
       style="overflow:visible">
      <path
         d="M 3,-3 L -3,3 M 0,-5 L  0,5"
         style="stroke:#000000; stroke-width:0.5"
         id="path15174" />
    </marker>
    <pattern
       id="Hatch"
       patternUnits="userSpaceOnUse"
       width="8"
       height="8"
       x="0"
       y="0">
      <path
         d="M8 4 l-4,4"
         stroke="#000000"
         stroke-width="0.25"
         linecap="square"
         id="path15177" />
      <path
         d="M6 2 l-4,4"
         stroke="#000000"
         stroke-width="0.25"
         linecap="square"
         id="path15179" />
      <path
         d="M4 0 l-4,4"
         stroke="#000000"
         stroke-width="0.25"
         linecap="square"
         id="path15181" />
    </pattern>
    <symbol
       id="*Model_Space" />
    <symbol
       id="*Paper_Space" />
    <symbol
       id="*Paper_Space0" />
  </defs>
  <g
     inkscape:groupmode="layer"
     inkscape:label="0"
     id="g15843">
    <g
       id="b8-s1"
       style="fill:#ff9955">
      <path
         id="path16098"
         style="fill:#ff9955;stroke:#00ff00;stroke-width:0.377953;stroke-opacity:0"
         d="M 276.83594 100.45898 L 196.89062 100.48047 L 197.13086 124.33789 L 277.07227 124.33789 L 276.83594 100.45898 z " />
      <path
         id="path16098-9"
         style="fill:#ff9955;stroke:#00ff00;stroke-width:0.377953;stroke-opacity:0"
         d="m 276.83594,150.45898 -79.94532,0.0215 0.24024,23.85742 h 79.94141 z" />
      <path
         id="path16098-97"
         style="fill:#ff9955;stroke:#00ff00;stroke-width:0.377953;stroke-opacity:0"
         d="m 276.83594,200.45898 -79.94532,0.0215 0.24024,23.85742 h 79.94141 z" />
      <path
         id="path16098-7"
         style="fill:#ff9955;stroke:#00ff00;stroke-width:0.377953;stroke-opacity:0"
         d="m 276.83594,250.45898 -79.94532,0.0215 0.24024,23.85742 h 79.94141 z" />
    </g>
    <g
       id="b8-s2"
       style="fill:#008080">
      <path
         id="path16101"
         style="fill:#008080;stroke:#00ff00;stroke-width:0.377953;stroke-opacity:0"
         d="M 357.17578 100.4375 L 276.83594 100.45898 L 277.07227 124.33789 L 357.2832 124.33789 L 357.17578 100.4375 z " />
      <path
         id="path16101-4"
         style="fill:#008080;stroke:#00ff00;stroke-width:0.377953;stroke-opacity:0"
         d="m 357.17578,150.4375 -80.33984,0.0215 0.23633,23.87891 h 80.21093 z" />
      <path
         id="path16101-40"
         style="fill:#008080;stroke:#00ff00;stroke-width:0.377953;stroke-opacity:0"
         d="m 357.17578,200.4375 -80.33984,0.0215 0.23633,23.87891 h 80.21093 z" />
      <path
         id="path16101-7"
         style="fill:#008080;stroke:#00ff00;stroke-width:0.377953;stroke-opacity:0"
         d="m 357.17578,250.4375 -80.33984,0.0215 0.23633,23.87891 h 80.21093 z" />
    </g>
    <g
       id="b8-s3"
       style="fill:#ff9955">
      <path
         id="path16104"
         style="fill:#ff9955;stroke:#00ff00;stroke-width:0.377953;stroke-opacity:0"
         d="M 437.20312 100.41797 L 357.17578 100.4375 L 357.2832 124.33789 L 437.30859 124.33984 L 437.20312 100.41797 z " />
      <path
         id="path16104-8"
         style="fill:#ff9955;stroke:#00ff00;stroke-width:0.377953;stroke-opacity:0"
         d="m 437.20312,150.41797 -80.02734,0.0195 0.10742,23.90039 80.02539,0.002 z" />
      <path
         id="path16104-5"
         style="fill:#ff9955;stroke:#00ff00;stroke-width:0.377953;stroke-opacity:0"
         d="m 437.20312,200.41797 -80.02734,0.0195 0.10742,23.90039 80.02539,0.002 z" />
      <path
         id="path16104-53"
         style="fill:#ff9955;stroke:#00ff00;stroke-width:0.377953;stroke-opacity:0"
         d="m 437.20312,250.41797 -80.02734,0.0195 0.10742,23.90039 80.02539,0.002 z" />
    </g>
    <g
       id="b8-s4"
       style="fill:#008080">
      <path
         id="path16107"
         style="fill:#008080;stroke:#00ff00;stroke-width:0.377953;stroke-opacity:0"
         d="M 517.42383 100.39648 L 437.20312 100.41797 L 437.30859 124.33984 L 517.31641 124.33984 L 517.42383 100.39648 z " />
      <path
         id="path16107-7"
         style="fill:#008080;stroke:#00ff00;stroke-width:0.377953;stroke-opacity:0"
         d="m 517.42383,150.39648 -80.22071,0.0215 0.10547,23.92187 h 80.00782 z" />
      <path
         id="path16107-6"
         style="fill:#008080;stroke:#00ff00;stroke-width:0.377953;stroke-opacity:0"
         d="m 517.42383,200.39648 -80.22071,0.0215 0.10547,23.92187 h 80.00782 z" />
      <path
         id="path16107-8"
         style="fill:#008080;stroke:#00ff00;stroke-width:0.377953;stroke-opacity:0"
         d="m 517.42383,250.39648 -80.22071,0.0215 0.10547,23.92187 h 80.00782 z" />
    </g>
    <g
       id="b8-s5"
       style="fill:#ff9955">
      <path
         id="path16110"
         style="fill:#ff9955;stroke:#00ff00;stroke-width:0.377953;stroke-opacity:0"
         d="M 597.47461 100.37695 L 517.42383 100.39648 L 517.31641 124.33984 L 597.61328 124.3418 L 597.47461 100.37695 z " />
      <path
         id="path16110-9"
         style="fill:#ff9955;stroke:#00ff00;stroke-width:0.377953;stroke-opacity:0"
         d="m 597.47461,150.37695 -80.05078,0.0195 -0.10742,23.94336 80.29687,0.002 z" />
      <path
         id="path16110-2"
         style="fill:#ff9955;stroke:#00ff00;stroke-width:0.377953;stroke-opacity:0"
         d="m 597.47461,200.37695 -80.05078,0.0195 -0.10742,23.94336 80.29687,0.002 z" />
      <path
         id="path16110-1"
         style="fill:#ff9955;stroke:#00ff00;stroke-width:0.377953;stroke-opacity:0"
         d="m 597.47461,250.37695 -80.05078,0.0195 -0.10742,23.94336 80.29687,0.002 z" />
    </g>
    <path
       id="path16084"
       style="fill:#b3b3b3;stroke:#00ff00;stroke-width:0.377953;stroke-opacity:0"
       d="M 196.89062 100.48047 L 190.29883 100.48242 L 190.40039 124.33789 L 197.13086 124.33789 L 196.89062 100.48047 z " />
    <path
       id="path16113"
       style="fill:#b3b3b3;stroke:#00ff00;stroke-width:0.377953;stroke-opacity:0"
       d="M 597.47461 100.37695 L 597.61328 124.3418 L 604.12695 124.3418 L 604.1582 100.375 L 597.47461 100.37695 z " />
    <path
       style="fill:none;stroke:#000000;stroke-linecap:round"
       d="M 196.9905,124.352 V 100.5"
       id="path15819" />
    <path
       style="fill:none;stroke:#000000;stroke-linecap:round"
       d="M 597.5125,124.352 V 100.5"
       id="path15821" />
    <path
       style="fill:none;stroke:#000000;stroke-linecap:round"
       d="M 517.4085,124.352 V 100.5"
       id="path15823" />
    <path
       style="fill:none;stroke:#000000;stroke-linecap:round"
       d="M 437.3045,124.352 V 100.5"
       id="path15825" />
    <path
       style="fill:none;stroke:#000000;stroke-linecap:round"
       d="M 357.1995,124.352 V 100.5"
       id="path15827" />
    <path
       style="fill:none;stroke:#000000;stroke-linecap:round"
       d="M 277.0955,124.352 V 100.5"
       id="path15829" />
    <path
       style="fill:none;stroke:#000000;stroke-width:0.631;stroke-linecap:round"
       d="m 190.3155,124.442 h 413.873"
       id="path15831" />
    <path
       style="fill:none;stroke:#000000;stroke-width:0.631;stroke-linecap:round"
       d="M 604.1885,100.41 H 190.3155"
       id="path15833" />
    <path
       style="fill:none;stroke:#000000;stroke-width:0.631;stroke-linecap:round"
       d="m 190.3155,100.41 v 24.032"
       id="path15835" />
    <path
       style="fill:none;stroke:#000000;stroke-width:0.631;stroke-linecap:round"
       d="m 604.1885,100.41 v 24.032"
       id="path15837" />
    <path
       id="path16084-7"
       style="fill:#b3b3b3;stroke:#00ff00;stroke-width:0.377953;stroke-opacity:0"
       d="m 196.89062,150.48047 -6.59179,0.002 0.10156,23.85547 h 6.73047 z" />
    <path
       id="path16113-1"
       style="fill:#b3b3b3;stroke:#00ff00;stroke-width:0.377953;stroke-opacity:0"
       d="m 597.47461,150.37695 0.13867,23.96485 h 6.51367 l 0.0312,-23.9668 z" />
    <path
       style="fill:none;stroke:#000000;stroke-linecap:round"
       d="M 196.9905,174.352 V 150.5"
       id="path15819-1" />
    <path
       style="fill:none;stroke:#000000;stroke-linecap:round"
       d="M 597.5125,174.352 V 150.5"
       id="path15821-2" />
    <path
       style="fill:none;stroke:#000000;stroke-linecap:round"
       d="M 517.4085,174.352 V 150.5"
       id="path15823-4" />
    <path
       style="fill:none;stroke:#000000;stroke-linecap:round"
       d="M 437.3045,174.352 V 150.5"
       id="path15825-8" />
    <path
       style="fill:none;stroke:#000000;stroke-linecap:round"
       d="M 357.1995,174.352 V 150.5"
       id="path15827-7" />
    <path
       style="fill:none;stroke:#000000;stroke-linecap:round"
       d="M 277.0955,174.352 V 150.5"
       id="path15829-9" />
    <path
       style="fill:none;stroke:#000000;stroke-width:0.631;stroke-linecap:round"
       d="m 190.3155,174.442 h 413.873"
       id="path15831-7" />
    <path
       style="fill:none;stroke:#000000;stroke-width:0.631;stroke-linecap:round"
       d="M 604.1885,150.41 H 190.3155"
       id="path15833-1" />
    <path
       style="fill:none;stroke:#000000;stroke-width:0.631;stroke-linecap:round"
       d="m 190.3155,150.41 v 24.032"
       id="path15835-0" />
    <path
       style="fill:none;stroke:#000000;stroke-width:0.631;stroke-linecap:round"
       d="m 604.1885,150.41 v 24.032"
       id="path15837-0" />
    <path
       id="path16084-1"
       style="fill:#b3b3b3;stroke:#00ff00;stroke-width:0.377953;stroke-opacity:0"
       d="m 196.89062,200.48047 -6.59179,0.002 0.10156,23.85547 h 6.73047 z" />
    <path
       id="path16113-2"
       style="fill:#b3b3b3;stroke:#00ff00;stroke-width:0.377953;stroke-opacity:0"
       d="m 597.47461,200.37695 0.13867,23.96485 h 6.51367 l 0.0312,-23.9668 z" />
    <path
       style="fill:none;stroke:#000000;stroke-linecap:round"
       d="M 196.9905,224.352 V 200.5"
       id="path15819-8" />
    <path
       style="fill:none;stroke:#000000;stroke-linecap:round"
       d="M 597.5125,224.352 V 200.5"
       id="path15821-5" />
    <path
       style="fill:none;stroke:#000000;stroke-linecap:round"
       d="M 517.4085,224.352 V 200.5"
       id="path15823-1" />
    <path
       style="fill:none;stroke:#000000;stroke-linecap:round"
       d="M 437.3045,224.352 V 200.5"
       id="path15825-9" />
    <path
       style="fill:none;stroke:#000000;stroke-linecap:round"
       d="M 357.1995,224.352 V 200.5"
       id="path15827-9" />
    <path
       style="fill:none;stroke:#000000;stroke-linecap:round"
       d="M 277.0955,224.352 V 200.5"
       id="path15829-1" />
    <path
       style="fill:none;stroke:#000000;stroke-width:0.631;stroke-linecap:round"
       d="m 190.3155,224.442 h 413.873"
       id="path15831-9" />
    <path
       style="fill:none;stroke:#000000;stroke-width:0.631;stroke-linecap:round"
       d="M 604.1885,200.41 H 190.3155"
       id="path15833-2" />
    <path
       style="fill:none;stroke:#000000;stroke-width:0.631;stroke-linecap:round"
       d="m 190.3155,200.41 v 24.032"
       id="path15835-1" />
    <path
       style="fill:none;stroke:#000000;stroke-width:0.631;stroke-linecap:round"
       d="m 604.1885,200.41 v 24.032"
       id="path15837-2" />
    <path
       id="path16084-6"
       style="fill:#b3b3b3;stroke:#00ff00;stroke-width:0.377953;stroke-opacity:0"
       d="m 196.89062,250.48047 -6.59179,0.002 0.10156,23.85547 h 6.73047 z" />
    <path
       id="path16113-9"
       style="fill:#b3b3b3;stroke:#00ff00;stroke-width:0.377953;stroke-opacity:0"
       d="m 597.47461,250.37695 0.13867,23.96485 h 6.51367 l 0.0312,-23.9668 z" />
    <path
       style="fill:none;stroke:#000000;stroke-linecap:round"
       d="M 196.9905,274.352 V 250.5"
       id="path15819-5" />
    <path
       style="fill:none;stroke:#000000;stroke-linecap:round"
       d="M 597.5125,274.352 V 250.5"
       id="path15821-6" />
    <path
       style="fill:none;stroke:#000000;stroke-linecap:round"
       d="M 517.4085,274.352 V 250.5"
       id="path15823-9" />
    <path
       style="fill:none;stroke:#000000;stroke-linecap:round"
       d="M 437.3045,274.352 V 250.5"
       id="path15825-4" />
    <path
       style="fill:none;stroke:#000000;stroke-linecap:round"
       d="M 357.1995,274.352 V 250.5"
       id="path15827-5" />
    <path
       style="fill:none;stroke:#000000;stroke-linecap:round"
       d="M 277.0955,274.352 V 250.5"
       id="path15829-0" />
    <path
       style="fill:none;stroke:#000000;stroke-width:0.631;stroke-linecap:round"
       d="m 190.3155,274.442 h 413.873"
       id="path15831-2" />
    <path
       style="fill:none;stroke:#000000;stroke-width:0.631;stroke-linecap:round"
       d="M 604.1885,250.41 H 190.3155"
       id="path15833-8" />
    <path
       style="fill:none;stroke:#000000;stroke-width:0.631;stroke-linecap:round"
       d="m 190.3155,250.41 v 24.032"
       id="path15835-03" />
    <path
       style="fill:none;stroke:#000000;stroke-width:0.631;stroke-linecap:round"
       d="m 604.1885,250.41 v 24.032"
       id="path15837-1" />
  </g>
  <g
     inkscape:groupmode="layer"
     inkscape:label="FORMAT"
     id="g15845" />
</svg>
