<?xml version="1.0" encoding="UTF-8" standalone="no"?>
<!-- Created with Inkscape (http://www.inkscape.org/) -->

<svg
   width="210mm"
   height="297mm"
   viewBox="0 0 210 297"
   version="1.1"
   id="svg43157"
   inkscape:version="1.2.2 (732a01da63, 2022-12-09)"
   sodipodi:docname="Bar_V5.svg"
   xmlns:inkscape="http://www.inkscape.org/namespaces/inkscape"
   xmlns:sodipodi="http://sodipodi.sourceforge.net/DTD/sodipodi-0.dtd"
   xmlns="http://www.w3.org/2000/svg"
   xmlns:svg="http://www.w3.org/2000/svg">
  <sodipodi:namedview
     id="namedview43159"
     pagecolor="#ffffff"
     bordercolor="#000000"
     borderopacity="0.25"
     inkscape:showpageshadow="2"
     inkscape:pageopacity="0.0"
     inkscape:pagecheckerboard="0"
     inkscape:deskcolor="#d1d1d1"
     inkscape:document-units="mm"
     showgrid="false"
     inkscape:zoom="1"
     inkscape:cx="165"
     inkscape:cy="363.5"
     inkscape:window-width="2400"
     inkscape:window-height="1271"
     inkscape:window-x="2391"
     inkscape:window-y="72"
     inkscape:window-maximized="1"
     inkscape:current-layer="layer1" />
  <defs
     id="defs43154">
    <marker
       style="overflow:visible"
       id="Dot-6-4-6-2-5-1"
       refX="0"
       refY="0"
       orient="auto"
       inkscape:stockid="Dot"
       markerWidth="5.6666665"
       markerHeight="5.6666665"
       viewBox="0 0 5.6666667 5.6666667"
       inkscape:isstock="true"
       inkscape:collect="always"
       preserveAspectRatio="xMidYMid">
      <path
         transform="scale(0.5)"
         style="fill:context-stroke;fill-rule:evenodd;stroke:context-stroke;stroke-width:1pt"
         d="M 5,0 C 5,2.76 2.76,5 0,5 -2.76,5 -5,2.76 -5,0 c 0,-2.76 2.3,-5 5,-5 2.76,0 5,2.24 5,5 z"
         id="Dot1-7-8-7-0-3-9"
         sodipodi:nodetypes="sssss" />
    </marker>
    <marker
       style="overflow:visible"
       id="Dot-6-4-6-2-5-7"
       refX="0"
       refY="0"
       orient="auto"
       inkscape:stockid="Dot"
       markerWidth="5.6666665"
       markerHeight="5.6666665"
       viewBox="0 0 5.6666667 5.6666667"
       inkscape:isstock="true"
       inkscape:collect="always"
       preserveAspectRatio="xMidYMid">
      <path
         transform="scale(0.5)"
         style="fill:context-stroke;fill-rule:evenodd;stroke:context-stroke;stroke-width:1pt"
         d="M 5,0 C 5,2.76 2.76,5 0,5 -2.76,5 -5,2.76 -5,0 c 0,-2.76 2.3,-5 5,-5 2.76,0 5,2.24 5,5 z"
         id="Dot1-7-8-7-0-3-8"
         sodipodi:nodetypes="sssss" />
    </marker>
    <marker
       style="overflow:visible"
       id="Dot-6-4-6-2-5-7-2"
       refX="0"
       refY="0"
       orient="auto"
       inkscape:stockid="Dot"
       markerWidth="5.6666665"
       markerHeight="5.6666665"
       viewBox="0 0 5.6666667 5.6666667"
       inkscape:isstock="true"
       inkscape:collect="always"
       preserveAspectRatio="xMidYMid">
      <path
         transform="scale(0.5)"
         style="fill:context-stroke;fill-rule:evenodd;stroke:context-stroke;stroke-width:1pt"
         d="M 5,0 C 5,2.76 2.76,5 0,5 -2.76,5 -5,2.76 -5,0 c 0,-2.76 2.3,-5 5,-5 2.76,0 5,2.24 5,5 z"
         id="Dot1-7-8-7-0-3-8-9"
         sodipodi:nodetypes="sssss" />
    </marker>
    <marker
       style="overflow:visible"
       id="Dot-6-4-6-2-5-7-6"
       refX="0"
       refY="0"
       orient="auto"
       inkscape:stockid="Dot"
       markerWidth="5.6666665"
       markerHeight="5.6666665"
       viewBox="0 0 5.6666667 5.6666667"
       inkscape:isstock="true"
       inkscape:collect="always"
       preserveAspectRatio="xMidYMid">
      <path
         transform="scale(0.5)"
         style="fill:context-stroke;fill-rule:evenodd;stroke:context-stroke;stroke-width:1pt"
         d="M 5,0 C 5,2.76 2.76,5 0,5 -2.76,5 -5,2.76 -5,0 c 0,-2.76 2.3,-5 5,-5 2.76,0 5,2.24 5,5 z"
         id="Dot1-7-8-7-0-3-8-95"
         sodipodi:nodetypes="sssss" />
    </marker>
    <marker
       style="overflow:visible"
       id="Dot-6-4-6-2-5-1-8"
       refX="0"
       refY="0"
       orient="auto"
       inkscape:stockid="Dot"
       markerWidth="5.6666665"
       markerHeight="5.6666665"
       viewBox="0 0 5.6666667 5.6666667"
       inkscape:isstock="true"
       inkscape:collect="always"
       preserveAspectRatio="xMidYMid">
      <path
         transform="scale(0.5)"
         style="fill:context-stroke;fill-rule:evenodd;stroke:context-stroke;stroke-width:1pt"
         d="M 5,0 C 5,2.76 2.76,5 0,5 -2.76,5 -5,2.76 -5,0 c 0,-2.76 2.3,-5 5,-5 2.76,0 5,2.24 5,5 z"
         id="Dot1-7-8-7-0-3-9-1"
         sodipodi:nodetypes="sssss" />
    </marker>
    <marker
       style="overflow:visible"
       id="Dot-6-4-6-2-5-1-8-3"
       refX="0"
       refY="0"
       orient="auto"
       inkscape:stockid="Dot"
       markerWidth="5.6666665"
       markerHeight="5.6666665"
       viewBox="0 0 5.6666667 5.6666667"
       inkscape:isstock="true"
       inkscape:collect="always"
       preserveAspectRatio="xMidYMid">
      <path
         transform="scale(0.5)"
         style="fill:context-stroke;fill-rule:evenodd;stroke:context-stroke;stroke-width:1pt"
         d="M 5,0 C 5,2.76 2.76,5 0,5 -2.76,5 -5,2.76 -5,0 c 0,-2.76 2.3,-5 5,-5 2.76,0 5,2.24 5,5 z"
         id="Dot1-7-8-7-0-3-9-1-0"
         sodipodi:nodetypes="sssss" />
    </marker>
    <marker
       style="overflow:visible"
       id="Dot-6-4-6-2-5-7-6-3"
       refX="0"
       refY="0"
       orient="auto"
       inkscape:stockid="Dot"
       markerWidth="5.6666665"
       markerHeight="5.6666665"
       viewBox="0 0 5.6666667 5.6666667"
       inkscape:isstock="true"
       inkscape:collect="always"
       preserveAspectRatio="xMidYMid">
      <path
         transform="scale(0.5)"
         style="fill:context-stroke;fill-rule:evenodd;stroke:context-stroke;stroke-width:1pt"
         d="M 5,0 C 5,2.76 2.76,5 0,5 -2.76,5 -5,2.76 -5,0 c 0,-2.76 2.3,-5 5,-5 2.76,0 5,2.24 5,5 z"
         id="Dot1-7-8-7-0-3-8-95-1"
         sodipodi:nodetypes="sssss" />
    </marker>
    <marker
       style="overflow:visible"
       id="Dot-6-4-6-2-5-7-2-7"
       refX="0"
       refY="0"
       orient="auto"
       inkscape:stockid="Dot"
       markerWidth="5.6666665"
       markerHeight="5.6666665"
       viewBox="0 0 5.6666667 5.6666667"
       inkscape:isstock="true"
       inkscape:collect="always"
       preserveAspectRatio="xMidYMid">
      <path
         transform="scale(0.5)"
         style="fill:context-stroke;fill-rule:evenodd;stroke:context-stroke;stroke-width:1pt"
         d="M 5,0 C 5,2.76 2.76,5 0,5 -2.76,5 -5,2.76 -5,0 c 0,-2.76 2.3,-5 5,-5 2.76,0 5,2.24 5,5 z"
         id="Dot1-7-8-7-0-3-8-9-3"
         sodipodi:nodetypes="sssss" />
    </marker>
    <marker
       style="overflow:visible"
       id="Dot-6-4-6-2-5-7-8"
       refX="0"
       refY="0"
       orient="auto"
       inkscape:stockid="Dot"
       markerWidth="5.6666665"
       markerHeight="5.6666665"
       viewBox="0 0 5.6666667 5.6666667"
       inkscape:isstock="true"
       inkscape:collect="always"
       preserveAspectRatio="xMidYMid">
      <path
         transform="scale(0.5)"
         style="fill:context-stroke;fill-rule:evenodd;stroke:context-stroke;stroke-width:1pt"
         d="M 5,0 C 5,2.76 2.76,5 0,5 -2.76,5 -5,2.76 -5,0 c 0,-2.76 2.3,-5 5,-5 2.76,0 5,2.24 5,5 z"
         id="Dot1-7-8-7-0-3-8-8"
         sodipodi:nodetypes="sssss" />
    </marker>
    <marker
       style="overflow:visible"
       id="Dot-6-4-6-2-5-1-9"
       refX="0"
       refY="0"
       orient="auto"
       inkscape:stockid="Dot"
       markerWidth="5.6666665"
       markerHeight="5.6666665"
       viewBox="0 0 5.6666667 5.6666667"
       inkscape:isstock="true"
       inkscape:collect="always"
       preserveAspectRatio="xMidYMid">
      <path
         transform="scale(0.5)"
         style="fill:context-stroke;fill-rule:evenodd;stroke:context-stroke;stroke-width:1pt"
         d="M 5,0 C 5,2.76 2.76,5 0,5 -2.76,5 -5,2.76 -5,0 c 0,-2.76 2.3,-5 5,-5 2.76,0 5,2.24 5,5 z"
         id="Dot1-7-8-7-0-3-9-5"
         sodipodi:nodetypes="sssss" />
    </marker>
    <marker
       style="overflow:visible"
       id="Dot-6-4-6-2-5-1-8-7"
       refX="0"
       refY="0"
       orient="auto"
       inkscape:stockid="Dot"
       markerWidth="5.6666665"
       markerHeight="5.6666665"
       viewBox="0 0 5.6666667 5.6666667"
       inkscape:isstock="true"
       inkscape:collect="always"
       preserveAspectRatio="xMidYMid">
      <path
         transform="scale(0.5)"
         style="fill:context-stroke;fill-rule:evenodd;stroke:context-stroke;stroke-width:1pt"
         d="M 5,0 C 5,2.76 2.76,5 0,5 -2.76,5 -5,2.76 -5,0 c 0,-2.76 2.3,-5 5,-5 2.76,0 5,2.24 5,5 z"
         id="Dot1-7-8-7-0-3-9-1-2"
         sodipodi:nodetypes="sssss" />
    </marker>
    <marker
       style="overflow:visible"
       id="Dot-6-4-6-2-5-7-6-6"
       refX="0"
       refY="0"
       orient="auto"
       inkscape:stockid="Dot"
       markerWidth="5.6666665"
       markerHeight="5.6666665"
       viewBox="0 0 5.6666667 5.6666667"
       inkscape:isstock="true"
       inkscape:collect="always"
       preserveAspectRatio="xMidYMid">
      <path
         transform="scale(0.5)"
         style="fill:context-stroke;fill-rule:evenodd;stroke:context-stroke;stroke-width:1pt"
         d="M 5,0 C 5,2.76 2.76,5 0,5 -2.76,5 -5,2.76 -5,0 c 0,-2.76 2.3,-5 5,-5 2.76,0 5,2.24 5,5 z"
         id="Dot1-7-8-7-0-3-8-95-3"
         sodipodi:nodetypes="sssss" />
    </marker>
    <marker
       style="overflow:visible"
       id="Dot-6-4-6-2-5-7-2-8"
       refX="0"
       refY="0"
       orient="auto"
       inkscape:stockid="Dot"
       markerWidth="5.6666665"
       markerHeight="5.6666665"
       viewBox="0 0 5.6666667 5.6666667"
       inkscape:isstock="true"
       inkscape:collect="always"
       preserveAspectRatio="xMidYMid">
      <path
         transform="scale(0.5)"
         style="fill:context-stroke;fill-rule:evenodd;stroke:context-stroke;stroke-width:1pt"
         d="M 5,0 C 5,2.76 2.76,5 0,5 -2.76,5 -5,2.76 -5,0 c 0,-2.76 2.3,-5 5,-5 2.76,0 5,2.24 5,5 z"
         id="Dot1-7-8-7-0-3-8-9-6"
         sodipodi:nodetypes="sssss" />
    </marker>
    <marker
       style="overflow:visible"
       id="Dot-6-4-6-2-5-7-5"
       refX="0"
       refY="0"
       orient="auto"
       inkscape:stockid="Dot"
       markerWidth="5.6666665"
       markerHeight="5.6666665"
       viewBox="0 0 5.6666667 5.6666667"
       inkscape:isstock="true"
       inkscape:collect="always"
       preserveAspectRatio="xMidYMid">
      <path
         transform="scale(0.5)"
         style="fill:context-stroke;fill-rule:evenodd;stroke:context-stroke;stroke-width:1pt"
         d="M 5,0 C 5,2.76 2.76,5 0,5 -2.76,5 -5,2.76 -5,0 c 0,-2.76 2.3,-5 5,-5 2.76,0 5,2.24 5,5 z"
         id="Dot1-7-8-7-0-3-8-4"
         sodipodi:nodetypes="sssss" />
    </marker>
    <marker
       style="overflow:visible"
       id="Dot-6-4-6-2-5-1-0"
       refX="0"
       refY="0"
       orient="auto"
       inkscape:stockid="Dot"
       markerWidth="5.6666665"
       markerHeight="5.6666665"
       viewBox="0 0 5.6666667 5.6666667"
       inkscape:isstock="true"
       inkscape:collect="always"
       preserveAspectRatio="xMidYMid">
      <path
         transform="scale(0.5)"
         style="fill:context-stroke;fill-rule:evenodd;stroke:context-stroke;stroke-width:1pt"
         d="M 5,0 C 5,2.76 2.76,5 0,5 -2.76,5 -5,2.76 -5,0 c 0,-2.76 2.3,-5 5,-5 2.76,0 5,2.24 5,5 z"
         id="Dot1-7-8-7-0-3-9-9"
         sodipodi:nodetypes="sssss" />
    </marker>
    <marker
       style="overflow:visible"
       id="Dot-6-4-6-2-5-1-8-1"
       refX="0"
       refY="0"
       orient="auto"
       inkscape:stockid="Dot"
       markerWidth="5.6666665"
       markerHeight="5.6666665"
       viewBox="0 0 5.6666667 5.6666667"
       inkscape:isstock="true"
       inkscape:collect="always"
       preserveAspectRatio="xMidYMid">
      <path
         transform="scale(0.5)"
         style="fill:context-stroke;fill-rule:evenodd;stroke:context-stroke;stroke-width:1pt"
         d="M 5,0 C 5,2.76 2.76,5 0,5 -2.76,5 -5,2.76 -5,0 c 0,-2.76 2.3,-5 5,-5 2.76,0 5,2.24 5,5 z"
         id="Dot1-7-8-7-0-3-9-1-7"
         sodipodi:nodetypes="sssss" />
    </marker>
    <marker
       style="overflow:visible"
       id="Dot-6-4-6-2-5-7-6-8"
       refX="0"
       refY="0"
       orient="auto"
       inkscape:stockid="Dot"
       markerWidth="5.6666665"
       markerHeight="5.6666665"
       viewBox="0 0 5.6666667 5.6666667"
       inkscape:isstock="true"
       inkscape:collect="always"
       preserveAspectRatio="xMidYMid">
      <path
         transform="scale(0.5)"
         style="fill:context-stroke;fill-rule:evenodd;stroke:context-stroke;stroke-width:1pt"
         d="M 5,0 C 5,2.76 2.76,5 0,5 -2.76,5 -5,2.76 -5,0 c 0,-2.76 2.3,-5 5,-5 2.76,0 5,2.24 5,5 z"
         id="Dot1-7-8-7-0-3-8-95-8"
         sodipodi:nodetypes="sssss" />
    </marker>
    <marker
       style="overflow:visible"
       id="Dot-6-4-6-2-5-7-2-3"
       refX="0"
       refY="0"
       orient="auto"
       inkscape:stockid="Dot"
       markerWidth="5.6666665"
       markerHeight="5.6666665"
       viewBox="0 0 5.6666667 5.6666667"
       inkscape:isstock="true"
       inkscape:collect="always"
       preserveAspectRatio="xMidYMid">
      <path
         transform="scale(0.5)"
         style="fill:context-stroke;fill-rule:evenodd;stroke:context-stroke;stroke-width:1pt"
         d="M 5,0 C 5,2.76 2.76,5 0,5 -2.76,5 -5,2.76 -5,0 c 0,-2.76 2.3,-5 5,-5 2.76,0 5,2.24 5,5 z"
         id="Dot1-7-8-7-0-3-8-9-2"
         sodipodi:nodetypes="sssss" />
    </marker>
    <marker
       style="overflow:visible"
       id="Dot-6-4-6-2-5-7-53"
       refX="0"
       refY="0"
       orient="auto"
       inkscape:stockid="Dot"
       markerWidth="5.6666665"
       markerHeight="5.6666665"
       viewBox="0 0 5.6666667 5.6666667"
       inkscape:isstock="true"
       inkscape:collect="always"
       preserveAspectRatio="xMidYMid">
      <path
         transform="scale(0.5)"
         style="fill:context-stroke;fill-rule:evenodd;stroke:context-stroke;stroke-width:1pt"
         d="M 5,0 C 5,2.76 2.76,5 0,5 -2.76,5 -5,2.76 -5,0 c 0,-2.76 2.3,-5 5,-5 2.76,0 5,2.24 5,5 z"
         id="Dot1-7-8-7-0-3-8-5"
         sodipodi:nodetypes="sssss" />
    </marker>
    <marker
       style="overflow:visible"
       id="Dot-6-4-6-2-5-1-86"
       refX="0"
       refY="0"
       orient="auto"
       inkscape:stockid="Dot"
       markerWidth="5.6666665"
       markerHeight="5.6666665"
       viewBox="0 0 5.6666667 5.6666667"
       inkscape:isstock="true"
       inkscape:collect="always"
       preserveAspectRatio="xMidYMid">
      <path
         transform="scale(0.5)"
         style="fill:context-stroke;fill-rule:evenodd;stroke:context-stroke;stroke-width:1pt"
         d="M 5,0 C 5,2.76 2.76,5 0,5 -2.76,5 -5,2.76 -5,0 c 0,-2.76 2.3,-5 5,-5 2.76,0 5,2.24 5,5 z"
         id="Dot1-7-8-7-0-3-9-13"
         sodipodi:nodetypes="sssss" />
    </marker>
  </defs>
  <g
     inkscape:label="Calque 1"
     inkscape:groupmode="layer"
     id="layer1">
    <ellipse
       style="fill:#999999;stroke:#000000;stroke-width:0.2;stroke-dasharray:none;paint-order:markers stroke fill"
       id="path27054-3-6-46-9-6"
       cx="175.82368"
       cy="39.381248"
       rx="6.53125"
       ry="9.28125" />
    <ellipse
       style="fill:#999999;stroke:#000000;stroke-width:0.2;stroke-dasharray:none;paint-order:markers stroke fill"
       id="path27054-3-6-46-9-6-6"
       cx="175.82367"
       cy="69.381248"
       rx="6.53125"
       ry="9.28125" />
    <ellipse
       style="fill:#999999;stroke:#000000;stroke-width:0.2;stroke-dasharray:none;paint-order:markers stroke fill"
       id="path27054-3-6-46-9-6-5"
       cx="175.82368"
       cy="99.381248"
       rx="6.53125"
       ry="9.28125" />
    <ellipse
       style="fill:#999999;stroke:#000000;stroke-width:0.2;stroke-dasharray:none;paint-order:markers stroke fill"
       id="path27054-3-6-46-9-6-55"
       cx="175.82368"
       cy="129.38126"
       rx="6.53125"
       ry="9.28125" />
    <g
       id="b5-s5">
      <g
         id="4"
         transform="translate(-1.6229271,1.9641014)">
        <path
           style="fill:#aa4400;stroke:#000000;stroke-width:0.03;stroke-opacity:0;paint-order:markers stroke fill"
           d="m 167.20689,48.867705 9.42998,-1.920425 -0.0111,-18.542857 -9.42268,1.900867 z"
           id="path47967-7" />
        <ellipse
           style="fill:#aa4400;stroke:#000000;stroke-width:0.03;stroke-dasharray:none;stroke-opacity:0;marker-mid:url(#Dot-6-4-6-2-5-1-8);paint-order:markers stroke fill"
           id="path27054-3-6-1-9-8-7-2"
           cx="176.61259"
           cy="37.560715"
           rx="6.53125"
           ry="9.28125" />
      </g>
      <g
         id="4-4"
         transform="translate(-1.6229282,31.964106)">
        <path
           style="fill:#aa4400;stroke:#000000;stroke-width:0.03;stroke-opacity:0;paint-order:markers stroke fill"
           d="m 167.20689,48.867705 9.42998,-1.920425 -0.0111,-18.542857 -9.42268,1.900867 z"
           id="path47967-7-4" />
        <ellipse
           style="fill:#aa4400;stroke:#000000;stroke-width:0.03;stroke-dasharray:none;stroke-opacity:0;marker-mid:url(#Dot-6-4-6-2-5-1-8-3);paint-order:markers stroke fill"
           id="path27054-3-6-1-9-8-7-2-5"
           cx="176.61259"
           cy="37.560715"
           rx="6.53125"
           ry="9.28125" />
      </g>
      <g
         id="4-8"
         transform="translate(-1.6229274,61.964103)">
        <path
           style="fill:#aa4400;stroke:#000000;stroke-width:0.03;stroke-opacity:0;paint-order:markers stroke fill"
           d="m 167.20689,48.867705 9.42998,-1.920425 -0.0111,-18.542857 -9.42268,1.900867 z"
           id="path47967-7-3" />
        <ellipse
           style="fill:#aa4400;stroke:#000000;stroke-width:0.03;stroke-dasharray:none;stroke-opacity:0;marker-mid:url(#Dot-6-4-6-2-5-1-8-7);paint-order:markers stroke fill"
           id="path27054-3-6-1-9-8-7-2-4"
           cx="176.61259"
           cy="37.560715"
           rx="6.53125"
           ry="9.28125" />
      </g>
      <g
         id="4-2"
         transform="translate(-1.622928,91.964103)">
        <path
           style="fill:#aa4400;stroke:#000000;stroke-width:0.03;stroke-opacity:0;paint-order:markers stroke fill"
           d="m 167.20689,48.867705 9.42998,-1.920425 -0.0111,-18.542857 -9.42268,1.900867 z"
           id="path47967-7-1" />
        <ellipse
           style="fill:#aa4400;stroke:#000000;stroke-width:0.03;stroke-dasharray:none;stroke-opacity:0;marker-mid:url(#Dot-6-4-6-2-5-1-8-1);paint-order:markers stroke fill"
           id="path27054-3-6-1-9-8-7-2-7"
           cx="176.61259"
           cy="37.560715"
           rx="6.53125"
           ry="9.28125" />
      </g>
    </g>
    <g
       id="b5-s4">
      <g
         id="3"
         style="fill:#008080"
         transform="translate(-1.6229271,1.9641014)">
        <path
           style="fill:#008080;stroke:#000000;stroke-width:0.03;stroke-opacity:0;paint-order:markers stroke fill"
           d="m 117.71388,40.382654 49.52497,-10.04915 0.0117,18.556857 -49.5284,10.039998 z"
           id="path47969-0" />
        <ellipse
           style="fill:#008080;stroke:#000000;stroke-width:0.0298936;stroke-dasharray:none;stroke-opacity:0;marker-mid:url(#Dot-6-4-6-2-5-7-6);paint-order:markers stroke fill"
           id="path27054-3-6-1-9-8-73-51"
           cx="167.23891"
           cy="39.639362"
           rx="6.5314274"
           ry="9.2153015" />
      </g>
      <g
         id="3-9"
         style="fill:#008080"
         transform="translate(-1.6229282,31.964106)">
        <path
           style="fill:#008080;stroke:#000000;stroke-width:0.03;stroke-opacity:0;paint-order:markers stroke fill"
           d="m 117.71388,40.382654 49.52497,-10.04915 0.0117,18.556857 -49.5284,10.039998 z"
           id="path47969-0-5" />
        <ellipse
           style="fill:#008080;stroke:#000000;stroke-width:0.0298936;stroke-dasharray:none;stroke-opacity:0;marker-mid:url(#Dot-6-4-6-2-5-7-6-3);paint-order:markers stroke fill"
           id="path27054-3-6-1-9-8-73-51-1"
           cx="167.23891"
           cy="39.639362"
           rx="6.5314274"
           ry="9.2153015" />
      </g>
      <g
         id="3-8"
         style="fill:#008080"
         transform="translate(-1.6229274,61.964103)">
        <path
           style="fill:#008080;stroke:#000000;stroke-width:0.03;stroke-opacity:0;paint-order:markers stroke fill"
           d="m 117.71388,40.382654 49.52497,-10.04915 0.0117,18.556857 -49.5284,10.039998 z"
           id="path47969-0-52" />
        <ellipse
           style="fill:#008080;stroke:#000000;stroke-width:0.0298936;stroke-dasharray:none;stroke-opacity:0;marker-mid:url(#Dot-6-4-6-2-5-7-6-6);paint-order:markers stroke fill"
           id="path27054-3-6-1-9-8-73-51-9"
           cx="167.23891"
           cy="39.639362"
           rx="6.5314274"
           ry="9.2153015" />
      </g>
      <g
         id="3-5"
         style="fill:#008080"
         transform="translate(-1.622928,91.964103)">
        <path
           style="fill:#008080;stroke:#000000;stroke-width:0.03;stroke-opacity:0;paint-order:markers stroke fill"
           d="m 117.71388,40.382654 49.52497,-10.04915 0.0117,18.556857 -49.5284,10.039998 z"
           id="path47969-0-9" />
        <ellipse
           style="fill:#008080;stroke:#000000;stroke-width:0.0298936;stroke-dasharray:none;stroke-opacity:0;marker-mid:url(#Dot-6-4-6-2-5-7-6-8);paint-order:markers stroke fill"
           id="path27054-3-6-1-9-8-73-51-0"
           cx="167.23891"
           cy="39.639362"
           rx="6.5314274"
           ry="9.2153015" />
      </g>
    </g>
    <g
       id="b5-s3">
      <g
         id="b3-2"
         style="fill:#aa4400"
         transform="translate(-1.6229271,1.9641014)">
        <path
           style="fill:#aa4400;stroke:#000000;stroke-width:0.03;stroke-opacity:0;paint-order:markers stroke fill"
           d="m 88.180663,46.363061 29.625067,-6.001702 -0.007,18.565725 -29.60143,5.99195 z"
           id="path47971" />
        <ellipse
           style="fill:#aa4400;stroke:#000000;stroke-width:0.0298936;stroke-dasharray:none;stroke-opacity:0;marker-mid:url(#Dot-6-4-6-2-5-7-2);paint-order:markers stroke fill"
           id="path27054-3-6-1-9-8-73-5"
           cx="117.70489"
           cy="49.673923"
           rx="6.5314274"
           ry="9.2153015" />
      </g>
      <g
         id="b3-2-9"
         style="fill:#aa4400"
         transform="translate(-1.6229282,31.964106)">
        <path
           style="fill:#aa4400;stroke:#000000;stroke-width:0.03;stroke-opacity:0;paint-order:markers stroke fill"
           d="m 88.180663,46.363061 29.625067,-6.001702 -0.007,18.565725 -29.60143,5.99195 z"
           id="path47971-7" />
        <ellipse
           style="fill:#aa4400;stroke:#000000;stroke-width:0.0298936;stroke-dasharray:none;stroke-opacity:0;marker-mid:url(#Dot-6-4-6-2-5-7-2-7);paint-order:markers stroke fill"
           id="path27054-3-6-1-9-8-73-5-8"
           cx="117.70489"
           cy="49.673923"
           rx="6.5314274"
           ry="9.2153015" />
      </g>
      <g
         id="b3-2-3"
         style="fill:#aa4400"
         transform="translate(-1.6229274,61.964103)">
        <path
           style="fill:#aa4400;stroke:#000000;stroke-width:0.03;stroke-opacity:0;paint-order:markers stroke fill"
           d="m 88.180663,46.363061 29.625067,-6.001702 -0.007,18.565725 -29.60143,5.99195 z"
           id="path47971-1" />
        <ellipse
           style="fill:#aa4400;stroke:#000000;stroke-width:0.0298936;stroke-dasharray:none;stroke-opacity:0;marker-mid:url(#Dot-6-4-6-2-5-7-2-8);paint-order:markers stroke fill"
           id="path27054-3-6-1-9-8-73-5-85"
           cx="117.70489"
           cy="49.673923"
           rx="6.5314274"
           ry="9.2153015" />
      </g>
      <g
         id="b3-2-4"
         style="fill:#aa4400"
         transform="translate(-1.622928,91.964103)">
        <path
           style="fill:#aa4400;stroke:#000000;stroke-width:0.03;stroke-opacity:0;paint-order:markers stroke fill"
           d="m 88.180663,46.363061 29.625067,-6.001702 -0.007,18.565725 -29.60143,5.99195 z"
           id="path47971-4" />
        <ellipse
           style="fill:#aa4400;stroke:#000000;stroke-width:0.0298936;stroke-dasharray:none;stroke-opacity:0;marker-mid:url(#Dot-6-4-6-2-5-7-2-3);paint-order:markers stroke fill"
           id="path27054-3-6-1-9-8-73-5-6"
           cx="117.70489"
           cy="49.673923"
           rx="6.5314274"
           ry="9.2153015" />
      </g>
    </g>
    <g
       id="b5-s2">
      <g
         id="b5-1"
         transform="translate(-1.6229271,1.9641014)">
        <path
           style="fill:#008080;stroke:#000000;stroke-width:0.03;stroke-opacity:0;paint-order:markers stroke fill"
           d="m 38.658104,56.41206 49.524969,-10.04915 0.0117,18.556857 -49.528396,10.039998 z"
           id="path47969" />
        <ellipse
           style="fill:#008080;stroke:#000000;stroke-width:0.0298936;stroke-dasharray:none;stroke-opacity:0;marker-mid:url(#Dot-6-4-6-2-5-7);paint-order:markers stroke fill"
           id="path27054-3-6-1-9-8-73"
           cx="88.183128"
           cy="55.645386"
           rx="6.5314274"
           ry="9.2153015" />
      </g>
      <g
         id="b5-1-3"
         transform="translate(-1.6229282,31.964106)">
        <path
           style="fill:#008080;stroke:#000000;stroke-width:0.03;stroke-opacity:0;paint-order:markers stroke fill"
           d="m 38.658104,56.41206 49.524969,-10.04915 0.0117,18.556857 -49.528396,10.039998 z"
           id="path47969-8" />
        <ellipse
           style="fill:#008080;stroke:#000000;stroke-width:0.0298936;stroke-dasharray:none;stroke-opacity:0;marker-mid:url(#Dot-6-4-6-2-5-7-8);paint-order:markers stroke fill"
           id="path27054-3-6-1-9-8-73-1"
           cx="88.183128"
           cy="55.645386"
           rx="6.5314274"
           ry="9.2153015" />
      </g>
      <g
         id="b5-1-8"
         transform="translate(-1.6229274,61.964103)">
        <path
           style="fill:#008080;stroke:#000000;stroke-width:0.03;stroke-opacity:0;paint-order:markers stroke fill"
           d="m 38.658104,56.41206 49.524969,-10.04915 0.0117,18.556857 -49.528396,10.039998 z"
           id="path47969-3" />
        <ellipse
           style="fill:#008080;stroke:#000000;stroke-width:0.0298936;stroke-dasharray:none;stroke-opacity:0;marker-mid:url(#Dot-6-4-6-2-5-7-5);paint-order:markers stroke fill"
           id="path27054-3-6-1-9-8-73-3"
           cx="88.183128"
           cy="55.645386"
           rx="6.5314274"
           ry="9.2153015" />
      </g>
      <g
         id="b5-1-34"
         transform="translate(-1.622928,91.964103)">
        <path
           style="fill:#008080;stroke:#000000;stroke-width:0.03;stroke-opacity:0;paint-order:markers stroke fill"
           d="m 38.658104,56.41206 49.524969,-10.04915 0.0117,18.556857 -49.528396,10.039998 z"
           id="path47969-9" />
        <ellipse
           style="fill:#008080;stroke:#000000;stroke-width:0.0298936;stroke-dasharray:none;stroke-opacity:0;marker-mid:url(#Dot-6-4-6-2-5-7-53);paint-order:markers stroke fill"
           id="path27054-3-6-1-9-8-73-17"
           cx="88.183128"
           cy="55.645386"
           rx="6.5314274"
           ry="9.2153015" />
      </g>
    </g>
    <g
       id="b5-s1">
      <g
         id="1"
         transform="translate(-1.6229271,1.9641014)">
        <path
           style="fill:#aa4400;stroke:#000000;stroke-width:0.03;stroke-opacity:0;paint-order:markers stroke fill"
           d="m 29.236516,76.940184 9.429988,-1.920425 -0.01111,-18.542857 -9.422681,1.900867 z"
           id="path47967" />
        <ellipse
           style="fill:#aa4400;stroke:#000000;stroke-width:0.0298936;stroke-dasharray:none;stroke-opacity:0;marker-mid:url(#Dot-6-4-6-2-5-1);paint-order:markers stroke fill"
           id="path27054-3-6-1-9-8-7"
           cx="38.642094"
           cy="65.750015"
           rx="6.5314274"
           ry="9.2153015" />
      </g>
      <g
         id="1-8"
         transform="translate(-1.6229282,31.964106)">
        <path
           style="fill:#aa4400;stroke:#000000;stroke-width:0.03;stroke-opacity:0;paint-order:markers stroke fill"
           d="m 29.236516,76.940184 9.429988,-1.920425 -0.01111,-18.542857 -9.422681,1.900867 z"
           id="path47967-5" />
        <ellipse
           style="fill:#aa4400;stroke:#000000;stroke-width:0.0298936;stroke-dasharray:none;stroke-opacity:0;marker-mid:url(#Dot-6-4-6-2-5-1-9);paint-order:markers stroke fill"
           id="path27054-3-6-1-9-8-7-7"
           cx="38.642094"
           cy="65.750015"
           rx="6.5314274"
           ry="9.2153015" />
      </g>
      <g
         id="1-0"
         transform="translate(-1.6229274,61.964103)">
        <path
           style="fill:#aa4400;stroke:#000000;stroke-width:0.03;stroke-opacity:0;paint-order:markers stroke fill"
           d="m 29.236516,76.940184 9.429988,-1.920425 -0.01111,-18.542857 -9.422681,1.900867 z"
           id="path47967-0" />
        <ellipse
           style="fill:#aa4400;stroke:#000000;stroke-width:0.0298936;stroke-dasharray:none;stroke-opacity:0;marker-mid:url(#Dot-6-4-6-2-5-1-0);paint-order:markers stroke fill"
           id="path27054-3-6-1-9-8-7-0"
           cx="38.642094"
           cy="65.750015"
           rx="6.5314274"
           ry="9.2153015" />
      </g>
      <g
         id="1-9"
         transform="translate(-1.622928,91.964103)">
        <path
           style="fill:#aa4400;stroke:#000000;stroke-width:0.03;stroke-opacity:0;paint-order:markers stroke fill"
           d="m 29.236516,76.940184 9.429988,-1.920425 -0.01111,-18.542857 -9.422681,1.900867 z"
           id="path47967-2" />
        <ellipse
           style="fill:#aa4400;stroke:#000000;stroke-width:0.0298936;stroke-dasharray:none;stroke-opacity:0;marker-mid:url(#Dot-6-4-6-2-5-1-86);paint-order:markers stroke fill"
           id="path27054-3-6-1-9-8-7-1"
           cx="38.642094"
           cy="65.750015"
           rx="6.5314274"
           ry="9.2153015" />
      </g>
    </g>
    <ellipse
       style="fill:#999999;stroke:#000000;stroke-width:0.2;stroke-dasharray:none;paint-order:markers stroke fill"
       id="path27054-3-6-18-4-4"
       cx="27.608366"
       cy="159.54623"
       rx="6.53125"
       ry="9.28125" />
    <ellipse
       style="fill:#999999;stroke:#000000;stroke-width:0.2;stroke-dasharray:none;paint-order:markers stroke fill"
       id="path27054-3-6-1-9-8-6"
       cx="26.63125"
       cy="159.80812"
       rx="6.53125"
       ry="9.28125" />
    <ellipse
       style="fill:#999999;stroke:#000000;stroke-width:0.2;stroke-dasharray:none;paint-order:markers stroke fill"
       id="path27054-3-6-18-4"
       cx="27.608368"
       cy="69.546234"
       rx="6.53125"
       ry="9.28125" />
    <ellipse
       style="fill:#999999;stroke:#000000;stroke-width:0.2;stroke-dasharray:none;paint-order:markers stroke fill"
       id="path27054-3-6-1-9-8"
       cx="26.63125"
       cy="69.808121"
       rx="6.53125"
       ry="9.28125" />
    <ellipse
       style="fill:#999999;stroke:#000000;stroke-width:0.2;stroke-dasharray:none;paint-order:markers stroke fill"
       id="path27054-3-6-18-4-7"
       cx="27.608368"
       cy="99.546234"
       rx="6.53125"
       ry="9.28125" />
    <ellipse
       style="fill:#999999;stroke:#000000;stroke-width:0.2;stroke-dasharray:none;paint-order:markers stroke fill"
       id="path27054-3-6-1-9-8-70"
       cx="26.63125"
       cy="99.808121"
       rx="6.53125"
       ry="9.28125" />
    <ellipse
       style="fill:#999999;stroke:#000000;stroke-width:0.2;stroke-dasharray:none;paint-order:markers stroke fill"
       id="path27054-3-6-18-4-5"
       cx="27.608368"
       cy="129.54623"
       rx="6.53125"
       ry="9.28125" />
    <ellipse
       style="fill:#999999;stroke:#000000;stroke-width:0.2;stroke-dasharray:none;paint-order:markers stroke fill"
       id="path27054-3-6-1-9-8-5"
       cx="26.63125"
       cy="129.80812"
       rx="6.53125"
       ry="9.28125" />
  </g>
</svg>
