<?xml version="1.0" encoding="UTF-8" standalone="no"?>
<!-- Created with Inkscape (http://www.inkscape.org/) -->

<svg
   width="210mm"
   height="297mm"
   viewBox="0 0 210 297"
   version="1.1"
   id="svg93221"
   inkscape:version="1.2.2 (732a01da63, 2022-12-09)"
   sodipodi:docname="Bar_V10.svg"
   xmlns:inkscape="http://www.inkscape.org/namespaces/inkscape"
   xmlns:sodipodi="http://sodipodi.sourceforge.net/DTD/sodipodi-0.dtd"
   xmlns="http://www.w3.org/2000/svg"
   xmlns:svg="http://www.w3.org/2000/svg">
  <sodipodi:namedview
     id="namedview93223"
     pagecolor="#ffffff"
     bordercolor="#000000"
     borderopacity="0.25"
     inkscape:showpageshadow="2"
     inkscape:pageopacity="0.0"
     inkscape:pagecheckerboard="0"
     inkscape:deskcolor="#d1d1d1"
     inkscape:document-units="mm"
     showgrid="false"
     inkscape:zoom="0.81441057"
     inkscape:cx="-114.19302"
     inkscape:cy="286.71042"
     inkscape:window-width="2400"
     inkscape:window-height="1271"
     inkscape:window-x="2391"
     inkscape:window-y="72"
     inkscape:window-maximized="1"
     inkscape:current-layer="layer1" />
  <defs
     id="defs93218">
    <marker
       style="overflow:visible"
       id="Dot-6-4-7-6-0"
       refX="0"
       refY="0"
       orient="auto"
       inkscape:stockid="Dot"
       markerWidth="5.6666665"
       markerHeight="5.6666665"
       viewBox="0 0 5.6666667 5.6666667"
       inkscape:isstock="true"
       inkscape:collect="always"
       preserveAspectRatio="xMidYMid">
      <path
         transform="scale(0.5)"
         style="fill:context-stroke;fill-rule:evenodd;stroke:context-stroke;stroke-width:1pt"
         d="M 5,0 C 5,2.76 2.76,5 0,5 -2.76,5 -5,2.76 -5,0 c 0,-2.76 2.3,-5 5,-5 2.76,0 5,2.24 5,5 z"
         id="Dot1-7-8-9-2-6"
         sodipodi:nodetypes="sssss" />
    </marker>
    <marker
       style="overflow:visible"
       id="Dot-6-4-6-2-5-7"
       refX="0"
       refY="0"
       orient="auto"
       inkscape:stockid="Dot"
       markerWidth="5.6666665"
       markerHeight="5.6666665"
       viewBox="0 0 5.6666667 5.6666667"
       inkscape:isstock="true"
       inkscape:collect="always"
       preserveAspectRatio="xMidYMid">
      <path
         transform="scale(0.5)"
         style="fill:context-stroke;fill-rule:evenodd;stroke:context-stroke;stroke-width:1pt"
         d="M 5,0 C 5,2.76 2.76,5 0,5 -2.76,5 -5,2.76 -5,0 c 0,-2.76 2.3,-5 5,-5 2.76,0 5,2.24 5,5 z"
         id="Dot1-7-8-7-0-3-7"
         sodipodi:nodetypes="sssss" />
    </marker>
    <marker
       style="overflow:visible"
       id="Dot-6-4-6-2-5-7-7"
       refX="0"
       refY="0"
       orient="auto"
       inkscape:stockid="Dot"
       markerWidth="5.6666665"
       markerHeight="5.6666665"
       viewBox="0 0 5.6666667 5.6666667"
       inkscape:isstock="true"
       inkscape:collect="always"
       preserveAspectRatio="xMidYMid">
      <path
         transform="scale(0.5)"
         style="fill:context-stroke;fill-rule:evenodd;stroke:context-stroke;stroke-width:1pt"
         d="M 5,0 C 5,2.76 2.76,5 0,5 -2.76,5 -5,2.76 -5,0 c 0,-2.76 2.3,-5 5,-5 2.76,0 5,2.24 5,5 z"
         id="Dot1-7-8-7-0-3-7-1"
         sodipodi:nodetypes="sssss" />
    </marker>
    <marker
       style="overflow:visible"
       id="Dot-6-4-6-2-5-7-7-2"
       refX="0"
       refY="0"
       orient="auto"
       inkscape:stockid="Dot"
       markerWidth="5.6666665"
       markerHeight="5.6666665"
       viewBox="0 0 5.6666667 5.6666667"
       inkscape:isstock="true"
       inkscape:collect="always"
       preserveAspectRatio="xMidYMid">
      <path
         transform="scale(0.5)"
         style="fill:context-stroke;fill-rule:evenodd;stroke:context-stroke;stroke-width:1pt"
         d="M 5,0 C 5,2.76 2.76,5 0,5 -2.76,5 -5,2.76 -5,0 c 0,-2.76 2.3,-5 5,-5 2.76,0 5,2.24 5,5 z"
         id="Dot1-7-8-7-0-3-7-1-7"
         sodipodi:nodetypes="sssss" />
    </marker>
    <marker
       style="overflow:visible"
       id="Dot-6-4-6-2-5-7-7-2-7"
       refX="0"
       refY="0"
       orient="auto"
       inkscape:stockid="Dot"
       markerWidth="5.6666665"
       markerHeight="5.6666665"
       viewBox="0 0 5.6666667 5.6666667"
       inkscape:isstock="true"
       inkscape:collect="always"
       preserveAspectRatio="xMidYMid">
      <path
         transform="scale(0.5)"
         style="fill:context-stroke;fill-rule:evenodd;stroke:context-stroke;stroke-width:1pt"
         d="M 5,0 C 5,2.76 2.76,5 0,5 -2.76,5 -5,2.76 -5,0 c 0,-2.76 2.3,-5 5,-5 2.76,0 5,2.24 5,5 z"
         id="Dot1-7-8-7-0-3-7-1-7-8"
         sodipodi:nodetypes="sssss" />
    </marker>
    <marker
       style="overflow:visible"
       id="Dot-6-4-7-6-0-9"
       refX="0"
       refY="0"
       orient="auto"
       inkscape:stockid="Dot"
       markerWidth="5.6666665"
       markerHeight="5.6666665"
       viewBox="0 0 5.6666667 5.6666667"
       inkscape:isstock="true"
       inkscape:collect="always"
       preserveAspectRatio="xMidYMid">
      <path
         transform="scale(0.5)"
         style="fill:context-stroke;fill-rule:evenodd;stroke:context-stroke;stroke-width:1pt"
         d="M 5,0 C 5,2.76 2.76,5 0,5 -2.76,5 -5,2.76 -5,0 c 0,-2.76 2.3,-5 5,-5 2.76,0 5,2.24 5,5 z"
         id="Dot1-7-8-9-2-6-3"
         sodipodi:nodetypes="sssss" />
    </marker>
    <marker
       style="overflow:visible"
       id="Dot-6-4-6-2-5-7-7-2-7-4"
       refX="0"
       refY="0"
       orient="auto"
       inkscape:stockid="Dot"
       markerWidth="5.6666665"
       markerHeight="5.6666665"
       viewBox="0 0 5.6666667 5.6666667"
       inkscape:isstock="true"
       inkscape:collect="always"
       preserveAspectRatio="xMidYMid">
      <path
         transform="scale(0.5)"
         style="fill:context-stroke;fill-rule:evenodd;stroke:context-stroke;stroke-width:1pt"
         d="M 5,0 C 5,2.76 2.76,5 0,5 -2.76,5 -5,2.76 -5,0 c 0,-2.76 2.3,-5 5,-5 2.76,0 5,2.24 5,5 z"
         id="Dot1-7-8-7-0-3-7-1-7-8-2"
         sodipodi:nodetypes="sssss" />
    </marker>
    <marker
       style="overflow:visible"
       id="Dot-6-4-6-2-5-7-7-2-5"
       refX="0"
       refY="0"
       orient="auto"
       inkscape:stockid="Dot"
       markerWidth="5.6666665"
       markerHeight="5.6666665"
       viewBox="0 0 5.6666667 5.6666667"
       inkscape:isstock="true"
       inkscape:collect="always"
       preserveAspectRatio="xMidYMid">
      <path
         transform="scale(0.5)"
         style="fill:context-stroke;fill-rule:evenodd;stroke:context-stroke;stroke-width:1pt"
         d="M 5,0 C 5,2.76 2.76,5 0,5 -2.76,5 -5,2.76 -5,0 c 0,-2.76 2.3,-5 5,-5 2.76,0 5,2.24 5,5 z"
         id="Dot1-7-8-7-0-3-7-1-7-1"
         sodipodi:nodetypes="sssss" />
    </marker>
    <marker
       style="overflow:visible"
       id="Dot-6-4-6-2-5-7-7-4"
       refX="0"
       refY="0"
       orient="auto"
       inkscape:stockid="Dot"
       markerWidth="5.6666665"
       markerHeight="5.6666665"
       viewBox="0 0 5.6666667 5.6666667"
       inkscape:isstock="true"
       inkscape:collect="always"
       preserveAspectRatio="xMidYMid">
      <path
         transform="scale(0.5)"
         style="fill:context-stroke;fill-rule:evenodd;stroke:context-stroke;stroke-width:1pt"
         d="M 5,0 C 5,2.76 2.76,5 0,5 -2.76,5 -5,2.76 -5,0 c 0,-2.76 2.3,-5 5,-5 2.76,0 5,2.24 5,5 z"
         id="Dot1-7-8-7-0-3-7-1-4"
         sodipodi:nodetypes="sssss" />
    </marker>
    <marker
       style="overflow:visible"
       id="Dot-6-4-6-2-5-7-9"
       refX="0"
       refY="0"
       orient="auto"
       inkscape:stockid="Dot"
       markerWidth="5.6666665"
       markerHeight="5.6666665"
       viewBox="0 0 5.6666667 5.6666667"
       inkscape:isstock="true"
       inkscape:collect="always"
       preserveAspectRatio="xMidYMid">
      <path
         transform="scale(0.5)"
         style="fill:context-stroke;fill-rule:evenodd;stroke:context-stroke;stroke-width:1pt"
         d="M 5,0 C 5,2.76 2.76,5 0,5 -2.76,5 -5,2.76 -5,0 c 0,-2.76 2.3,-5 5,-5 2.76,0 5,2.24 5,5 z"
         id="Dot1-7-8-7-0-3-7-4"
         sodipodi:nodetypes="sssss" />
    </marker>
    <marker
       style="overflow:visible"
       id="Dot-6-4-7-6-0-93"
       refX="0"
       refY="0"
       orient="auto"
       inkscape:stockid="Dot"
       markerWidth="5.6666665"
       markerHeight="5.6666665"
       viewBox="0 0 5.6666667 5.6666667"
       inkscape:isstock="true"
       inkscape:collect="always"
       preserveAspectRatio="xMidYMid">
      <path
         transform="scale(0.5)"
         style="fill:context-stroke;fill-rule:evenodd;stroke:context-stroke;stroke-width:1pt"
         d="M 5,0 C 5,2.76 2.76,5 0,5 -2.76,5 -5,2.76 -5,0 c 0,-2.76 2.3,-5 5,-5 2.76,0 5,2.24 5,5 z"
         id="Dot1-7-8-9-2-6-8"
         sodipodi:nodetypes="sssss" />
    </marker>
    <marker
       style="overflow:visible"
       id="Dot-6-4-6-2-5-7-7-2-7-8"
       refX="0"
       refY="0"
       orient="auto"
       inkscape:stockid="Dot"
       markerWidth="5.6666665"
       markerHeight="5.6666665"
       viewBox="0 0 5.6666667 5.6666667"
       inkscape:isstock="true"
       inkscape:collect="always"
       preserveAspectRatio="xMidYMid">
      <path
         transform="scale(0.5)"
         style="fill:context-stroke;fill-rule:evenodd;stroke:context-stroke;stroke-width:1pt"
         d="M 5,0 C 5,2.76 2.76,5 0,5 -2.76,5 -5,2.76 -5,0 c 0,-2.76 2.3,-5 5,-5 2.76,0 5,2.24 5,5 z"
         id="Dot1-7-8-7-0-3-7-1-7-8-1"
         sodipodi:nodetypes="sssss" />
    </marker>
    <marker
       style="overflow:visible"
       id="Dot-6-4-6-2-5-7-7-2-2"
       refX="0"
       refY="0"
       orient="auto"
       inkscape:stockid="Dot"
       markerWidth="5.6666665"
       markerHeight="5.6666665"
       viewBox="0 0 5.6666667 5.6666667"
       inkscape:isstock="true"
       inkscape:collect="always"
       preserveAspectRatio="xMidYMid">
      <path
         transform="scale(0.5)"
         style="fill:context-stroke;fill-rule:evenodd;stroke:context-stroke;stroke-width:1pt"
         d="M 5,0 C 5,2.76 2.76,5 0,5 -2.76,5 -5,2.76 -5,0 c 0,-2.76 2.3,-5 5,-5 2.76,0 5,2.24 5,5 z"
         id="Dot1-7-8-7-0-3-7-1-7-6"
         sodipodi:nodetypes="sssss" />
    </marker>
    <marker
       style="overflow:visible"
       id="Dot-6-4-6-2-5-7-7-1"
       refX="0"
       refY="0"
       orient="auto"
       inkscape:stockid="Dot"
       markerWidth="5.6666665"
       markerHeight="5.6666665"
       viewBox="0 0 5.6666667 5.6666667"
       inkscape:isstock="true"
       inkscape:collect="always"
       preserveAspectRatio="xMidYMid">
      <path
         transform="scale(0.5)"
         style="fill:context-stroke;fill-rule:evenodd;stroke:context-stroke;stroke-width:1pt"
         d="M 5,0 C 5,2.76 2.76,5 0,5 -2.76,5 -5,2.76 -5,0 c 0,-2.76 2.3,-5 5,-5 2.76,0 5,2.24 5,5 z"
         id="Dot1-7-8-7-0-3-7-1-70"
         sodipodi:nodetypes="sssss" />
    </marker>
    <marker
       style="overflow:visible"
       id="Dot-6-4-6-2-5-7-2"
       refX="0"
       refY="0"
       orient="auto"
       inkscape:stockid="Dot"
       markerWidth="5.6666665"
       markerHeight="5.6666665"
       viewBox="0 0 5.6666667 5.6666667"
       inkscape:isstock="true"
       inkscape:collect="always"
       preserveAspectRatio="xMidYMid">
      <path
         transform="scale(0.5)"
         style="fill:context-stroke;fill-rule:evenodd;stroke:context-stroke;stroke-width:1pt"
         d="M 5,0 C 5,2.76 2.76,5 0,5 -2.76,5 -5,2.76 -5,0 c 0,-2.76 2.3,-5 5,-5 2.76,0 5,2.24 5,5 z"
         id="Dot1-7-8-7-0-3-7-9"
         sodipodi:nodetypes="sssss" />
    </marker>
    <marker
       style="overflow:visible"
       id="Dot-6-4-7-6-0-4"
       refX="0"
       refY="0"
       orient="auto"
       inkscape:stockid="Dot"
       markerWidth="5.6666665"
       markerHeight="5.6666665"
       viewBox="0 0 5.6666667 5.6666667"
       inkscape:isstock="true"
       inkscape:collect="always"
       preserveAspectRatio="xMidYMid">
      <path
         transform="scale(0.5)"
         style="fill:context-stroke;fill-rule:evenodd;stroke:context-stroke;stroke-width:1pt"
         d="M 5,0 C 5,2.76 2.76,5 0,5 -2.76,5 -5,2.76 -5,0 c 0,-2.76 2.3,-5 5,-5 2.76,0 5,2.24 5,5 z"
         id="Dot1-7-8-9-2-6-1"
         sodipodi:nodetypes="sssss" />
    </marker>
    <marker
       style="overflow:visible"
       id="Dot-6-4-6-2-5-7-7-2-7-0"
       refX="0"
       refY="0"
       orient="auto"
       inkscape:stockid="Dot"
       markerWidth="5.6666665"
       markerHeight="5.6666665"
       viewBox="0 0 5.6666667 5.6666667"
       inkscape:isstock="true"
       inkscape:collect="always"
       preserveAspectRatio="xMidYMid">
      <path
         transform="scale(0.5)"
         style="fill:context-stroke;fill-rule:evenodd;stroke:context-stroke;stroke-width:1pt"
         d="M 5,0 C 5,2.76 2.76,5 0,5 -2.76,5 -5,2.76 -5,0 c 0,-2.76 2.3,-5 5,-5 2.76,0 5,2.24 5,5 z"
         id="Dot1-7-8-7-0-3-7-1-7-8-7"
         sodipodi:nodetypes="sssss" />
    </marker>
    <marker
       style="overflow:visible"
       id="Dot-6-4-6-2-5-7-7-2-3"
       refX="0"
       refY="0"
       orient="auto"
       inkscape:stockid="Dot"
       markerWidth="5.6666665"
       markerHeight="5.6666665"
       viewBox="0 0 5.6666667 5.6666667"
       inkscape:isstock="true"
       inkscape:collect="always"
       preserveAspectRatio="xMidYMid">
      <path
         transform="scale(0.5)"
         style="fill:context-stroke;fill-rule:evenodd;stroke:context-stroke;stroke-width:1pt"
         d="M 5,0 C 5,2.76 2.76,5 0,5 -2.76,5 -5,2.76 -5,0 c 0,-2.76 2.3,-5 5,-5 2.76,0 5,2.24 5,5 z"
         id="Dot1-7-8-7-0-3-7-1-7-7"
         sodipodi:nodetypes="sssss" />
    </marker>
    <marker
       style="overflow:visible"
       id="Dot-6-4-6-2-5-7-7-7"
       refX="0"
       refY="0"
       orient="auto"
       inkscape:stockid="Dot"
       markerWidth="5.6666665"
       markerHeight="5.6666665"
       viewBox="0 0 5.6666667 5.6666667"
       inkscape:isstock="true"
       inkscape:collect="always"
       preserveAspectRatio="xMidYMid">
      <path
         transform="scale(0.5)"
         style="fill:context-stroke;fill-rule:evenodd;stroke:context-stroke;stroke-width:1pt"
         d="M 5,0 C 5,2.76 2.76,5 0,5 -2.76,5 -5,2.76 -5,0 c 0,-2.76 2.3,-5 5,-5 2.76,0 5,2.24 5,5 z"
         id="Dot1-7-8-7-0-3-7-1-71"
         sodipodi:nodetypes="sssss" />
    </marker>
    <marker
       style="overflow:visible"
       id="Dot-6-4-6-2-5-7-1"
       refX="0"
       refY="0"
       orient="auto"
       inkscape:stockid="Dot"
       markerWidth="5.6666665"
       markerHeight="5.6666665"
       viewBox="0 0 5.6666667 5.6666667"
       inkscape:isstock="true"
       inkscape:collect="always"
       preserveAspectRatio="xMidYMid">
      <path
         transform="scale(0.5)"
         style="fill:context-stroke;fill-rule:evenodd;stroke:context-stroke;stroke-width:1pt"
         d="M 5,0 C 5,2.76 2.76,5 0,5 -2.76,5 -5,2.76 -5,0 c 0,-2.76 2.3,-5 5,-5 2.76,0 5,2.24 5,5 z"
         id="Dot1-7-8-7-0-3-7-0"
         sodipodi:nodetypes="sssss" />
    </marker>
  </defs>
  <g
     inkscape:label="Calque 1"
     inkscape:groupmode="layer"
     id="layer1">
    <ellipse
       style="fill:#999999;stroke:#000000;stroke-width:0.2;stroke-dasharray:none;stroke-opacity:1;paint-order:markers stroke fill"
       id="path27054-3-6-46-9-6"
       cx="178.06549"
       cy="39.381248"
       rx="6.53125"
       ry="9.28125" />
    <ellipse
       style="fill:#999999;stroke:#000000;stroke-width:0.2;stroke-dasharray:none;stroke-opacity:1;paint-order:markers stroke fill"
       id="path27054-3-6-46-9-6-7"
       cx="178.06551"
       cy="69.381248"
       rx="6.53125"
       ry="9.28125" />
    <ellipse
       style="fill:#999999;stroke:#000000;stroke-width:0.2;stroke-dasharray:none;stroke-opacity:1;paint-order:markers stroke fill"
       id="path27054-3-6-46-9-6-6"
       cx="178.06548"
       cy="99.381248"
       rx="6.53125"
       ry="9.28125" />
    <ellipse
       style="fill:#999999;stroke:#000000;stroke-width:0.2;stroke-dasharray:none;stroke-opacity:1;paint-order:markers stroke fill"
       id="path27054-3-6-46-9-6-9"
       cx="178.06549"
       cy="129.38126"
       rx="6.53125"
       ry="9.28125" />
    <g
       id="b10-s5">
      <g
         id="b10-s54"
         style="fill:#aa4400;stroke:#000000;stroke-opacity:0"
         transform="translate(0.01500092,0.89531479)">
        <ellipse
           style="fill:#aa4400;stroke:#000000;stroke-width:0.03;stroke-dasharray:none;stroke-opacity:0;marker-mid:url(#Dot-6-4-7-6-0);paint-order:markers stroke fill"
           id="path27054-3-6-4-8-3"
           cx="177.44127"
           cy="38.601551"
           rx="6.53125"
           ry="9.28125" />
        <path
           id="path95906"
           style="fill:#aa4400;stroke:#000000;stroke-width:0.0332561;stroke-dasharray:none;stroke-opacity:0;paint-order:markers stroke fill"
           d="m 177.461,29.31449 -16.44499,3.33313 1.26452,18.309993 15.18564,-3.076298 z" />
      </g>
      <g
         id="b10-s54-3"
         style="fill:#aa4400;stroke:#000000;stroke-opacity:0"
         transform="translate(0.01500257,30.895316)">
        <ellipse
           style="fill:#aa4400;stroke:#000000;stroke-width:0.03;stroke-dasharray:none;stroke-opacity:0;marker-mid:url(#Dot-6-4-7-6-0-9);paint-order:markers stroke fill"
           id="path27054-3-6-4-8-3-4"
           cx="177.44127"
           cy="38.601551"
           rx="6.53125"
           ry="9.28125" />
        <path
           id="path95906-5"
           style="fill:#aa4400;stroke:#000000;stroke-width:0.0332561;stroke-dasharray:none;stroke-opacity:0;paint-order:markers stroke fill"
           d="m 177.461,29.31449 -16.44499,3.33313 1.26452,18.309993 15.18564,-3.076298 z" />
      </g>
      <g
         id="b10-s54-4"
         style="fill:#aa4400;stroke:#000000;stroke-opacity:0"
         transform="translate(0.01499988,60.895314)">
        <ellipse
           style="fill:#aa4400;stroke:#000000;stroke-width:0.03;stroke-dasharray:none;stroke-opacity:0;marker-mid:url(#Dot-6-4-7-6-0-93);paint-order:markers stroke fill"
           id="path27054-3-6-4-8-3-42"
           cx="177.44127"
           cy="38.601551"
           rx="6.53125"
           ry="9.28125" />
        <path
           id="path95906-6"
           style="fill:#aa4400;stroke:#000000;stroke-width:0.0332561;stroke-dasharray:none;stroke-opacity:0;paint-order:markers stroke fill"
           d="m 177.461,29.31449 -16.44499,3.33313 1.26452,18.309993 15.18564,-3.076298 z" />
      </g>
      <g
         id="b10-s54-5"
         style="fill:#aa4400;stroke:#000000;stroke-opacity:0"
         transform="translate(0.01500092,90.895313)">
        <ellipse
           style="fill:#aa4400;stroke:#000000;stroke-width:0.03;stroke-dasharray:none;stroke-opacity:0;marker-mid:url(#Dot-6-4-7-6-0-4);paint-order:markers stroke fill"
           id="path27054-3-6-4-8-3-0"
           cx="177.44127"
           cy="38.601551"
           rx="6.53125"
           ry="9.28125" />
        <path
           id="path95906-3"
           style="fill:#aa4400;stroke:#000000;stroke-width:0.0332561;stroke-dasharray:none;stroke-opacity:0;paint-order:markers stroke fill"
           d="m 177.461,29.31449 -16.44499,3.33313 1.26452,18.309993 15.18564,-3.076298 z" />
      </g>
    </g>
    <g
       id="b10-s4">
      <g
         id="b10-s44"
         style="fill:#008080;stroke:#000000;stroke-opacity:0"
         transform="translate(0.01500092,0.89531479)">
        <path
           id="path95909"
           style="fill:#008080;stroke:#000000;stroke-width:0.0332561;stroke-dasharray:none;stroke-opacity:0;paint-order:markers stroke fill"
           d="m 161.01601,32.64762 -55.78161,11.305253 2.06861,18.141528 54.97752,-11.136788 z" />
        <ellipse
           style="fill:#008080;stroke:#000000;stroke-width:0.0298936;stroke-dasharray:none;stroke-opacity:0;marker-mid:url(#Dot-6-4-6-2-5-7-7-2-7);paint-order:markers stroke fill"
           id="path27054-3-6-1-9-8-9-5-4-8"
           cx="161.61612"
           cy="41.746708"
           rx="6.5314274"
           ry="9.2153015" />
      </g>
      <g
         id="b10-s44-5"
         style="fill:#008080;stroke:#000000;stroke-opacity:0"
         transform="translate(0.01500257,30.895316)">
        <path
           id="path95909-2"
           style="fill:#008080;stroke:#000000;stroke-width:0.0332561;stroke-dasharray:none;stroke-opacity:0;paint-order:markers stroke fill"
           d="m 161.01601,32.64762 -55.78161,11.305253 2.06861,18.141528 54.97752,-11.136788 z" />
        <ellipse
           style="fill:#008080;stroke:#000000;stroke-width:0.0298936;stroke-dasharray:none;stroke-opacity:0;marker-mid:url(#Dot-6-4-6-2-5-7-7-2-7-4);paint-order:markers stroke fill"
           id="path27054-3-6-1-9-8-9-5-4-8-8"
           cx="161.61612"
           cy="41.746708"
           rx="6.5314274"
           ry="9.2153015" />
      </g>
      <g
         id="b10-s44-9"
         style="fill:#008080;stroke:#000000;stroke-opacity:0"
         transform="translate(0.01499988,60.895314)">
        <path
           id="path95909-0"
           style="fill:#008080;stroke:#000000;stroke-width:0.0332561;stroke-dasharray:none;stroke-opacity:0;paint-order:markers stroke fill"
           d="m 161.01601,32.64762 -55.78161,11.305253 2.06861,18.141528 54.97752,-11.136788 z" />
        <ellipse
           style="fill:#008080;stroke:#000000;stroke-width:0.0298936;stroke-dasharray:none;stroke-opacity:0;marker-mid:url(#Dot-6-4-6-2-5-7-7-2-7-8);paint-order:markers stroke fill"
           id="path27054-3-6-1-9-8-9-5-4-8-2"
           cx="161.61612"
           cy="41.746708"
           rx="6.5314274"
           ry="9.2153015" />
      </g>
      <g
         id="b10-s44-8"
         style="fill:#008080;stroke:#000000;stroke-opacity:0"
         transform="translate(0.01500092,90.895313)">
        <path
           id="path95909-6"
           style="fill:#008080;stroke:#000000;stroke-width:0.0332561;stroke-dasharray:none;stroke-opacity:0;paint-order:markers stroke fill"
           d="m 161.01601,32.64762 -55.78161,11.305253 2.06861,18.141528 54.97752,-11.136788 z" />
        <ellipse
           style="fill:#008080;stroke:#000000;stroke-width:0.0298936;stroke-dasharray:none;stroke-opacity:0;marker-mid:url(#Dot-6-4-6-2-5-7-7-2-7-0);paint-order:markers stroke fill"
           id="path27054-3-6-1-9-8-9-5-4-8-9"
           cx="161.61612"
           cy="41.746708"
           rx="6.5314274"
           ry="9.2153015" />
      </g>
    </g>
    <g
       id="b10-s3"
       style="fill:#d4aa00">
      <g
         id="b10-s34"
         style="fill:#d4aa00;stroke:#000000;stroke-opacity:0"
         transform="translate(0.01500092,0.89531479)">
        <path
           id="path95912"
           style="fill:#d4aa00;stroke:#000000;stroke-width:0.0332561;stroke-dasharray:none;stroke-opacity:0;paint-order:markers stroke fill"
           d="m 105.2344,43.952873 -9.440247,1.913061 1.477946,18.260384 10.030911,-2.031917 z" />
        <ellipse
           style="fill:#d4aa00;stroke:#000000;stroke-width:0.0298936;stroke-dasharray:none;stroke-opacity:0;marker-mid:url(#Dot-6-4-6-2-5-7-7-2);paint-order:markers stroke fill"
           id="path27054-3-6-1-9-8-9-5-4"
           cx="106.5349"
           cy="52.954967"
           rx="6.5314274"
           ry="9.2153015" />
      </g>
      <g
         id="b10-s34-7"
         style="fill:#d4aa00;stroke:#000000;stroke-opacity:0"
         transform="translate(0.01500257,30.895316)">
        <path
           id="path95912-9"
           style="fill:#d4aa00;stroke:#000000;stroke-width:0.0332561;stroke-dasharray:none;stroke-opacity:0;paint-order:markers stroke fill"
           d="m 105.2344,43.952873 -9.440247,1.913061 1.477946,18.260384 10.030911,-2.031917 z" />
        <ellipse
           style="fill:#d4aa00;stroke:#000000;stroke-width:0.0298936;stroke-dasharray:none;stroke-opacity:0;marker-mid:url(#Dot-6-4-6-2-5-7-7-2-5);paint-order:markers stroke fill"
           id="path27054-3-6-1-9-8-9-5-4-2"
           cx="106.5349"
           cy="52.954967"
           rx="6.5314274"
           ry="9.2153015" />
      </g>
      <g
         id="b10-s34-1"
         style="fill:#d4aa00;stroke:#000000;stroke-opacity:0"
         transform="translate(0.01499988,60.895314)">
        <path
           id="path95912-0"
           style="fill:#d4aa00;stroke:#000000;stroke-width:0.0332561;stroke-dasharray:none;stroke-opacity:0;paint-order:markers stroke fill"
           d="m 105.2344,43.952873 -9.440247,1.913061 1.477946,18.260384 10.030911,-2.031917 z" />
        <ellipse
           style="fill:#d4aa00;stroke:#000000;stroke-width:0.0298936;stroke-dasharray:none;stroke-opacity:0;marker-mid:url(#Dot-6-4-6-2-5-7-7-2-2);paint-order:markers stroke fill"
           id="path27054-3-6-1-9-8-9-5-4-1"
           cx="106.5349"
           cy="52.954967"
           rx="6.5314274"
           ry="9.2153015" />
      </g>
      <g
         id="b10-s34-5"
         style="fill:#d4aa00;stroke:#000000;stroke-opacity:0"
         transform="translate(0.01500092,90.895313)">
        <path
           id="path95912-1"
           style="fill:#d4aa00;stroke:#000000;stroke-width:0.0332561;stroke-dasharray:none;stroke-opacity:0;paint-order:markers stroke fill"
           d="m 105.2344,43.952873 -9.440247,1.913061 1.477946,18.260384 10.030911,-2.031917 z" />
        <ellipse
           style="fill:#d4aa00;stroke:#000000;stroke-width:0.0298936;stroke-dasharray:none;stroke-opacity:0;marker-mid:url(#Dot-6-4-6-2-5-7-7-2-3);paint-order:markers stroke fill"
           id="path27054-3-6-1-9-8-9-5-4-5"
           cx="106.5349"
           cy="52.954967"
           rx="6.5314274"
           ry="9.2153015" />
      </g>
    </g>
    <g
       id="b10-s2">
      <g
         id="b10-s24"
         style="fill:#008080;stroke:#000000;stroke-opacity:0"
         transform="translate(0.01500092,0.89531479)">
        <path
           id="path95903"
           style="fill:#008080;stroke:#000000;stroke-width:0.0332561;stroke-dasharray:none;stroke-opacity:0;paint-order:markers stroke fill"
           d="M 97.272099,64.126318 95.794153,45.865934 40.986129,56.973783 41.811918,75.360258 Z" />
        <ellipse
           style="fill:#008080;stroke:#000000;stroke-width:0.0298936;stroke-dasharray:none;stroke-opacity:0;marker-mid:url(#Dot-6-4-6-2-5-7-7);paint-order:markers stroke fill"
           id="path27054-3-6-1-9-8-9-5"
           cx="96.616127"
           cy="55.00042"
           rx="6.5314274"
           ry="9.2153015" />
      </g>
      <g
         id="b10-s24-4"
         style="fill:#008080;stroke:#000000;stroke-opacity:0"
         transform="translate(0.01500257,30.895316)">
        <path
           id="path95903-6"
           style="fill:#008080;stroke:#000000;stroke-width:0.0332561;stroke-dasharray:none;stroke-opacity:0;paint-order:markers stroke fill"
           d="M 97.272099,64.126318 95.794153,45.865934 40.986129,56.973783 41.811918,75.360258 Z" />
        <ellipse
           style="fill:#008080;stroke:#000000;stroke-width:0.0298936;stroke-dasharray:none;stroke-opacity:0;marker-mid:url(#Dot-6-4-6-2-5-7-7-4);paint-order:markers stroke fill"
           id="path27054-3-6-1-9-8-9-5-8"
           cx="96.616127"
           cy="55.00042"
           rx="6.5314274"
           ry="9.2153015" />
      </g>
      <g
         id="b10-s24-8"
         style="fill:#008080;stroke:#000000;stroke-opacity:0"
         transform="translate(0.01499988,60.895314)">
        <path
           id="path95903-68"
           style="fill:#008080;stroke:#000000;stroke-width:0.0332561;stroke-dasharray:none;stroke-opacity:0;paint-order:markers stroke fill"
           d="M 97.272099,64.126318 95.794153,45.865934 40.986129,56.973783 41.811918,75.360258 Z" />
        <ellipse
           style="fill:#008080;stroke:#000000;stroke-width:0.0298936;stroke-dasharray:none;stroke-opacity:0;marker-mid:url(#Dot-6-4-6-2-5-7-7-1);paint-order:markers stroke fill"
           id="path27054-3-6-1-9-8-9-5-5"
           cx="96.616127"
           cy="55.00042"
           rx="6.5314274"
           ry="9.2153015" />
      </g>
      <g
         id="b10-s24-5"
         style="fill:#008080;stroke:#000000;stroke-opacity:0"
         transform="translate(0.01500092,90.895313)">
        <path
           id="path95903-1"
           style="fill:#008080;stroke:#000000;stroke-width:0.0332561;stroke-dasharray:none;stroke-opacity:0;paint-order:markers stroke fill"
           d="M 97.272099,64.126318 95.794153,45.865934 40.986129,56.973783 41.811918,75.360258 Z" />
        <ellipse
           style="fill:#008080;stroke:#000000;stroke-width:0.0298936;stroke-dasharray:none;stroke-opacity:0;marker-mid:url(#Dot-6-4-6-2-5-7-7-7);paint-order:markers stroke fill"
           id="path27054-3-6-1-9-8-9-5-86"
           cx="96.616127"
           cy="55.00042"
           rx="6.5314274"
           ry="9.2153015" />
      </g>
    </g>
    <g
       id="b10-s1">
      <g
         id="b10-s14"
         style="fill:#aa4400;stroke:#000000;stroke-opacity:0"
         transform="translate(0.01500092,0.89531479)">
        <path
           id="Base-61-9"
           style="fill:#aa4400;stroke:#000000;stroke-width:0.0332561;stroke-dasharray:none;stroke-opacity:0;paint-order:markers stroke fill"
           d="m 41.811918,75.360258 -0.825789,-18.386475 -13.487032,2.733167 0.0098,18.550806 z" />
        <ellipse
           style="fill:#aa4400;stroke:#000000;stroke-width:0.0298936;stroke-dasharray:none;stroke-opacity:0;marker-mid:url(#Dot-6-4-6-2-5-7);paint-order:markers stroke fill"
           id="path27054-3-6-1-9-8-9"
           cx="41.616123"
           cy="66.16806"
           rx="6.5314274"
           ry="9.2153015" />
      </g>
      <g
         id="b10-s14-3"
         style="fill:#aa4400;stroke:#000000;stroke-opacity:0"
         transform="translate(0.01500257,30.895316)">
        <path
           id="Base-61-9-7"
           style="fill:#aa4400;stroke:#000000;stroke-width:0.0332561;stroke-dasharray:none;stroke-opacity:0;paint-order:markers stroke fill"
           d="m 41.811918,75.360258 -0.825789,-18.386475 -13.487032,2.733167 0.0098,18.550806 z" />
        <ellipse
           style="fill:#aa4400;stroke:#000000;stroke-width:0.0298936;stroke-dasharray:none;stroke-opacity:0;marker-mid:url(#Dot-6-4-6-2-5-7-9);paint-order:markers stroke fill"
           id="path27054-3-6-1-9-8-9-1"
           cx="41.616123"
           cy="66.16806"
           rx="6.5314274"
           ry="9.2153015" />
      </g>
      <g
         id="b10-s14-0"
         style="fill:#aa4400;stroke:#000000;stroke-opacity:0"
         transform="translate(0.01499988,60.895314)">
        <path
           id="Base-61-9-2"
           style="fill:#aa4400;stroke:#000000;stroke-width:0.0332561;stroke-dasharray:none;stroke-opacity:0;paint-order:markers stroke fill"
           d="m 41.811918,75.360258 -0.825789,-18.386475 -13.487032,2.733167 0.0098,18.550806 z" />
        <ellipse
           style="fill:#aa4400;stroke:#000000;stroke-width:0.0298936;stroke-dasharray:none;stroke-opacity:0;marker-mid:url(#Dot-6-4-6-2-5-7-2);paint-order:markers stroke fill"
           id="path27054-3-6-1-9-8-9-6"
           cx="41.616123"
           cy="66.16806"
           rx="6.5314274"
           ry="9.2153015" />
      </g>
      <g
         id="b10-s14-8"
         style="fill:#aa4400;stroke:#000000;stroke-opacity:0"
         transform="translate(0.01500092,90.895313)">
        <path
           id="Base-61-9-26"
           style="fill:#aa4400;stroke:#000000;stroke-width:0.0332561;stroke-dasharray:none;stroke-opacity:0;paint-order:markers stroke fill"
           d="m 41.811918,75.360258 -0.825789,-18.386475 -13.487032,2.733167 0.0098,18.550806 z" />
        <ellipse
           style="fill:#aa4400;stroke:#000000;stroke-width:0.0298936;stroke-dasharray:none;stroke-opacity:0;marker-mid:url(#Dot-6-4-6-2-5-7-1);paint-order:markers stroke fill"
           id="path27054-3-6-1-9-8-9-50"
           cx="41.616123"
           cy="66.16806"
           rx="6.5314274"
           ry="9.2153015" />
      </g>
    </g>
    <ellipse
       style="fill:#999999;stroke:#000000;stroke-width:0.2;stroke-dasharray:none;stroke-opacity:1;paint-order:markers stroke fill"
       id="path27054-3-6-18-4-7"
       cx="27.511583"
       cy="159.87366"
       rx="6.53125"
       ry="9.28125" />
    <ellipse
       style="fill:#999999;stroke:#000000;stroke-width:0.2;stroke-dasharray:none;stroke-opacity:1;paint-order:markers stroke fill"
       id="path27054-3-6-1-9-8-97"
       cx="26.63125"
       cy="160.20714"
       rx="6.53125"
       ry="9.28125" />
    <ellipse
       style="fill:#999999;stroke:#000000;stroke-width:0.2;stroke-dasharray:none;stroke-opacity:1;paint-order:markers stroke fill"
       id="path27054-3-6-18-4"
       cx="27.511583"
       cy="69.873642"
       rx="6.53125"
       ry="9.28125" />
    <ellipse
       style="fill:#999999;stroke:#000000;stroke-width:0.2;stroke-dasharray:none;stroke-opacity:1;paint-order:markers stroke fill"
       id="path27054-3-6-1-9-8"
       cx="26.63125"
       cy="70.207123"
       rx="6.53125"
       ry="9.28125" />
    <ellipse
       style="fill:#999999;stroke:#000000;stroke-width:0.2;stroke-dasharray:none;stroke-opacity:1;paint-order:markers stroke fill"
       id="path27054-3-6-18-4-6"
       cx="27.511583"
       cy="99.87365"
       rx="6.53125"
       ry="9.28125" />
    <ellipse
       style="fill:#999999;stroke:#000000;stroke-width:0.2;stroke-dasharray:none;stroke-opacity:1;paint-order:markers stroke fill"
       id="path27054-3-6-1-9-8-6"
       cx="26.63125"
       cy="100.20713"
       rx="6.53125"
       ry="9.28125" />
    <ellipse
       style="fill:#999999;stroke:#000000;stroke-width:0.2;stroke-dasharray:none;stroke-opacity:1;paint-order:markers stroke fill"
       id="path27054-3-6-18-4-2"
       cx="27.511583"
       cy="129.87364"
       rx="6.53125"
       ry="9.28125" />
    <ellipse
       style="fill:#999999;stroke:#000000;stroke-width:0.2;stroke-dasharray:none;stroke-opacity:1;paint-order:markers stroke fill"
       id="path27054-3-6-1-9-8-65"
       cx="26.63125"
       cy="130.20712"
       rx="6.53125"
       ry="9.28125" />
  </g>
</svg>
