<?xml version="1.0" encoding="UTF-8" standalone="no"?>
<!-- Created with Inkscape (http://www.inkscape.org/) -->

<svg
   width="210mm"
   height="297mm"
   viewBox="0 0 210 297"
   version="1.1"
   id="svg71553"
   inkscape:version="1.2.2 (732a01da63, 2022-12-09)"
   sodipodi:docname="Bar_V8.svg"
   xmlns:inkscape="http://www.inkscape.org/namespaces/inkscape"
   xmlns:sodipodi="http://sodipodi.sourceforge.net/DTD/sodipodi-0.dtd"
   xmlns="http://www.w3.org/2000/svg"
   xmlns:svg="http://www.w3.org/2000/svg">
  <sodipodi:namedview
     id="namedview71555"
     pagecolor="#ffffff"
     bordercolor="#000000"
     borderopacity="0.25"
     inkscape:showpageshadow="2"
     inkscape:pageopacity="0.0"
     inkscape:pagecheckerboard="0"
     inkscape:deskcolor="#d1d1d1"
     inkscape:document-units="mm"
     showgrid="false"
     inkscape:zoom="1.5393939"
     inkscape:cx="406.00394"
     inkscape:cy="373.84843"
     inkscape:window-width="2400"
     inkscape:window-height="1271"
     inkscape:window-x="2391"
     inkscape:window-y="72"
     inkscape:window-maximized="1"
     inkscape:current-layer="layer1" />
  <defs
     id="defs71550">
    <marker
       style="overflow:visible"
       id="Dot-6-4-7-6-0"
       refX="0"
       refY="0"
       orient="auto"
       inkscape:stockid="Dot"
       markerWidth="5.6666665"
       markerHeight="5.6666665"
       viewBox="0 0 5.6666667 5.6666667"
       inkscape:isstock="true"
       inkscape:collect="always"
       preserveAspectRatio="xMidYMid">
      <path
         transform="scale(0.5)"
         style="fill:context-stroke;fill-rule:evenodd;stroke:context-stroke;stroke-width:1pt"
         d="M 5,0 C 5,2.76 2.76,5 0,5 -2.76,5 -5,2.76 -5,0 c 0,-2.76 2.3,-5 5,-5 2.76,0 5,2.24 5,5 z"
         id="Dot1-7-8-9-2-6"
         sodipodi:nodetypes="sssss" />
    </marker>
    <marker
       style="overflow:visible"
       id="Dot-6-4-6-2-5-2"
       refX="0"
       refY="0"
       orient="auto"
       inkscape:stockid="Dot"
       markerWidth="5.6666665"
       markerHeight="5.6666665"
       viewBox="0 0 5.6666667 5.6666667"
       inkscape:isstock="true"
       inkscape:collect="always"
       preserveAspectRatio="xMidYMid">
      <path
         transform="scale(0.5)"
         style="fill:context-stroke;fill-rule:evenodd;stroke:context-stroke;stroke-width:1pt"
         d="M 5,0 C 5,2.76 2.76,5 0,5 -2.76,5 -5,2.76 -5,0 c 0,-2.76 2.3,-5 5,-5 2.76,0 5,2.24 5,5 z"
         id="Dot1-7-8-7-0-3-0"
         sodipodi:nodetypes="sssss" />
    </marker>
    <marker
       style="overflow:visible"
       id="Dot-6-4-6-2-5-2-2"
       refX="0"
       refY="0"
       orient="auto"
       inkscape:stockid="Dot"
       markerWidth="5.6666665"
       markerHeight="5.6666665"
       viewBox="0 0 5.6666667 5.6666667"
       inkscape:isstock="true"
       inkscape:collect="always"
       preserveAspectRatio="xMidYMid">
      <path
         transform="scale(0.5)"
         style="fill:context-stroke;fill-rule:evenodd;stroke:context-stroke;stroke-width:1pt"
         d="M 5,0 C 5,2.76 2.76,5 0,5 -2.76,5 -5,2.76 -5,0 c 0,-2.76 2.3,-5 5,-5 2.76,0 5,2.24 5,5 z"
         id="Dot1-7-8-7-0-3-0-7"
         sodipodi:nodetypes="sssss" />
    </marker>
    <marker
       style="overflow:visible"
       id="Dot-6-4-6-2-5-2-2-2"
       refX="0"
       refY="0"
       orient="auto"
       inkscape:stockid="Dot"
       markerWidth="5.6666665"
       markerHeight="5.6666665"
       viewBox="0 0 5.6666667 5.6666667"
       inkscape:isstock="true"
       inkscape:collect="always"
       preserveAspectRatio="xMidYMid">
      <path
         transform="scale(0.5)"
         style="fill:context-stroke;fill-rule:evenodd;stroke:context-stroke;stroke-width:1pt"
         d="M 5,0 C 5,2.76 2.76,5 0,5 -2.76,5 -5,2.76 -5,0 c 0,-2.76 2.3,-5 5,-5 2.76,0 5,2.24 5,5 z"
         id="Dot1-7-8-7-0-3-0-7-6"
         sodipodi:nodetypes="sssss" />
    </marker>
    <marker
       style="overflow:visible"
       id="Dot-6-4-6-2-5-2-2-2-9"
       refX="0"
       refY="0"
       orient="auto"
       inkscape:stockid="Dot"
       markerWidth="5.6666665"
       markerHeight="5.6666665"
       viewBox="0 0 5.6666667 5.6666667"
       inkscape:isstock="true"
       inkscape:collect="always"
       preserveAspectRatio="xMidYMid">
      <path
         transform="scale(0.5)"
         style="fill:context-stroke;fill-rule:evenodd;stroke:context-stroke;stroke-width:1pt"
         d="M 5,0 C 5,2.76 2.76,5 0,5 -2.76,5 -5,2.76 -5,0 c 0,-2.76 2.3,-5 5,-5 2.76,0 5,2.24 5,5 z"
         id="Dot1-7-8-7-0-3-0-7-6-2"
         sodipodi:nodetypes="sssss" />
    </marker>
    <marker
       style="overflow:visible"
       id="Dot-6-4-7-6-0-6"
       refX="0"
       refY="0"
       orient="auto"
       inkscape:stockid="Dot"
       markerWidth="5.6666665"
       markerHeight="5.6666665"
       viewBox="0 0 5.6666667 5.6666667"
       inkscape:isstock="true"
       inkscape:collect="always"
       preserveAspectRatio="xMidYMid">
      <path
         transform="scale(0.5)"
         style="fill:context-stroke;fill-rule:evenodd;stroke:context-stroke;stroke-width:1pt"
         d="M 5,0 C 5,2.76 2.76,5 0,5 -2.76,5 -5,2.76 -5,0 c 0,-2.76 2.3,-5 5,-5 2.76,0 5,2.24 5,5 z"
         id="Dot1-7-8-9-2-6-8"
         sodipodi:nodetypes="sssss" />
    </marker>
    <marker
       style="overflow:visible"
       id="Dot-6-4-6-2-5-2-2-2-9-2"
       refX="0"
       refY="0"
       orient="auto"
       inkscape:stockid="Dot"
       markerWidth="5.6666665"
       markerHeight="5.6666665"
       viewBox="0 0 5.6666667 5.6666667"
       inkscape:isstock="true"
       inkscape:collect="always"
       preserveAspectRatio="xMidYMid">
      <path
         transform="scale(0.5)"
         style="fill:context-stroke;fill-rule:evenodd;stroke:context-stroke;stroke-width:1pt"
         d="M 5,0 C 5,2.76 2.76,5 0,5 -2.76,5 -5,2.76 -5,0 c 0,-2.76 2.3,-5 5,-5 2.76,0 5,2.24 5,5 z"
         id="Dot1-7-8-7-0-3-0-7-6-2-0"
         sodipodi:nodetypes="sssss" />
    </marker>
    <marker
       style="overflow:visible"
       id="Dot-6-4-6-2-5-2-2-2-90"
       refX="0"
       refY="0"
       orient="auto"
       inkscape:stockid="Dot"
       markerWidth="5.6666665"
       markerHeight="5.6666665"
       viewBox="0 0 5.6666667 5.6666667"
       inkscape:isstock="true"
       inkscape:collect="always"
       preserveAspectRatio="xMidYMid">
      <path
         transform="scale(0.5)"
         style="fill:context-stroke;fill-rule:evenodd;stroke:context-stroke;stroke-width:1pt"
         d="M 5,0 C 5,2.76 2.76,5 0,5 -2.76,5 -5,2.76 -5,0 c 0,-2.76 2.3,-5 5,-5 2.76,0 5,2.24 5,5 z"
         id="Dot1-7-8-7-0-3-0-7-6-8"
         sodipodi:nodetypes="sssss" />
    </marker>
    <marker
       style="overflow:visible"
       id="Dot-6-4-6-2-5-2-2-5"
       refX="0"
       refY="0"
       orient="auto"
       inkscape:stockid="Dot"
       markerWidth="5.6666665"
       markerHeight="5.6666665"
       viewBox="0 0 5.6666667 5.6666667"
       inkscape:isstock="true"
       inkscape:collect="always"
       preserveAspectRatio="xMidYMid">
      <path
         transform="scale(0.5)"
         style="fill:context-stroke;fill-rule:evenodd;stroke:context-stroke;stroke-width:1pt"
         d="M 5,0 C 5,2.76 2.76,5 0,5 -2.76,5 -5,2.76 -5,0 c 0,-2.76 2.3,-5 5,-5 2.76,0 5,2.24 5,5 z"
         id="Dot1-7-8-7-0-3-0-7-5"
         sodipodi:nodetypes="sssss" />
    </marker>
    <marker
       style="overflow:visible"
       id="Dot-6-4-6-2-5-2-3"
       refX="0"
       refY="0"
       orient="auto"
       inkscape:stockid="Dot"
       markerWidth="5.6666665"
       markerHeight="5.6666665"
       viewBox="0 0 5.6666667 5.6666667"
       inkscape:isstock="true"
       inkscape:collect="always"
       preserveAspectRatio="xMidYMid">
      <path
         transform="scale(0.5)"
         style="fill:context-stroke;fill-rule:evenodd;stroke:context-stroke;stroke-width:1pt"
         d="M 5,0 C 5,2.76 2.76,5 0,5 -2.76,5 -5,2.76 -5,0 c 0,-2.76 2.3,-5 5,-5 2.76,0 5,2.24 5,5 z"
         id="Dot1-7-8-7-0-3-0-9"
         sodipodi:nodetypes="sssss" />
    </marker>
    <marker
       style="overflow:visible"
       id="Dot-6-4-7-6-0-63"
       refX="0"
       refY="0"
       orient="auto"
       inkscape:stockid="Dot"
       markerWidth="5.6666665"
       markerHeight="5.6666665"
       viewBox="0 0 5.6666667 5.6666667"
       inkscape:isstock="true"
       inkscape:collect="always"
       preserveAspectRatio="xMidYMid">
      <path
         transform="scale(0.5)"
         style="fill:context-stroke;fill-rule:evenodd;stroke:context-stroke;stroke-width:1pt"
         d="M 5,0 C 5,2.76 2.76,5 0,5 -2.76,5 -5,2.76 -5,0 c 0,-2.76 2.3,-5 5,-5 2.76,0 5,2.24 5,5 z"
         id="Dot1-7-8-9-2-6-0"
         sodipodi:nodetypes="sssss" />
    </marker>
    <marker
       style="overflow:visible"
       id="Dot-6-4-6-2-5-2-2-2-9-1"
       refX="0"
       refY="0"
       orient="auto"
       inkscape:stockid="Dot"
       markerWidth="5.6666665"
       markerHeight="5.6666665"
       viewBox="0 0 5.6666667 5.6666667"
       inkscape:isstock="true"
       inkscape:collect="always"
       preserveAspectRatio="xMidYMid">
      <path
         transform="scale(0.5)"
         style="fill:context-stroke;fill-rule:evenodd;stroke:context-stroke;stroke-width:1pt"
         d="M 5,0 C 5,2.76 2.76,5 0,5 -2.76,5 -5,2.76 -5,0 c 0,-2.76 2.3,-5 5,-5 2.76,0 5,2.24 5,5 z"
         id="Dot1-7-8-7-0-3-0-7-6-2-3"
         sodipodi:nodetypes="sssss" />
    </marker>
    <marker
       style="overflow:visible"
       id="Dot-6-4-6-2-5-2-2-2-3"
       refX="0"
       refY="0"
       orient="auto"
       inkscape:stockid="Dot"
       markerWidth="5.6666665"
       markerHeight="5.6666665"
       viewBox="0 0 5.6666667 5.6666667"
       inkscape:isstock="true"
       inkscape:collect="always"
       preserveAspectRatio="xMidYMid">
      <path
         transform="scale(0.5)"
         style="fill:context-stroke;fill-rule:evenodd;stroke:context-stroke;stroke-width:1pt"
         d="M 5,0 C 5,2.76 2.76,5 0,5 -2.76,5 -5,2.76 -5,0 c 0,-2.76 2.3,-5 5,-5 2.76,0 5,2.24 5,5 z"
         id="Dot1-7-8-7-0-3-0-7-6-1"
         sodipodi:nodetypes="sssss" />
    </marker>
    <marker
       style="overflow:visible"
       id="Dot-6-4-6-2-5-2-2-1"
       refX="0"
       refY="0"
       orient="auto"
       inkscape:stockid="Dot"
       markerWidth="5.6666665"
       markerHeight="5.6666665"
       viewBox="0 0 5.6666667 5.6666667"
       inkscape:isstock="true"
       inkscape:collect="always"
       preserveAspectRatio="xMidYMid">
      <path
         transform="scale(0.5)"
         style="fill:context-stroke;fill-rule:evenodd;stroke:context-stroke;stroke-width:1pt"
         d="M 5,0 C 5,2.76 2.76,5 0,5 -2.76,5 -5,2.76 -5,0 c 0,-2.76 2.3,-5 5,-5 2.76,0 5,2.24 5,5 z"
         id="Dot1-7-8-7-0-3-0-7-68"
         sodipodi:nodetypes="sssss" />
    </marker>
    <marker
       style="overflow:visible"
       id="Dot-6-4-6-2-5-2-20"
       refX="0"
       refY="0"
       orient="auto"
       inkscape:stockid="Dot"
       markerWidth="5.6666665"
       markerHeight="5.6666665"
       viewBox="0 0 5.6666667 5.6666667"
       inkscape:isstock="true"
       inkscape:collect="always"
       preserveAspectRatio="xMidYMid">
      <path
         transform="scale(0.5)"
         style="fill:context-stroke;fill-rule:evenodd;stroke:context-stroke;stroke-width:1pt"
         d="M 5,0 C 5,2.76 2.76,5 0,5 -2.76,5 -5,2.76 -5,0 c 0,-2.76 2.3,-5 5,-5 2.76,0 5,2.24 5,5 z"
         id="Dot1-7-8-7-0-3-0-98"
         sodipodi:nodetypes="sssss" />
    </marker>
    <marker
       style="overflow:visible"
       id="Dot-6-4-7-6-0-8"
       refX="0"
       refY="0"
       orient="auto"
       inkscape:stockid="Dot"
       markerWidth="5.6666665"
       markerHeight="5.6666665"
       viewBox="0 0 5.6666667 5.6666667"
       inkscape:isstock="true"
       inkscape:collect="always"
       preserveAspectRatio="xMidYMid">
      <path
         transform="scale(0.5)"
         style="fill:context-stroke;fill-rule:evenodd;stroke:context-stroke;stroke-width:1pt"
         d="M 5,0 C 5,2.76 2.76,5 0,5 -2.76,5 -5,2.76 -5,0 c 0,-2.76 2.3,-5 5,-5 2.76,0 5,2.24 5,5 z"
         id="Dot1-7-8-9-2-6-2"
         sodipodi:nodetypes="sssss" />
    </marker>
    <marker
       style="overflow:visible"
       id="Dot-6-4-6-2-5-2-2-2-9-3"
       refX="0"
       refY="0"
       orient="auto"
       inkscape:stockid="Dot"
       markerWidth="5.6666665"
       markerHeight="5.6666665"
       viewBox="0 0 5.6666667 5.6666667"
       inkscape:isstock="true"
       inkscape:collect="always"
       preserveAspectRatio="xMidYMid">
      <path
         transform="scale(0.5)"
         style="fill:context-stroke;fill-rule:evenodd;stroke:context-stroke;stroke-width:1pt"
         d="M 5,0 C 5,2.76 2.76,5 0,5 -2.76,5 -5,2.76 -5,0 c 0,-2.76 2.3,-5 5,-5 2.76,0 5,2.24 5,5 z"
         id="Dot1-7-8-7-0-3-0-7-6-2-6"
         sodipodi:nodetypes="sssss" />
    </marker>
    <marker
       style="overflow:visible"
       id="Dot-6-4-6-2-5-2-2-2-8"
       refX="0"
       refY="0"
       orient="auto"
       inkscape:stockid="Dot"
       markerWidth="5.6666665"
       markerHeight="5.6666665"
       viewBox="0 0 5.6666667 5.6666667"
       inkscape:isstock="true"
       inkscape:collect="always"
       preserveAspectRatio="xMidYMid">
      <path
         transform="scale(0.5)"
         style="fill:context-stroke;fill-rule:evenodd;stroke:context-stroke;stroke-width:1pt"
         d="M 5,0 C 5,2.76 2.76,5 0,5 -2.76,5 -5,2.76 -5,0 c 0,-2.76 2.3,-5 5,-5 2.76,0 5,2.24 5,5 z"
         id="Dot1-7-8-7-0-3-0-7-6-7"
         sodipodi:nodetypes="sssss" />
    </marker>
    <marker
       style="overflow:visible"
       id="Dot-6-4-6-2-5-2-2-54"
       refX="0"
       refY="0"
       orient="auto"
       inkscape:stockid="Dot"
       markerWidth="5.6666665"
       markerHeight="5.6666665"
       viewBox="0 0 5.6666667 5.6666667"
       inkscape:isstock="true"
       inkscape:collect="always"
       preserveAspectRatio="xMidYMid">
      <path
         transform="scale(0.5)"
         style="fill:context-stroke;fill-rule:evenodd;stroke:context-stroke;stroke-width:1pt"
         d="M 5,0 C 5,2.76 2.76,5 0,5 -2.76,5 -5,2.76 -5,0 c 0,-2.76 2.3,-5 5,-5 2.76,0 5,2.24 5,5 z"
         id="Dot1-7-8-7-0-3-0-7-1"
         sodipodi:nodetypes="sssss" />
    </marker>
    <marker
       style="overflow:visible"
       id="Dot-6-4-6-2-5-2-4"
       refX="0"
       refY="0"
       orient="auto"
       inkscape:stockid="Dot"
       markerWidth="5.6666665"
       markerHeight="5.6666665"
       viewBox="0 0 5.6666667 5.6666667"
       inkscape:isstock="true"
       inkscape:collect="always"
       preserveAspectRatio="xMidYMid">
      <path
         transform="scale(0.5)"
         style="fill:context-stroke;fill-rule:evenodd;stroke:context-stroke;stroke-width:1pt"
         d="M 5,0 C 5,2.76 2.76,5 0,5 -2.76,5 -5,2.76 -5,0 c 0,-2.76 2.3,-5 5,-5 2.76,0 5,2.24 5,5 z"
         id="Dot1-7-8-7-0-3-0-3"
         sodipodi:nodetypes="sssss" />
    </marker>
  </defs>
  <g
     inkscape:label="Calque 1"
     inkscape:groupmode="layer"
     id="layer1">
    <ellipse
       style="fill:#999999;stroke:#000000;stroke-width:0.2;stroke-dasharray:none;stroke-opacity:1;paint-order:markers stroke fill"
       id="path27054-3-6-46-9-6"
       cx="178.06549"
       cy="39.381248"
       rx="6.53125"
       ry="9.28125" />
    <ellipse
       style="fill:#999999;stroke:#000000;stroke-width:0.2;stroke-dasharray:none;stroke-opacity:1;paint-order:markers stroke fill"
       id="path27054-3-6-46-9-6-0"
       cx="178.06549"
       cy="69.381248"
       rx="6.53125"
       ry="9.28125" />
    <ellipse
       style="fill:#999999;stroke:#000000;stroke-width:0.2;stroke-dasharray:none;stroke-opacity:1;paint-order:markers stroke fill"
       id="path27054-3-6-46-9-6-8"
       cx="178.06549"
       cy="99.381248"
       rx="6.53125"
       ry="9.28125" />
    <ellipse
       style="fill:#999999;stroke:#000000;stroke-width:0.2;stroke-dasharray:none;stroke-opacity:1;paint-order:markers stroke fill"
       id="path27054-3-6-46-9-6-88"
       cx="178.06549"
       cy="129.38126"
       rx="6.53125"
       ry="9.28125" />
    <g
       id="b8-s5">
      <g
         id="5"
         style="stroke:#000000;stroke-opacity:0"
         transform="translate(0.01500092,-3.9870666)">
        <ellipse
           style="fill:#aa4400;stroke:#000000;stroke-width:0.03;stroke-dasharray:none;stroke-opacity:0;marker-mid:url(#Dot-6-4-7-6-0);paint-order:markers stroke fill"
           id="path27054-3-6-4-8-3"
           cx="177.44127"
           cy="43.483932"
           rx="6.53125"
           ry="9.28125" />
        <path
           id="path73221"
           style="fill:#aa4400;stroke:#000000;stroke-width:0.0332561;stroke-dasharray:none;stroke-opacity:0;paint-order:markers stroke fill"
           d="m 177.461,34.196879 -30.81414,6.245097 -0.076,18.580261 30.89527,-6.258533 z" />
      </g>
      <g
         id="5-5"
         style="stroke:#000000;stroke-opacity:0"
         transform="translate(0.01500113,26.012934)">
        <ellipse
           style="fill:#aa4400;stroke:#000000;stroke-width:0.03;stroke-dasharray:none;stroke-opacity:0;marker-mid:url(#Dot-6-4-7-6-0-6);paint-order:markers stroke fill"
           id="path27054-3-6-4-8-3-1"
           cx="177.44127"
           cy="43.483932"
           rx="6.53125"
           ry="9.28125" />
        <path
           id="path73221-9"
           style="fill:#aa4400;stroke:#000000;stroke-width:0.0332561;stroke-dasharray:none;stroke-opacity:0;paint-order:markers stroke fill"
           d="m 177.461,34.196879 -30.81414,6.245097 -0.076,18.580261 30.89527,-6.258533 z" />
      </g>
      <g
         id="5-4"
         style="stroke:#000000;stroke-opacity:0"
         transform="translate(0.01500065,56.012934)">
        <ellipse
           style="fill:#aa4400;stroke:#000000;stroke-width:0.03;stroke-dasharray:none;stroke-opacity:0;marker-mid:url(#Dot-6-4-7-6-0-63);paint-order:markers stroke fill"
           id="path27054-3-6-4-8-3-9"
           cx="177.44127"
           cy="43.483932"
           rx="6.53125"
           ry="9.28125" />
        <path
           id="path73221-3"
           style="fill:#aa4400;stroke:#000000;stroke-width:0.0332561;stroke-dasharray:none;stroke-opacity:0;paint-order:markers stroke fill"
           d="m 177.461,34.196879 -30.81414,6.245097 -0.076,18.580261 30.89527,-6.258533 z" />
      </g>
      <g
         id="5-7"
         style="stroke:#000000;stroke-opacity:0"
         transform="translate(0.01500143,86.012933)">
        <ellipse
           style="fill:#aa4400;stroke:#000000;stroke-width:0.03;stroke-dasharray:none;stroke-opacity:0;marker-mid:url(#Dot-6-4-7-6-0-8);paint-order:markers stroke fill"
           id="path27054-3-6-4-8-3-10"
           cx="177.44127"
           cy="43.483932"
           rx="6.53125"
           ry="9.28125" />
        <path
           id="path73221-97"
           style="fill:#aa4400;stroke:#000000;stroke-width:0.0332561;stroke-dasharray:none;stroke-opacity:0;paint-order:markers stroke fill"
           d="m 177.461,34.196879 -30.81414,6.245097 -0.076,18.580261 30.89527,-6.258533 z" />
      </g>
    </g>
    <g
       id="b8-s4">
      <g
         id="b8-4"
         style="fill:#008080;stroke:#000000;stroke-opacity:0"
         transform="translate(0.01500092,-3.9870666)">
        <path
           id="path73218"
           style="fill:#008080;stroke:#000000;stroke-width:0.0332561;stroke-dasharray:none;stroke-opacity:0;paint-order:markers stroke fill"
           d="m 146.5709,59.022237 0.076,-18.580261 -29.58579,5.996016 -0.13332,18.589047 z" />
        <ellipse
           style="fill:#008080;stroke:#000000;stroke-width:0.0298936;stroke-dasharray:none;stroke-opacity:0;marker-mid:url(#Dot-6-4-6-2-5-2-2-2-9);paint-order:markers stroke fill"
           id="path27054-3-6-1-9-8-3-4-7-7"
           cx="146.61612"
           cy="49.697941"
           rx="6.5314274"
           ry="9.2153015" />
      </g>
      <g
         id="b8-4-8"
         style="fill:#008080;stroke:#000000;stroke-opacity:0"
         transform="translate(0.01500113,26.012934)">
        <path
           id="path73218-1"
           style="fill:#008080;stroke:#000000;stroke-width:0.0332561;stroke-dasharray:none;stroke-opacity:0;paint-order:markers stroke fill"
           d="m 146.5709,59.022237 0.076,-18.580261 -29.58579,5.996016 -0.13332,18.589047 z" />
        <ellipse
           style="fill:#008080;stroke:#000000;stroke-width:0.0298936;stroke-dasharray:none;stroke-opacity:0;marker-mid:url(#Dot-6-4-6-2-5-2-2-2-9-2);paint-order:markers stroke fill"
           id="path27054-3-6-1-9-8-3-4-7-7-9"
           cx="146.61612"
           cy="49.697941"
           rx="6.5314274"
           ry="9.2153015" />
      </g>
      <g
         id="b8-4-9"
         style="fill:#008080;stroke:#000000;stroke-opacity:0"
         transform="translate(0.01500065,56.012934)">
        <path
           id="path73218-3"
           style="fill:#008080;stroke:#000000;stroke-width:0.0332561;stroke-dasharray:none;stroke-opacity:0;paint-order:markers stroke fill"
           d="m 146.5709,59.022237 0.076,-18.580261 -29.58579,5.996016 -0.13332,18.589047 z" />
        <ellipse
           style="fill:#008080;stroke:#000000;stroke-width:0.0298936;stroke-dasharray:none;stroke-opacity:0;marker-mid:url(#Dot-6-4-6-2-5-2-2-2-9-1);paint-order:markers stroke fill"
           id="path27054-3-6-1-9-8-3-4-7-7-7"
           cx="146.61612"
           cy="49.697941"
           rx="6.5314274"
           ry="9.2153015" />
      </g>
      <g
         id="b8-4-2"
         style="fill:#008080;stroke:#000000;stroke-opacity:0"
         transform="translate(0.01500143,86.012933)">
        <path
           id="path73218-6"
           style="fill:#008080;stroke:#000000;stroke-width:0.0332561;stroke-dasharray:none;stroke-opacity:0;paint-order:markers stroke fill"
           d="m 146.5709,59.022237 0.076,-18.580261 -29.58579,5.996016 -0.13332,18.589047 z" />
        <ellipse
           style="fill:#008080;stroke:#000000;stroke-width:0.0298936;stroke-dasharray:none;stroke-opacity:0;marker-mid:url(#Dot-6-4-6-2-5-2-2-2-9-3);paint-order:markers stroke fill"
           id="path27054-3-6-1-9-8-3-4-7-7-0"
           cx="146.61612"
           cy="49.697941"
           rx="6.5314274"
           ry="9.2153015" />
      </g>
    </g>
    <g
       id="b8-s3">
      <g
         id="b8-3"
         style="fill:#aa4400;stroke:#000000;stroke-opacity:0"
         transform="translate(0.01500092,-3.9870666)">
        <path
           id="path73215"
           style="fill:#aa4400;stroke:#000000;stroke-width:0.0332561;stroke-dasharray:none;stroke-opacity:0;paint-order:markers stroke fill"
           d="M 116.92775,65.027039 117.06107,46.437992 86.762663,52.578186 86.57146,71.176017 Z" />
        <ellipse
           style="fill:#aa4400;stroke:#000000;stroke-width:0.0298936;stroke-dasharray:none;stroke-opacity:0;marker-mid:url(#Dot-6-4-6-2-5-2-2-2);paint-order:markers stroke fill"
           id="path27054-3-6-1-9-8-3-4-7"
           cx="116.95988"
           cy="55.6875"
           rx="6.5314274"
           ry="9.2153015" />
      </g>
      <g
         id="b8-3-4"
         style="fill:#aa4400;stroke:#000000;stroke-opacity:0"
         transform="translate(0.01500113,26.012934)">
        <path
           id="path73215-5"
           style="fill:#aa4400;stroke:#000000;stroke-width:0.0332561;stroke-dasharray:none;stroke-opacity:0;paint-order:markers stroke fill"
           d="M 116.92775,65.027039 117.06107,46.437992 86.762663,52.578186 86.57146,71.176017 Z" />
        <ellipse
           style="fill:#aa4400;stroke:#000000;stroke-width:0.0298936;stroke-dasharray:none;stroke-opacity:0;marker-mid:url(#Dot-6-4-6-2-5-2-2-2-90);paint-order:markers stroke fill"
           id="path27054-3-6-1-9-8-3-4-7-5"
           cx="116.95988"
           cy="55.6875"
           rx="6.5314274"
           ry="9.2153015" />
      </g>
      <g
         id="b8-3-3"
         style="fill:#aa4400;stroke:#000000;stroke-opacity:0"
         transform="translate(0.01500065,56.012934)">
        <path
           id="path73215-0"
           style="fill:#aa4400;stroke:#000000;stroke-width:0.0332561;stroke-dasharray:none;stroke-opacity:0;paint-order:markers stroke fill"
           d="M 116.92775,65.027039 117.06107,46.437992 86.762663,52.578186 86.57146,71.176017 Z" />
        <ellipse
           style="fill:#aa4400;stroke:#000000;stroke-width:0.0298936;stroke-dasharray:none;stroke-opacity:0;marker-mid:url(#Dot-6-4-6-2-5-2-2-2-3);paint-order:markers stroke fill"
           id="path27054-3-6-1-9-8-3-4-7-9"
           cx="116.95988"
           cy="55.6875"
           rx="6.5314274"
           ry="9.2153015" />
      </g>
      <g
         id="b8-3-7"
         style="fill:#aa4400;stroke:#000000;stroke-opacity:0"
         transform="translate(0.01500143,86.012933)">
        <path
           id="path73215-58"
           style="fill:#aa4400;stroke:#000000;stroke-width:0.0332561;stroke-dasharray:none;stroke-opacity:0;paint-order:markers stroke fill"
           d="M 116.92775,65.027039 117.06107,46.437992 86.762663,52.578186 86.57146,71.176017 Z" />
        <ellipse
           style="fill:#aa4400;stroke:#000000;stroke-width:0.0298936;stroke-dasharray:none;stroke-opacity:0;marker-mid:url(#Dot-6-4-6-2-5-2-2-2-8);paint-order:markers stroke fill"
           id="path27054-3-6-1-9-8-3-4-7-3"
           cx="116.95988"
           cy="55.6875"
           rx="6.5314274"
           ry="9.2153015" />
      </g>
    </g>
    <g
       id="b8-s2">
      <g
         id="b8-2"
         style="fill:#008080;stroke:#000000;stroke-opacity:0"
         transform="translate(0.01500092,-3.9870666)">
        <path
           id="path73212"
           style="fill:#008080;stroke:#000000;stroke-width:0.0332561;stroke-dasharray:none;stroke-opacity:0;paint-order:markers stroke fill"
           d="m 86.57146,71.176017 0.191203,-18.597831 -30.099972,6.100403 -0.05219,18.566308 z" />
        <ellipse
           style="fill:#008080;stroke:#000000;stroke-width:0.0298936;stroke-dasharray:none;stroke-opacity:0;marker-mid:url(#Dot-6-4-6-2-5-2-2);paint-order:markers stroke fill"
           id="path27054-3-6-1-9-8-3-4"
           cx="86.616127"
           cy="61.875"
           rx="6.5314274"
           ry="9.2153015" />
      </g>
      <g
         id="b8-2-6"
         style="fill:#008080;stroke:#000000;stroke-opacity:0"
         transform="translate(0.01500113,26.012934)">
        <path
           id="path73212-4"
           style="fill:#008080;stroke:#000000;stroke-width:0.0332561;stroke-dasharray:none;stroke-opacity:0;paint-order:markers stroke fill"
           d="m 86.57146,71.176017 0.191203,-18.597831 -30.099972,6.100403 -0.05219,18.566308 z" />
        <ellipse
           style="fill:#008080;stroke:#000000;stroke-width:0.0298936;stroke-dasharray:none;stroke-opacity:0;marker-mid:url(#Dot-6-4-6-2-5-2-2-5);paint-order:markers stroke fill"
           id="path27054-3-6-1-9-8-3-4-9"
           cx="86.616127"
           cy="61.875"
           rx="6.5314274"
           ry="9.2153015" />
      </g>
      <g
         id="b8-2-2"
         style="fill:#008080;stroke:#000000;stroke-opacity:0"
         transform="translate(0.01500065,56.012934)">
        <path
           id="path73212-8"
           style="fill:#008080;stroke:#000000;stroke-width:0.0332561;stroke-dasharray:none;stroke-opacity:0;paint-order:markers stroke fill"
           d="m 86.57146,71.176017 0.191203,-18.597831 -30.099972,6.100403 -0.05219,18.566308 z" />
        <ellipse
           style="fill:#008080;stroke:#000000;stroke-width:0.0298936;stroke-dasharray:none;stroke-opacity:0;marker-mid:url(#Dot-6-4-6-2-5-2-2-1);paint-order:markers stroke fill"
           id="path27054-3-6-1-9-8-3-4-2"
           cx="86.616127"
           cy="61.875"
           rx="6.5314274"
           ry="9.2153015" />
      </g>
      <g
         id="b8-2-25"
         style="fill:#008080;stroke:#000000;stroke-opacity:0"
         transform="translate(0.01500143,86.012933)">
        <path
           id="path73212-7"
           style="fill:#008080;stroke:#000000;stroke-width:0.0332561;stroke-dasharray:none;stroke-opacity:0;paint-order:markers stroke fill"
           d="m 86.57146,71.176017 0.191203,-18.597831 -30.099972,6.100403 -0.05219,18.566308 z" />
        <ellipse
           style="fill:#008080;stroke:#000000;stroke-width:0.0298936;stroke-dasharray:none;stroke-opacity:0;marker-mid:url(#Dot-6-4-6-2-5-2-2-54);paint-order:markers stroke fill"
           id="path27054-3-6-1-9-8-3-4-6"
           cx="86.616127"
           cy="61.875"
           rx="6.5314274"
           ry="9.2153015" />
      </g>
    </g>
    <g
       id="b8-s1">
      <g
         id="1"
         style="fill:#aa4400;stroke:#000000;stroke-opacity:0"
         transform="translate(0.01500092,-3.9870666)">
        <path
           id="Base-61-9"
           style="fill:#aa4400;stroke:#000000;stroke-width:0.0332561;stroke-dasharray:none;stroke-opacity:0;paint-order:markers stroke fill"
           d="m 56.610498,77.244897 0.05219,-18.566308 -29.163594,5.91075 0.0098,18.550806 z" />
        <ellipse
           style="fill:#aa4400;stroke:#000000;stroke-width:0.0298936;stroke-dasharray:none;stroke-opacity:0;marker-mid:url(#Dot-6-4-6-2-5-2);paint-order:markers stroke fill"
           id="path27054-3-6-1-9-8-3"
           cx="56.616123"
           cy="67.953278"
           rx="6.5314274"
           ry="9.2153015" />
      </g>
      <g
         id="1-1"
         style="fill:#aa4400;stroke:#000000;stroke-opacity:0"
         transform="translate(0.01500113,26.012934)">
        <path
           id="Base-61-9-3"
           style="fill:#aa4400;stroke:#000000;stroke-width:0.0332561;stroke-dasharray:none;stroke-opacity:0;paint-order:markers stroke fill"
           d="m 56.610498,77.244897 0.05219,-18.566308 -29.163594,5.91075 0.0098,18.550806 z" />
        <ellipse
           style="fill:#aa4400;stroke:#000000;stroke-width:0.0298936;stroke-dasharray:none;stroke-opacity:0;marker-mid:url(#Dot-6-4-6-2-5-2-3);paint-order:markers stroke fill"
           id="path27054-3-6-1-9-8-3-1"
           cx="56.616123"
           cy="67.953278"
           rx="6.5314274"
           ry="9.2153015" />
      </g>
      <g
         id="1-3"
         style="fill:#aa4400;stroke:#000000;stroke-opacity:0"
         transform="translate(0.01500065,56.012934)">
        <path
           id="Base-61-9-4"
           style="fill:#aa4400;stroke:#000000;stroke-width:0.0332561;stroke-dasharray:none;stroke-opacity:0;paint-order:markers stroke fill"
           d="m 56.610498,77.244897 0.05219,-18.566308 -29.163594,5.91075 0.0098,18.550806 z" />
        <ellipse
           style="fill:#aa4400;stroke:#000000;stroke-width:0.0298936;stroke-dasharray:none;stroke-opacity:0;marker-mid:url(#Dot-6-4-6-2-5-2-20);paint-order:markers stroke fill"
           id="path27054-3-6-1-9-8-3-9"
           cx="56.616123"
           cy="67.953278"
           rx="6.5314274"
           ry="9.2153015" />
      </g>
      <g
         id="1-2"
         style="fill:#aa4400;stroke:#000000;stroke-opacity:0"
         transform="translate(0.01500143,86.012933)">
        <path
           id="Base-61-9-6"
           style="fill:#aa4400;stroke:#000000;stroke-width:0.0332561;stroke-dasharray:none;stroke-opacity:0;paint-order:markers stroke fill"
           d="m 56.610498,77.244897 0.05219,-18.566308 -29.163594,5.91075 0.0098,18.550806 z" />
        <ellipse
           style="fill:#aa4400;stroke:#000000;stroke-width:0.0298936;stroke-dasharray:none;stroke-opacity:0;marker-mid:url(#Dot-6-4-6-2-5-2-4);paint-order:markers stroke fill"
           id="path27054-3-6-1-9-8-3-17"
           cx="56.616123"
           cy="67.953278"
           rx="6.5314274"
           ry="9.2153015" />
      </g>
    </g>
    <ellipse
       style="fill:#999999;stroke:#000000;stroke-width:0.2;stroke-dasharray:none;stroke-opacity:1;paint-order:markers stroke fill"
       id="path27054-3-6-18-4-384"
       cx="27.511583"
       cy="159.87364"
       rx="6.53125"
       ry="9.28125" />
    <ellipse
       style="fill:#999999;stroke:#000000;stroke-width:0.2;stroke-dasharray:none;stroke-opacity:1;paint-order:markers stroke fill"
       id="path27054-3-6-1-9-8-1"
       cx="26.63125"
       cy="160.20712"
       rx="6.53125"
       ry="9.28125" />
    <ellipse
       style="fill:#999999;stroke:#000000;stroke-width:0.2;stroke-dasharray:none;stroke-opacity:1;paint-order:markers stroke fill"
       id="path27054-3-6-18-4"
       cx="27.511583"
       cy="69.873634"
       rx="6.53125"
       ry="9.28125" />
    <ellipse
       style="fill:#999999;stroke:#000000;stroke-width:0.2;stroke-dasharray:none;stroke-opacity:1;paint-order:markers stroke fill"
       id="path27054-3-6-1-9-8"
       cx="26.63125"
       cy="70.207115"
       rx="6.53125"
       ry="9.28125" />
    <ellipse
       style="fill:#999999;stroke:#000000;stroke-width:0.2;stroke-dasharray:none;stroke-opacity:1;paint-order:markers stroke fill"
       id="path27054-3-6-18-4-3"
       cx="27.511583"
       cy="99.873634"
       rx="6.53125"
       ry="9.28125" />
    <ellipse
       style="fill:#999999;stroke:#000000;stroke-width:0.2;stroke-dasharray:none;stroke-opacity:1;paint-order:markers stroke fill"
       id="path27054-3-6-1-9-8-5"
       cx="26.63125"
       cy="100.20712"
       rx="6.53125"
       ry="9.28125" />
    <ellipse
       style="fill:#999999;stroke:#000000;stroke-width:0.2;stroke-dasharray:none;stroke-opacity:1;paint-order:markers stroke fill"
       id="path27054-3-6-18-4-38"
       cx="27.511583"
       cy="129.87364"
       rx="6.53125"
       ry="9.28125" />
    <ellipse
       style="fill:#999999;stroke:#000000;stroke-width:0.2;stroke-dasharray:none;stroke-opacity:1;paint-order:markers stroke fill"
       id="path27054-3-6-1-9-8-7"
       cx="26.63125"
       cy="130.20712"
       rx="6.53125"
       ry="9.28125" />
  </g>
</svg>
