<?xml version="1.0" encoding="UTF-8" standalone="no"?>
<svg
   viewBox="145 180 500 20"
   width="500"
   height="280"
   version="1.1"
   id="svg11741"
   xmlns="http://www.w3.org/2000/svg"
   xmlns:svg="http://www.w3.org/2000/svg">
  <desc
     id="desc11054">Bar 6.DXF - scale = 0.176619, origin = (0.000000, 0.000000), method = auto</desc>
  <defs
     id="defs11069">
    <marker
       id="DistanceX"
       orient="auto"
       refX="0.0"
       refY="0.0"
       style="overflow:visible">
      <path
         d="M 3,-3 L -3,3 M 0,-5 L  0,5"
         style="stroke:#000000; stroke-width:0.5"
         id="path11056" />
    </marker>
    <pattern
       id="Hatch"
       patternUnits="userSpaceOnUse"
       width="8"
       height="8"
       x="0"
       y="0">
      <path
         d="M8 4 l-4,4"
         stroke="#000000"
         stroke-width="0.25"
         linecap="square"
         id="path11059" />
      <path
         d="M6 2 l-4,4"
         stroke="#000000"
         stroke-width="0.25"
         linecap="square"
         id="path11061" />
      <path
         d="M4 0 l-4,4"
         stroke="#000000"
         stroke-width="0.25"
         linecap="square"
         id="path11063" />
    </pattern>
    <symbol
       id="*Model_Space" />
    <symbol
       id="*Paper_Space" />
    <symbol
       id="*Paper_Space0" />
  </defs>
  <g
     id="g11737">
    <path
       id="path12682-2"
       style="fill:#cccccc;fill-opacity:1;stroke:#00ff00;stroke-width:0.377953;stroke-opacity:0"
       d="m 597.45508,200.24023 0.20117,24.32422 h 6.76172 l -0.0215,-24.32617 z" />
    <g
       id="b6-s11"
       style="fill:#ffe680">
      <path
         id="path12679"
         style="fill:#ffe680;fill-opacity:1;stroke:#00ff00;stroke-width:0.377953;stroke-opacity:0"
         d="m 597.45508,100.24023 -13.54883,0.002 0.58008,24.32031 13.16992,0.002 z" />
      <path
         id="path12679-4"
         style="fill:#ffe680;fill-opacity:1;stroke:#00ff00;stroke-width:0.377953;stroke-opacity:0"
         d="m 597.45508,150.24023 -13.54883,0.002 0.58008,24.32031 13.16992,0.002 z" />
      <path
         id="path12679-42"
         style="fill:#ffe680;fill-opacity:1;stroke:#00ff00;stroke-width:0.377953;stroke-opacity:0"
         d="m 597.45508,250.24023 -13.54883,0.002 0.58008,24.32031 13.16992,0.002 z" />
      <path
         id="path12679-9"
         style="fill:#ffe680;fill-opacity:1;stroke:#00ff00;stroke-width:0.377953;stroke-opacity:0"
         d="m 597.45508,200.24023 -13.54883,0.002 0.58008,24.32031 13.16992,0.002 z" />
    </g>
    <g
       id="b6-s1"
       style="fill:#ffe680">
      <path
         id="path12649"
         style="fill:#ffe680;fill-opacity:1;stroke:#00ff00;stroke-width:0.377953;stroke-opacity:0"
         d="m 210.34375,100.42566 -13.33789,0.004 -0.0879,24.19922 h 13.58594 z" />
      <path
         id="path12649-9"
         style="fill:#ffe680;fill-opacity:1;stroke:#00ff00;stroke-width:0.377953;stroke-opacity:0"
         d="m 210.34375,150.42566 -13.33789,0.004 -0.0879,24.19922 h 13.58594 z" />
      <path
         id="path12649-0"
         style="fill:#ffe680;fill-opacity:1;stroke:#00ff00;stroke-width:0.377953;stroke-opacity:0"
         d="m 210.34375,200.42566 -13.33789,0.004 -0.0879,24.19922 h 13.58594 z" />
      <path
         id="path12649-3"
         style="fill:#ffe680;fill-opacity:1;stroke:#00ff00;stroke-width:0.377953;stroke-opacity:0"
         d="m 210.34375,250.42566 -13.33789,0.004 -0.0879,24.19922 h 13.58594 z" />
    </g>
    <g
       id="b6-s2"
       style="fill:#ff9955">
      <path
         id="path12652"
         style="fill:#ff9955;fill-opacity:1;stroke:#00ff00;stroke-width:0.377953;stroke-opacity:0"
         d="M 250.15234 100.41602 L 210.34375 100.42578 L 210.50391 124.62891 L 250.31055 124.63086 L 250.15234 100.41602 z " />
      <path
         id="path12652-6"
         style="fill:#ff9955;fill-opacity:1;stroke:#00ff00;stroke-width:0.377953;stroke-opacity:0"
         d="m 250.15234,150.41602 -39.80859,0.01 0.16016,24.20313 39.80664,0.002 z" />
      <path
         id="path12652-4"
         style="fill:#ff9955;fill-opacity:1;stroke:#00ff00;stroke-width:0.377953;stroke-opacity:0"
         d="m 250.15234,200.41602 -39.80859,0.01 0.16016,24.20313 39.80664,0.002 z" />
      <path
         id="path12652-1"
         style="fill:#ff9955;fill-opacity:1;stroke:#00ff00;stroke-width:0.377953;stroke-opacity:0"
         d="m 250.15234,250.41602 -39.80859,0.01 0.16016,24.20313 39.80664,0.002 z" />
    </g>
    <g
       id="b6-s3"
       style="fill:#008080">
      <path
         id="path12655"
         style="fill:#008080;fill-opacity:1;stroke:#00ff00;stroke-width:0.377953;stroke-opacity:0"
         d="M 303.75781 100.40234 L 250.15234 100.41602 L 250.31055 124.63086 L 304.10938 124.63477 L 303.75781 100.40234 z " />
      <path
         id="path12655-1"
         style="fill:#008080;fill-opacity:1;stroke:#00ff00;stroke-width:0.377953;stroke-opacity:0"
         d="m 303.75781,150.40234 -53.60547,0.0137 0.15821,24.21484 53.79883,0.004 z" />
      <path
         id="path12655-3"
         style="fill:#008080;fill-opacity:1;stroke:#00ff00;stroke-width:0.377953;stroke-opacity:0"
         d="m 303.75781,200.40234 -53.60547,0.0137 0.15821,24.21484 53.79883,0.004 z" />
      <path
         id="path12655-0"
         style="fill:#008080;fill-opacity:1;stroke:#00ff00;stroke-width:0.377953;stroke-opacity:0"
         d="m 303.75781,250.40234 -53.60547,0.0137 0.15821,24.21484 53.79883,0.004 z" />
    </g>
    <g
       id="b6-s4"
       transform="translate(0.24377803)"
       style="fill:#ff9955">
      <path
         id="path12658"
         style="fill:#ff9955;fill-opacity:1;stroke:#00ff00;stroke-width:0.377953;stroke-opacity:0"
         d="m 370.48828,100.38477 -66.73047,0.0176 0.35157,24.23243 66.4121,0.004 z" />
      <path
         id="path12658-2"
         style="fill:#ff9955;fill-opacity:1;stroke:#00ff00;stroke-width:0.377953;stroke-opacity:0"
         d="m 370.48828,150.38477 -66.73047,0.0176 0.35157,24.23243 66.4121,0.004 z" />
      <path
         id="path12658-7"
         style="fill:#ff9955;fill-opacity:1;stroke:#00ff00;stroke-width:0.377953;stroke-opacity:0"
         d="m 370.48828,200.38477 -66.73047,0.0176 0.35157,24.23243 66.4121,0.004 z" />
      <path
         id="path12658-9"
         style="fill:#ff9955;fill-opacity:1;stroke:#00ff00;stroke-width:0.377953;stroke-opacity:0"
         d="m 370.48828,250.38477 -66.73047,0.0176 0.35157,24.23243 66.4121,0.004 z" />
    </g>
    <g
       id="b6-s5">
      <path
         id="path12661"
         style="fill:#ffe680;fill-opacity:1;stroke:#00ff00;stroke-width:0.377953;stroke-opacity:0"
         d="m 383.70117,100.38086 -13.21289,0.004 0.0332,24.2539 h 13.34766 z" />
      <path
         id="path12661-6"
         style="fill:#ffe680;fill-opacity:1;stroke:#00ff00;stroke-width:0.377953;stroke-opacity:0"
         d="m 383.70117,150.38086 -13.21289,0.004 0.0332,24.2539 h 13.34766 z" />
      <path
         id="path12661-3"
         style="fill:#ffe680;fill-opacity:1;stroke:#00ff00;stroke-width:0.377953;stroke-opacity:0"
         d="m 383.70117,200.38086 -13.21289,0.004 0.0332,24.2539 h 13.34766 z" />
      <path
         id="path12661-2"
         style="fill:#ffe680;fill-opacity:1;stroke:#00ff00;stroke-width:0.377953;stroke-opacity:0"
         d="m 383.70117,250.38086 -13.21289,0.004 0.0332,24.2539 h 13.34766 z" />
    </g>
    <g
       id="b6-s6"
       style="fill:#008080">
      <path
         id="path12664"
         style="fill:#008080;fill-opacity:1;stroke:#00ff00;stroke-width:0.377953;stroke-opacity:0"
         d="M 410.44531 100.37305 L 383.70117 100.38086 L 383.86914 124.63867 L 410.73438 124.64062 L 410.44531 100.37305 z " />
      <path
         id="path12664-6"
         style="fill:#008080;fill-opacity:1;stroke:#00ff00;stroke-width:0.377953;stroke-opacity:0"
         d="m 410.44531,150.37305 -26.74414,0.008 0.16797,24.25781 26.86524,0.002 z" />
      <path
         id="path12664-7"
         style="fill:#008080;fill-opacity:1;stroke:#00ff00;stroke-width:0.377953;stroke-opacity:0"
         d="m 410.44531,200.37305 -26.74414,0.008 0.16797,24.25781 26.86524,0.002 z" />
      <path
         id="path12664-4"
         style="fill:#008080;fill-opacity:1;stroke:#00ff00;stroke-width:0.377953;stroke-opacity:0"
         d="m 410.44531,250.37305 -26.74414,0.008 0.16797,24.25781 26.86524,0.002 z" />
    </g>
    <g
       id="b6-s7"
       style="fill:#ffe680">
      <path
         id="path12667"
         style="fill:#ffe680;fill-opacity:1;stroke:#00ff00;stroke-width:0.377953;stroke-opacity:0"
         d="M 423.75 100.36914 L 410.44531 100.37305 L 410.73438 124.64062 L 424.16992 124.64062 L 423.75 100.36914 z " />
      <path
         id="path12667-7"
         style="fill:#ffe680;fill-opacity:1;stroke:#00ff00;stroke-width:0.377953;stroke-opacity:0"
         d="m 423.75,150.36914 -13.30469,0.004 0.28907,24.26757 h 13.43554 z" />
      <path
         id="path12667-77"
         style="fill:#ffe680;fill-opacity:1;stroke:#00ff00;stroke-width:0.377953;stroke-opacity:0"
         d="m 423.75,200.36914 -13.30469,0.004 0.28907,24.26757 h 13.43554 z" />
      <path
         id="path12667-8"
         style="fill:#ffe680;fill-opacity:1;stroke:#00ff00;stroke-width:0.377953;stroke-opacity:0"
         d="m 423.75,250.36914 -13.30469,0.004 0.28907,24.26757 h 13.43554 z" />
    </g>
    <g
       id="b6-s8"
       style="fill:#ff9955">
      <path
         id="path12670"
         style="fill:#ff9955;fill-opacity:1;stroke:#00ff00;stroke-width:0.377953;stroke-opacity:0"
         d="M 490.56836 100.35156 L 423.75 100.36914 L 424.16992 124.64062 L 490.69922 124.64453 L 490.56836 100.35156 z " />
      <path
         id="path12670-5"
         style="fill:#ff9955;fill-opacity:1;stroke:#00ff00;stroke-width:0.377953;stroke-opacity:0"
         d="m 490.56836,150.35156 -66.81836,0.0176 0.41992,24.27148 66.5293,0.004 z" />
      <path
         id="path12670-6"
         style="fill:#ff9955;fill-opacity:1;stroke:#00ff00;stroke-width:0.377953;stroke-opacity:0"
         d="m 490.56836,200.35156 -66.81836,0.0176 0.41992,24.27148 66.5293,0.004 z" />
      <path
         id="path12670-0"
         style="fill:#ff9955;fill-opacity:1;stroke:#00ff00;stroke-width:0.377953;stroke-opacity:0"
         d="m 490.56836,250.35156 -66.81836,0.0176 0.41992,24.27148 66.5293,0.004 z" />
    </g>
    <g
       id="b6-s9"
       style="fill:#008080">
      <path
         id="path12673"
         style="fill:#008080;fill-opacity:1;stroke:#00ff00;stroke-width:0.377953;stroke-opacity:0"
         d="M 544.14648 100.33789 L 490.56836 100.35156 L 490.69922 124.64453 L 544.11133 124.64648 L 544.14648 100.33789 z " />
      <path
         id="path12673-9"
         style="fill:#008080;fill-opacity:1;stroke:#00ff00;stroke-width:0.377953;stroke-opacity:0"
         d="m 544.14648,150.33789 -53.57812,0.0137 0.13086,24.29297 53.41211,0.002 z" />
      <path
         id="path12673-99"
         style="fill:#008080;fill-opacity:1;stroke:#00ff00;stroke-width:0.377953;stroke-opacity:0"
         d="m 544.14648,200.33789 -53.57812,0.0137 0.13086,24.29297 53.41211,0.002 z" />
      <path
         id="path12673-4"
         style="fill:#008080;fill-opacity:1;stroke:#00ff00;stroke-width:0.377953;stroke-opacity:0"
         d="m 544.14648,250.33789 -53.57812,0.0137 0.13086,24.29297 53.41211,0.002 z" />
    </g>
    <g
       id="b6-s10"
       style="fill:#ff9955">
      <path
         id="path12676"
         style="fill:#ff9955;fill-opacity:1;stroke:#00ff00;stroke-width:0.377953;stroke-opacity:0"
         d="M 583.90625 100.24219 L 544.36133 100.25195 L 544.32617 124.56055 L 584.48633 124.5625 L 583.90625 100.24219 z " />
      <path
         id="path12676-0"
         style="fill:#ff9955;fill-opacity:1;stroke:#00ff00;stroke-width:0.377953;stroke-opacity:0"
         d="m 583.90625,150.24219 -39.54492,0.01 -0.0352,24.3086 40.16016,0.002 z" />
      <path
         id="path12676-3"
         style="fill:#ff9955;fill-opacity:1;stroke:#00ff00;stroke-width:0.377953;stroke-opacity:0"
         d="m 583.90625,200.24219 -39.54492,0.01 -0.0352,24.3086 40.16016,0.002 z" />
      <path
         id="path12676-8"
         style="fill:#ff9955;fill-opacity:1;stroke:#00ff00;stroke-width:0.377953;stroke-opacity:0"
         d="m 583.90625,250.24219 -39.54492,0.01 -0.0352,24.3086 40.16016,0.002 z" />
    </g>
    <path
       style="fill:none;stroke:#000000;stroke-linecap:round"
       d="M 597.5125,224.352 V 200.5"
       id="path11703-3" />
    <path
       id="path12511"
       style="fill:#cccccc;fill-opacity:1;stroke:#00ff00;stroke-width:0.377953;stroke-opacity:0"
       d="M 197.00586 100.47266 L 190.41211 100.47461 L 190.36914 124.67188 L 196.91797 124.67188 L 197.00586 100.47266 z " />
    <path
       id="path12682"
       style="fill:#cccccc;fill-opacity:1;stroke:#00ff00;stroke-width:0.377953;stroke-opacity:0"
       d="M 597.45508 100.24023 L 597.65625 124.56445 L 604.41797 124.56445 L 604.39648 100.23828 L 597.45508 100.24023 z " />
    <path
       style="fill:none;stroke:#000000;stroke-linecap:round"
       d="M 196.9905,124.352 V 100.5"
       id="path11701" />
    <path
       style="fill:none;stroke:#000000;stroke-linecap:round"
       d="M 597.5125,124.352 V 100.5"
       id="path11703" />
    <path
       style="fill:none;stroke:#000000;stroke-linecap:round"
       d="M 584.1615,124.352 V 100.5"
       id="path11705" />
    <path
       style="fill:none;stroke:#000000;stroke-linecap:round"
       d="M 544.1095,124.352 V 100.5"
       id="path11707" />
    <path
       style="fill:none;stroke:#000000;stroke-linecap:round"
       d="M 490.7065,124.352 V 100.5"
       id="path11709" />
    <path
       style="fill:none;stroke:#000000;stroke-linecap:round"
       d="M 423.9525,124.352 V 100.5"
       id="path11711" />
    <path
       style="fill:none;stroke:#000000;stroke-linecap:round"
       d="M 410.6025,124.352 V 100.5"
       id="path11713" />
    <path
       style="fill:none;stroke:#000000;stroke-linecap:round"
       d="M 383.9005,124.352 V 100.5"
       id="path11715" />
    <path
       style="fill:none;stroke:#000000;stroke-linecap:round"
       d="M 370.5495,124.352 V 100.5"
       id="path11717" />
    <path
       style="fill:none;stroke:#000000;stroke-linecap:round"
       d="M 303.7965,124.352 V 100.5"
       id="path11719" />
    <path
       style="fill:none;stroke:#000000;stroke-linecap:round"
       d="M 250.3935,124.352 V 100.5"
       id="path11721" />
    <path
       style="fill:none;stroke:#000000;stroke-linecap:round"
       d="M 210.3415,124.352 V 100.5"
       id="path11723" />
    <path
       style="fill:none;stroke:#000000;stroke-width:0.631;stroke-linecap:round"
       d="m 190.3155,124.68478 h 413.872"
       id="path11725" />
    <path
       style="fill:none;stroke:#000000;stroke-width:0.631;stroke-linecap:round"
       d="M 604.1875,100.41 H 190.3155"
       id="path11727" />
    <path
       style="fill:none;stroke:#000000;stroke-width:0.631;stroke-linecap:round"
       d="m 190.3155,100.41 v 24.031"
       id="path11729" />
    <path
       style="fill:none;stroke:#000000;stroke-width:0.631;stroke-linecap:round"
       d="m 604.1875,100.41 v 24.031"
       id="path11731" />
    <path
       style="fill:#b3b3b3;fill-opacity:0;stroke:#00ff00;stroke-width:0.377953;stroke-opacity:0"
       d="m 190.30432,100.49585 v 24.17589 l 413.83431,0.0431 0.12928,-24.34827 z"
       id="path12455" />
    <path
       id="path12511-0"
       style="fill:#cccccc;fill-opacity:1;stroke:#00ff00;stroke-width:0.377953;stroke-opacity:0"
       d="m 197.00586,150.47266 -6.59375,0.002 -0.043,24.19727 h 6.54883 z" />
    <path
       id="path12682-9"
       style="fill:#cccccc;fill-opacity:1;stroke:#00ff00;stroke-width:0.377953;stroke-opacity:0"
       d="m 597.45508,150.24023 0.20117,24.32422 h 6.76172 l -0.0215,-24.32617 z" />
    <path
       style="fill:none;stroke:#000000;stroke-linecap:round"
       d="M 196.9905,174.352 V 150.5"
       id="path11701-3" />
    <path
       style="fill:none;stroke:#000000;stroke-linecap:round"
       d="M 597.5125,174.352 V 150.5"
       id="path11703-4" />
    <path
       style="fill:none;stroke:#000000;stroke-linecap:round"
       d="M 584.1615,174.352 V 150.5"
       id="path11705-9" />
    <path
       style="fill:none;stroke:#000000;stroke-linecap:round"
       d="M 544.1095,174.352 V 150.5"
       id="path11707-5" />
    <path
       style="fill:none;stroke:#000000;stroke-linecap:round"
       d="M 490.7065,174.352 V 150.5"
       id="path11709-6" />
    <path
       style="fill:none;stroke:#000000;stroke-linecap:round"
       d="M 423.9525,174.352 V 150.5"
       id="path11711-2" />
    <path
       style="fill:none;stroke:#000000;stroke-linecap:round"
       d="M 410.6025,174.352 V 150.5"
       id="path11713-9" />
    <path
       style="fill:none;stroke:#000000;stroke-linecap:round"
       d="M 383.9005,174.352 V 150.5"
       id="path11715-3" />
    <path
       style="fill:none;stroke:#000000;stroke-linecap:round"
       d="M 370.5495,174.352 V 150.5"
       id="path11717-1" />
    <path
       style="fill:none;stroke:#000000;stroke-linecap:round"
       d="M 303.7965,174.352 V 150.5"
       id="path11719-3" />
    <path
       style="fill:none;stroke:#000000;stroke-linecap:round"
       d="M 250.3935,174.352 V 150.5"
       id="path11721-9" />
    <path
       style="fill:none;stroke:#000000;stroke-linecap:round"
       d="M 210.3415,174.352 V 150.5"
       id="path11723-6" />
    <path
       style="fill:none;stroke:#000000;stroke-width:0.631;stroke-linecap:round"
       d="m 190.3155,174.68478 h 413.872"
       id="path11725-4" />
    <path
       style="fill:none;stroke:#000000;stroke-width:0.631;stroke-linecap:round"
       d="M 604.1875,150.41 H 190.3155"
       id="path11727-3" />
    <path
       style="fill:none;stroke:#000000;stroke-width:0.631;stroke-linecap:round"
       d="m 190.3155,150.41 v 24.031"
       id="path11729-3" />
    <path
       style="fill:none;stroke:#000000;stroke-width:0.631;stroke-linecap:round"
       d="m 604.1875,150.41 v 24.031"
       id="path11731-2" />
    <path
       style="fill:#b3b3b3;fill-opacity:0;stroke:#00ff00;stroke-width:0.377953;stroke-opacity:0"
       d="m 190.30432,150.49585 v 24.17589 l 413.83431,0.0431 0.12928,-24.34827 z"
       id="path12455-2" />
    <path
       id="path12511-5"
       style="fill:#cccccc;fill-opacity:1;stroke:#00ff00;stroke-width:0.377953;stroke-opacity:0"
       d="m 197.00586,200.47266 -6.59375,0.002 -0.043,24.19727 h 6.54883 z" />
    <path
       style="fill:none;stroke:#000000;stroke-linecap:round"
       d="M 196.9905,224.352 V 200.5"
       id="path11701-9" />
    <path
       style="fill:none;stroke:#000000;stroke-linecap:round"
       d="M 584.1615,224.352 V 200.5"
       id="path11705-6" />
    <path
       style="fill:none;stroke:#000000;stroke-linecap:round"
       d="M 544.1095,224.352 V 200.5"
       id="path11707-2" />
    <path
       style="fill:none;stroke:#000000;stroke-linecap:round"
       d="M 490.7065,224.352 V 200.5"
       id="path11709-0" />
    <path
       style="fill:none;stroke:#000000;stroke-linecap:round"
       d="M 423.9525,224.352 V 200.5"
       id="path11711-21" />
    <path
       style="fill:none;stroke:#000000;stroke-linecap:round"
       d="M 410.6025,224.352 V 200.5"
       id="path11713-95" />
    <path
       style="fill:none;stroke:#000000;stroke-linecap:round"
       d="M 383.9005,224.352 V 200.5"
       id="path11715-39" />
    <path
       style="fill:none;stroke:#000000;stroke-linecap:round"
       d="M 370.5495,224.352 V 200.5"
       id="path11717-2" />
    <path
       style="fill:none;stroke:#000000;stroke-linecap:round"
       d="M 303.7965,224.352 V 200.5"
       id="path11719-2" />
    <path
       style="fill:none;stroke:#000000;stroke-linecap:round"
       d="M 250.3935,224.352 V 200.5"
       id="path11721-2" />
    <path
       style="fill:none;stroke:#000000;stroke-linecap:round"
       d="M 210.3415,224.352 V 200.5"
       id="path11723-9" />
    <path
       style="fill:none;stroke:#000000;stroke-width:0.631;stroke-linecap:round"
       d="m 190.3155,224.68478 h 413.872"
       id="path11725-8" />
    <path
       style="fill:none;stroke:#000000;stroke-width:0.631;stroke-linecap:round"
       d="M 604.1875,200.41 H 190.3155"
       id="path11727-4" />
    <path
       style="fill:none;stroke:#000000;stroke-width:0.631;stroke-linecap:round"
       d="m 190.3155,200.41 v 24.031"
       id="path11729-8" />
    <path
       style="fill:none;stroke:#000000;stroke-width:0.631;stroke-linecap:round"
       d="m 604.1875,200.41 v 24.031"
       id="path11731-0" />
    <path
       style="fill:#b3b3b3;fill-opacity:0;stroke:#00ff00;stroke-width:0.377953;stroke-opacity:0"
       d="m 190.30432,200.49585 v 24.17589 l 413.83431,0.0431 0.12928,-24.34827 z"
       id="path12455-3" />
    <path
       id="path12511-1"
       style="fill:#cccccc;fill-opacity:1;stroke:#00ff00;stroke-width:0.377953;stroke-opacity:0"
       d="m 197.00586,250.47266 -6.59375,0.002 -0.043,24.19727 h 6.54883 z" />
    <path
       id="path12682-5"
       style="fill:#cccccc;fill-opacity:1;stroke:#00ff00;stroke-width:0.377953;stroke-opacity:0"
       d="m 597.45508,250.24023 0.20117,24.32422 h 6.76172 l -0.0215,-24.32617 z" />
    <path
       style="fill:none;stroke:#000000;stroke-linecap:round"
       d="M 196.9905,274.352 V 250.5"
       id="path11701-0" />
    <path
       style="fill:none;stroke:#000000;stroke-linecap:round"
       d="M 597.5125,274.352 V 250.5"
       id="path11703-1" />
    <path
       style="fill:none;stroke:#000000;stroke-linecap:round"
       d="M 584.1615,274.352 V 250.5"
       id="path11705-2" />
    <path
       style="fill:none;stroke:#000000;stroke-linecap:round"
       d="M 544.1095,274.352 V 250.5"
       id="path11707-4" />
    <path
       style="fill:none;stroke:#000000;stroke-linecap:round"
       d="M 490.7065,274.352 V 250.5"
       id="path11709-5" />
    <path
       style="fill:none;stroke:#000000;stroke-linecap:round"
       d="M 423.9525,274.352 V 250.5"
       id="path11711-0" />
    <path
       style="fill:none;stroke:#000000;stroke-linecap:round"
       d="M 410.6025,274.352 V 250.5"
       id="path11713-8" />
    <path
       style="fill:none;stroke:#000000;stroke-linecap:round"
       d="M 383.9005,274.352 V 250.5"
       id="path11715-8" />
    <path
       style="fill:none;stroke:#000000;stroke-linecap:round"
       d="M 370.5495,274.352 V 250.5"
       id="path11717-6" />
    <path
       style="fill:none;stroke:#000000;stroke-linecap:round"
       d="M 303.7965,274.352 V 250.5"
       id="path11719-1" />
    <path
       style="fill:none;stroke:#000000;stroke-linecap:round"
       d="M 250.3935,274.352 V 250.5"
       id="path11721-1" />
    <path
       style="fill:none;stroke:#000000;stroke-linecap:round"
       d="M 210.3415,274.352 V 250.5"
       id="path11723-1" />
    <path
       style="fill:none;stroke:#000000;stroke-width:0.631;stroke-linecap:round"
       d="m 190.3155,274.68478 h 413.872"
       id="path11725-0" />
    <path
       style="fill:none;stroke:#000000;stroke-width:0.631;stroke-linecap:round"
       d="M 604.1875,250.41 H 190.3155"
       id="path11727-0" />
    <path
       style="fill:none;stroke:#000000;stroke-width:0.631;stroke-linecap:round"
       d="m 190.3155,250.41 v 24.031"
       id="path11729-83" />
    <path
       style="fill:none;stroke:#000000;stroke-width:0.631;stroke-linecap:round"
       d="m 604.1875,250.41 v 24.031"
       id="path11731-7" />
    <path
       style="fill:#b3b3b3;fill-opacity:0;stroke:#00ff00;stroke-width:0.377953;stroke-opacity:0"
       d="m 190.30432,250.49585 v 24.17589 l 413.83431,0.0431 0.12928,-24.34827 z"
       id="path12455-32" />
  </g>
  <g
     id="g11739" />
</svg>
