<?xml version="1.0" encoding="UTF-8" standalone="no"?>
<svg
   viewBox="145 180 500 20"
   width="300"
   height="180"
   version="1.1"
   id="svg14031"
   sodipodi:docname="B7.svg"
   inkscape:version="1.2.2 (732a01da63, 2022-12-09)"
   xmlns:inkscape="http://www.inkscape.org/namespaces/inkscape"
   xmlns:sodipodi="http://sodipodi.sourceforge.net/DTD/sodipodi-0.dtd"
   xmlns="http://www.w3.org/2000/svg"
   xmlns:svg="http://www.w3.org/2000/svg">
  <sodipodi:namedview
     id="namedview14033"
     pagecolor="#ffffff"
     bordercolor="#000000"
     borderopacity="0.25"
     inkscape:showpageshadow="2"
     inkscape:pageopacity="0.0"
     inkscape:pagecheckerboard="0"
     inkscape:deskcolor="#d1d1d1"
     showgrid="false"
     inkscape:zoom="2.0510462"
     inkscape:cx="421.24843"
     inkscape:cy="188.44042"
     inkscape:window-width="2400"
     inkscape:window-height="1271"
     inkscape:window-x="2391"
     inkscape:window-y="72"
     inkscape:window-maximized="1"
     inkscape:current-layer="g14027" />
  <desc
     id="desc13332">MP_7.DXF - scale = 0.176619, origin = (0.000000, 0.000000), method = auto</desc>
  <defs
     id="defs13347">
    <marker
       id="DistanceX"
       orient="auto"
       refX="0.0"
       refY="0.0"
       style="overflow:visible">
      <path
         d="M 3,-3 L -3,3 M 0,-5 L  0,5"
         style="stroke:#000000; stroke-width:0.5"
         id="path13334" />
    </marker>
    <pattern
       id="Hatch"
       patternUnits="userSpaceOnUse"
       width="8"
       height="8"
       x="0"
       y="0">
      <path
         d="M8 4 l-4,4"
         stroke="#000000"
         stroke-width="0.25"
         linecap="square"
         id="path13337" />
      <path
         d="M6 2 l-4,4"
         stroke="#000000"
         stroke-width="0.25"
         linecap="square"
         id="path13339" />
      <path
         d="M4 0 l-4,4"
         stroke="#000000"
         stroke-width="0.25"
         linecap="square"
         id="path13341" />
    </pattern>
    <symbol
       id="*Model_Space" />
    <symbol
       id="*Paper_Space" />
    <symbol
       id="*Paper_Space0" />
  </defs>
  <g
     inkscape:groupmode="layer"
     inkscape:label="0"
     id="g14027">
    <g
       id="b7-s1"
       style="fill:#008080">
      <path
         id="path14252"
         style="fill:#008080;stroke:#00ff00;stroke-width:0.377953;stroke-opacity:0"
         d="M 236.89062 100.43945 L 196.92578 100.4375 L 197.0293 124.37305 L 236.89062 124.375 L 236.89062 100.43945 z " />
      <path
         id="path14252-2"
         style="fill:#008080;stroke:#00ff00;stroke-width:0.377953;stroke-opacity:0"
         d="m 236.89062,150.43945 -39.96484,-0.002 0.10352,23.93555 39.86132,0.002 z" />
      <path
         id="path14252-7"
         style="fill:#008080;stroke:#00ff00;stroke-width:0.377953;stroke-opacity:0"
         d="m 236.89062,200.43945 -39.96484,-0.002 0.10352,23.93555 39.86132,0.002 z" />
      <path
         id="path14252-75"
         style="fill:#008080;stroke:#00ff00;stroke-width:0.377953;stroke-opacity:0"
         d="m 236.89062,250.43945 -39.96484,-0.002 0.10352,23.93555 39.86132,0.002 z" />
    </g>
    <g
       id="b7-s2"
       style="fill:#ff9955">
      <path
         id="path14255"
         style="fill:#ff9955;stroke:#00ff00;stroke-width:0.377953;stroke-opacity:0"
         d="M 254.56445 100.43945 L 236.89062 100.43945 L 236.89062 124.375 L 254.36133 124.375 L 254.56445 100.43945 z " />
      <path
         id="path14255-2"
         style="fill:#ff9955;stroke:#00ff00;stroke-width:0.377953;stroke-opacity:0"
         d="M 254.56445,150.43945 H 236.89062 V 174.375 h 17.47071 z" />
      <path
         id="path14255-8"
         style="fill:#ff9955;stroke:#00ff00;stroke-width:0.377953;stroke-opacity:0"
         d="M 254.56445,200.43945 H 236.89062 V 224.375 h 17.47071 z" />
      <path
         id="path14255-85"
         style="fill:#ff9955;stroke:#00ff00;stroke-width:0.377953;stroke-opacity:0"
         d="M 254.56445,250.43945 H 236.89062 V 274.375 h 17.47071 z" />
    </g>
    <g
       id="b7-s3"
       style="fill:#008080">
      <path
         id="path14258"
         style="fill:#008080;stroke:#00ff00;stroke-width:0.377953;stroke-opacity:0"
         d="M 271.69531 100.43945 L 254.56445 100.43945 L 254.36133 124.375 L 271.71875 124.375 L 271.69531 100.43945 z " />
      <path
         id="path14258-0"
         style="fill:#008080;stroke:#00ff00;stroke-width:0.377953;stroke-opacity:0"
         d="m 271.69531,150.43945 h -17.13086 l -0.20312,23.93555 h 17.35742 z" />
      <path
         id="path14258-8"
         style="fill:#008080;stroke:#00ff00;stroke-width:0.377953;stroke-opacity:0"
         d="m 271.69531,200.43945 h -17.13086 l -0.20312,23.93555 h 17.35742 z" />
      <path
         id="path14258-5"
         style="fill:#008080;stroke:#00ff00;stroke-width:0.377953;stroke-opacity:0"
         d="m 271.69531,250.43945 h -17.13086 l -0.20312,23.93555 h 17.35742 z" />
    </g>
    <g
       id="b7-s4"
       style="fill:#ff9955">
      <path
         id="path14261"
         style="fill:#ff9955;stroke:#00ff00;stroke-width:0.377953;stroke-opacity:0"
         d="M 289.20898 100.43945 L 271.69531 100.43945 L 271.71875 124.375 L 289.18359 124.375 L 289.20898 100.43945 z " />
      <path
         id="path14261-2"
         style="fill:#ff9955;stroke:#00ff00;stroke-width:0.377953;stroke-opacity:0"
         d="m 289.20898,150.43945 h -17.51367 l 0.0234,23.93555 h 17.46484 z" />
      <path
         id="path14261-6"
         style="fill:#ff9955;stroke:#00ff00;stroke-width:0.377953;stroke-opacity:0"
         d="m 289.20898,200.43945 h -17.51367 l 0.0234,23.93555 h 17.46484 z" />
      <path
         id="path14261-8"
         style="fill:#ff9955;stroke:#00ff00;stroke-width:0.377953;stroke-opacity:0"
         d="m 289.20898,250.43945 h -17.51367 l 0.0234,23.93555 h 17.46484 z" />
    </g>
    <g
       id="b7-s5"
       style="fill:#008080">
      <path
         id="path14264"
         style="fill:#008080;stroke:#00ff00;stroke-width:0.377953;stroke-opacity:0"
         d="M 306.45508 100.43945 L 289.20898 100.43945 L 289.18359 124.375 L 306.63086 124.375 L 306.45508 100.43945 z " />
      <path
         id="path14264-7"
         style="fill:#008080;stroke:#00ff00;stroke-width:0.377953;stroke-opacity:0"
         d="m 306.45508,150.43945 h -17.2461 l -0.0254,23.93555 h 17.44727 z" />
      <path
         id="path14264-1"
         style="fill:#008080;stroke:#00ff00;stroke-width:0.377953;stroke-opacity:0"
         d="m 306.45508,200.43945 h -17.2461 l -0.0254,23.93555 h 17.44727 z" />
      <path
         id="path14264-8"
         style="fill:#008080;stroke:#00ff00;stroke-width:0.377953;stroke-opacity:0"
         d="m 306.45508,250.43945 h -17.2461 l -0.0254,23.93555 h 17.44727 z" />
    </g>
    <g
       id="b7-s6"
       style="fill:#ff9955">
      <path
         id="path14267"
         style="fill:#ff9955;stroke:#00ff00;stroke-width:0.377953;stroke-opacity:0"
         d="M 323.58594 100.43945 L 306.45508 100.43945 L 306.63086 124.375 L 324.06055 124.375 L 323.58594 100.43945 z " />
      <path
         id="path14267-2"
         style="fill:#ff9955;stroke:#00ff00;stroke-width:0.377953;stroke-opacity:0"
         d="m 323.58594,150.43945 h -17.13086 l 0.17578,23.93555 h 17.42969 z" />
      <path
         id="path14267-9"
         style="fill:#ff9955;stroke:#00ff00;stroke-width:0.377953;stroke-opacity:0"
         d="m 323.58594,200.43945 h -17.13086 l 0.17578,23.93555 h 17.42969 z" />
      <path
         id="path14267-8"
         style="fill:#ff9955;stroke:#00ff00;stroke-width:0.377953;stroke-opacity:0"
         d="m 323.58594,250.43945 h -17.13086 l 0.17578,23.93555 h 17.42969 z" />
    </g>
    <g
       id="b7-s7"
       style="fill:#008080">
      <path
         id="path14270"
         style="fill:#008080;stroke:#00ff00;stroke-width:0.377953;stroke-opacity:0"
         d="M 366.51367 100.44141 L 323.58594 100.43945 L 324.06055 124.375 L 366.46289 124.37695 L 366.51367 100.44141 z " />
      <path
         id="path14270-5"
         style="fill:#008080;stroke:#00ff00;stroke-width:0.377953;stroke-opacity:0"
         d="m 366.51367,150.44141 -42.92773,-0.002 0.47461,23.93555 42.40234,0.002 z" />
      <path
         id="path14270-2"
         style="fill:#008080;stroke:#00ff00;stroke-width:0.377953;stroke-opacity:0"
         d="m 366.51367,200.44141 -42.92773,-0.002 0.47461,23.93555 42.40234,0.002 z" />
      <path
         id="path14270-4"
         style="fill:#008080;stroke:#00ff00;stroke-width:0.377953;stroke-opacity:0"
         d="m 366.51367,250.44141 -42.92773,-0.002 0.47461,23.93555 42.40234,0.002 z" />
    </g>
    <g
       id="b7-s8"
       style="fill:#ff9955">
      <path
         id="path14273"
         style="fill:#ff9955;stroke:#00ff00;stroke-width:0.377953;stroke-opacity:0"
         d="M 380.00586 100.44141 L 366.51367 100.44141 L 366.46289 124.37695 L 379.9043 124.37695 L 380.00586 100.44141 z " />
      <path
         id="path14273-0"
         style="fill:#ff9955;stroke:#00ff00;stroke-width:0.377953;stroke-opacity:0"
         d="m 380.00586,150.44141 h -13.49219 l -0.0508,23.93554 h 13.44141 z" />
      <path
         id="path14273-3"
         style="fill:#ff9955;stroke:#00ff00;stroke-width:0.377953;stroke-opacity:0"
         d="m 380.00586,200.44141 h -13.49219 l -0.0508,23.93554 h 13.44141 z" />
      <path
         id="path14273-37"
         style="fill:#ff9955;stroke:#00ff00;stroke-width:0.377953;stroke-opacity:0"
         d="m 380.00586,250.44141 h -13.49219 l -0.0508,23.93554 h 13.44141 z" />
    </g>
    <g
       id="b7-s9"
       style="fill:#ffdd55">
      <path
         id="path14276"
         style="fill:#ffdd55;stroke:#00ff00;stroke-width:0.377953;stroke-opacity:0"
         d="M 406.55273 100.44336 L 380.00586 100.44141 L 379.9043 124.37695 L 406.73047 124.37891 L 406.55273 100.44336 z " />
      <path
         id="path14276-9"
         style="fill:#ffdd55;stroke:#00ff00;stroke-width:0.377953;stroke-opacity:0"
         d="m 406.55273,150.44336 -26.54687,-0.002 -0.10156,23.93554 26.82617,0.002 z" />
      <path
         id="path14276-6"
         style="fill:#ffdd55;stroke:#00ff00;stroke-width:0.377953;stroke-opacity:0"
         d="m 406.55273,200.44336 -26.54687,-0.002 -0.10156,23.93554 26.82617,0.002 z" />
      <path
         id="path14276-8"
         style="fill:#ffdd55;stroke:#00ff00;stroke-width:0.377953;stroke-opacity:0"
         d="m 406.55273,250.44336 -26.54687,-0.002 -0.10156,23.93554 26.82617,0.002 z" />
    </g>
    <g
       id="g14932"
       style="fill:#ff9955">
      <path
         id="path14279"
         style="fill:#ff9955;stroke:#00ff00;stroke-width:0.377953;stroke-opacity:0"
         d="M 419.9375 100.44336 L 406.55273 100.44336 L 406.73047 124.37891 L 419.9375 124.37891 L 419.9375 100.44336 z " />
      <path
         id="path14279-2"
         style="fill:#ff9955;stroke:#00ff00;stroke-width:0.377953;stroke-opacity:0"
         d="m 419.9375,150.44336 h -13.38477 l 0.17774,23.93555 h 13.20703 z" />
      <path
         id="path14279-9"
         style="fill:#ff9955;stroke:#00ff00;stroke-width:0.377953;stroke-opacity:0"
         d="m 419.9375,200.44336 h -13.38477 l 0.17774,23.93555 h 13.20703 z" />
      <path
         id="path14279-5"
         style="fill:#ff9955;stroke:#00ff00;stroke-width:0.377953;stroke-opacity:0"
         d="m 419.9375,250.44336 h -13.38477 l 0.17774,23.93555 h 13.20703 z" />
    </g>
    <g
       id="b7-s11"
       style="fill:#008080">
      <path
         id="path14282"
         style="fill:#008080;stroke:#00ff00;stroke-width:0.377953;stroke-opacity:0"
         d="M 469.10156 100.44531 L 419.9375 100.44336 L 419.9375 124.37891 L 469.42969 124.38086 L 469.10156 100.44531 z " />
      <path
         id="path14282-1"
         style="fill:#008080;stroke:#00ff00;stroke-width:0.377953;stroke-opacity:0"
         d="m 469.10156,150.44531 -49.16406,-0.002 v 23.93555 l 49.49219,0.002 z" />
      <path
         id="path14282-0"
         style="fill:#008080;stroke:#00ff00;stroke-width:0.377953;stroke-opacity:0"
         d="m 469.10156,200.44531 -49.16406,-0.002 v 23.93555 l 49.49219,0.002 z" />
      <path
         id="path14282-6"
         style="fill:#008080;stroke:#00ff00;stroke-width:0.377953;stroke-opacity:0"
         d="m 469.10156,250.44531 -49.16406,-0.002 v 23.93555 l 49.49219,0.002 z" />
    </g>
    <g
       id="b7-s12"
       style="fill:#ff9955">
      <path
         id="path14285"
         style="fill:#ff9955;stroke:#00ff00;stroke-width:0.377953;stroke-opacity:0"
         d="M 486.68359 100.44531 L 469.10156 100.44531 L 469.42969 124.38086 L 486.81055 124.38281 L 486.68359 100.44531 z " />
      <path
         id="path14285-2"
         style="fill:#ff9955;stroke:#00ff00;stroke-width:0.377953;stroke-opacity:0"
         d="m 486.68359,150.44531 h -17.58203 l 0.32813,23.93555 17.38086,0.002 z" />
      <path
         id="path14285-4"
         style="fill:#ff9955;stroke:#00ff00;stroke-width:0.377953;stroke-opacity:0"
         d="m 486.68359,200.44531 h -17.58203 l 0.32813,23.93555 17.38086,0.002 z" />
      <path
         id="path14285-0"
         style="fill:#ff9955;stroke:#00ff00;stroke-width:0.377953;stroke-opacity:0"
         d="m 486.68359,250.44531 h -17.58203 l 0.32813,23.93555 17.38086,0.002 z" />
    </g>
    <g
       id="b7-s13"
       style="fill:#008080">
      <path
         id="path14288"
         style="fill:#008080;stroke:#00ff00;stroke-width:0.377953;stroke-opacity:0"
         d="M 503.98438 100.44531 L 486.68359 100.44531 L 486.81055 124.38281 L 504.25977 124.38281 L 503.98438 100.44531 z " />
      <path
         id="path14288-7"
         style="fill:#008080;stroke:#00ff00;stroke-width:0.377953;stroke-opacity:0"
         d="m 503.98438,150.44531 h -17.30079 l 0.12696,23.9375 h 17.44922 z" />
      <path
         id="path14288-0"
         style="fill:#008080;stroke:#00ff00;stroke-width:0.377953;stroke-opacity:0"
         d="m 503.98438,200.44531 h -17.30079 l 0.12696,23.9375 h 17.44922 z" />
      <path
         id="path14288-4"
         style="fill:#008080;stroke:#00ff00;stroke-width:0.377953;stroke-opacity:0"
         d="m 503.98438,250.44531 h -17.30079 l 0.12696,23.9375 h 17.44922 z" />
    </g>
    <g
       id="b7-s14"
       style="fill:#ff9955">
      <path
         id="path14291"
         style="fill:#ff9955;stroke:#00ff00;stroke-width:0.377953;stroke-opacity:0"
         d="M 521.41211 100.44727 L 503.98438 100.44531 L 504.25977 124.38281 L 521.60938 124.38477 L 521.41211 100.44727 z " />
      <path
         id="path14291-7"
         style="fill:#ff9955;stroke:#00ff00;stroke-width:0.377953;stroke-opacity:0"
         d="m 521.41211,150.44727 -17.42773,-0.002 0.27539,23.9375 17.34961,0.002 z" />
      <path
         id="path14291-6"
         style="fill:#ff9955;stroke:#00ff00;stroke-width:0.377953;stroke-opacity:0"
         d="m 521.41211,200.44727 -17.42773,-0.002 0.27539,23.9375 17.34961,0.002 z" />
      <path
         id="path14291-5"
         style="fill:#ff9955;stroke:#00ff00;stroke-width:0.377953;stroke-opacity:0"
         d="m 521.41211,250.44727 -17.42773,-0.002 0.27539,23.9375 17.34961,0.002 z" />
    </g>
    <g
       id="b7-s15"
       style="fill:#008080">
      <path
         id="path14294"
         style="fill:#008080;stroke:#00ff00;stroke-width:0.377953;stroke-opacity:0"
         d="M 538.7832 100.44727 L 521.41211 100.44727 L 521.60938 124.38477 L 538.80859 124.38477 L 538.7832 100.44727 z " />
      <path
         id="path14294-9"
         style="fill:#008080;stroke:#00ff00;stroke-width:0.377953;stroke-opacity:0"
         d="m 538.7832,150.44727 h -17.37109 l 0.19727,23.9375 h 17.19921 z" />
      <path
         id="path14294-1"
         style="fill:#008080;stroke:#00ff00;stroke-width:0.377953;stroke-opacity:0"
         d="m 538.7832,200.44727 h -17.37109 l 0.19727,23.9375 h 17.19921 z" />
      <path
         id="path14294-4"
         style="fill:#008080;stroke:#00ff00;stroke-width:0.377953;stroke-opacity:0"
         d="m 538.7832,250.44727 h -17.37109 l 0.19727,23.9375 h 17.19921 z" />
    </g>
    <g
       id="b7-s16"
       style="fill:#ff9955">
      <path
         id="path14297"
         style="fill:#ff9955;stroke:#00ff00;stroke-width:0.377953;stroke-opacity:0"
         d="M 556.12305 100.44922 L 538.7832 100.44727 L 538.80859 124.38477 L 556.14648 124.38672 L 556.12305 100.44922 z " />
      <path
         id="path14297-4"
         style="fill:#ff9955;stroke:#00ff00;stroke-width:0.377953;stroke-opacity:0"
         d="m 556.12305,150.44922 -17.33985,-0.002 0.0254,23.9375 17.33789,0.002 z" />
      <path
         id="path14297-9"
         style="fill:#ff9955;stroke:#00ff00;stroke-width:0.377953;stroke-opacity:0"
         d="m 556.12305,200.44922 -17.33985,-0.002 0.0254,23.9375 17.33789,0.002 z" />
      <path
         id="path14297-8"
         style="fill:#ff9955;stroke:#00ff00;stroke-width:0.377953;stroke-opacity:0"
         d="m 556.12305,250.44922 -17.33985,-0.002 0.0254,23.9375 17.33789,0.002 z" />
    </g>
    <g
       id="b7-s17"
       style="fill:#008080">
      <path
         id="path14300"
         style="fill:#008080;stroke:#00ff00;stroke-width:0.377953;stroke-opacity:0"
         d="M 597.43359 100.45117 L 556.12305 100.44922 L 556.14648 124.38672 L 597.60352 124.38867 L 597.43359 100.45117 z " />
      <path
         id="path14300-1"
         style="fill:#008080;stroke:#00ff00;stroke-width:0.377953;stroke-opacity:0"
         d="m 597.43359,150.45117 -41.31054,-0.002 0.0234,23.9375 41.45704,0.002 z" />
      <path
         id="path14300-0"
         style="fill:#008080;stroke:#00ff00;stroke-width:0.377953;stroke-opacity:0"
         d="m 597.43359,200.45117 -41.31054,-0.002 0.0234,23.9375 41.45704,0.002 z" />
      <path
         id="path14300-5"
         style="fill:#008080;stroke:#00ff00;stroke-width:0.377953;stroke-opacity:0"
         d="m 597.43359,250.45117 -41.31054,-0.002 0.0234,23.9375 41.45704,0.002 z" />
    </g>
    <path
       id="path14214"
       style="fill:#cccccc;stroke:#00ff00;stroke-width:0.377953;stroke-opacity:0"
       d="M 196.92578 100.4375 L 190.375 100.4375 L 190.3457 124.37305 L 197.0293 124.37305 L 196.92578 100.4375 z " />
    <path
       id="path14303"
       style="fill:#cccccc;stroke:#00ff00;stroke-width:0.377953;stroke-opacity:0"
       d="M 597.43359 100.45117 L 597.60352 124.38867 L 604.11328 124.38867 L 604.11328 100.45117 L 597.43359 100.45117 z " />
    <path
       style="fill:none;stroke:#000000;stroke-linecap:round"
       d="M 196.9905,124.352 V 100.5"
       id="path13979" />
    <path
       style="fill:none;stroke:#000000;stroke-linecap:round"
       d="M 597.5125,124.352 V 100.5"
       id="path13981" />
    <path
       style="fill:none;stroke:#000000;stroke-linecap:round"
       d="M 237.0435,124.352 V 100.5"
       id="path13983" />
    <path
       style="fill:none;stroke:#000000;stroke-linecap:round"
       d="M 254.3985,124.352 V 100.5"
       id="path13985" />
    <path
       style="fill:none;stroke:#000000;stroke-linecap:round"
       d="M 271.7545,124.352 V 100.5"
       id="path13987" />
    <path
       style="fill:none;stroke:#000000;stroke-linecap:round"
       d="M 289.1105,124.352 V 100.5"
       id="path13989" />
    <path
       style="fill:none;stroke:#000000;stroke-linecap:round"
       d="M 306.4665,124.352 V 100.5"
       id="path13991" />
    <path
       style="fill:none;stroke:#000000;stroke-linecap:round"
       d="M 366.5455,124.352 V 100.5"
       id="path13993" />
    <path
       style="fill:none;stroke:#000000;stroke-linecap:round"
       d="M 379.8955,124.352 V 100.5"
       id="path13995" />
    <path
       style="fill:none;stroke:#000000;stroke-linecap:round"
       d="M 406.5975,124.352 V 100.5"
       id="path13997" />
    <path
       style="fill:none;stroke:#000000;stroke-linecap:round"
       d="M 419.9485,124.352 V 100.5"
       id="path13999" />
    <path
       style="fill:none;stroke:#000000;stroke-linecap:round"
       d="M 469.3455,124.352 V 100.5"
       id="path14001" />
    <path
       style="fill:none;stroke:#000000;stroke-linecap:round"
       d="M 486.7015,124.352 V 100.5"
       id="path14003" />
    <path
       style="fill:none;stroke:#000000;stroke-linecap:round"
       d="M 504.0575,124.352 V 100.5"
       id="path14005" />
    <path
       style="fill:none;stroke:#000000;stroke-linecap:round"
       d="M 521.4135,124.352 V 100.5"
       id="path14007" />
    <path
       style="fill:none;stroke:#000000;stroke-linecap:round"
       d="M 538.7695,124.352 V 100.5"
       id="path14009" />
    <path
       style="fill:none;stroke:#000000;stroke-linecap:round"
       d="M 556.1255,124.352 V 100.5"
       id="path14011" />
    <path
       style="fill:none;stroke:#000000;stroke-linecap:round"
       d="M 323.8225,124.352 V 100.5"
       id="path14013" />
    <path
       style="fill:none;stroke:#000000;stroke-width:0.631;stroke-linecap:round"
       d="m 190.3155,124.442 h 413.873"
       id="path14015" />
    <path
       style="fill:none;stroke:#000000;stroke-width:0.631;stroke-linecap:round"
       d="M 604.1885,100.41 H 190.3155"
       id="path14017" />
    <path
       style="fill:none;stroke:#000000;stroke-width:0.631;stroke-linecap:round"
       d="m 190.3155,100.41 v 24.032"
       id="path14019" />
    <path
       style="fill:none;stroke:#000000;stroke-width:0.631;stroke-linecap:round"
       d="m 604.1885,100.41 v 24.032"
       id="path14021" />
    <path
       id="path14214-4"
       style="fill:#cccccc;stroke:#00ff00;stroke-width:0.377953;stroke-opacity:0"
       d="M 196.92578,150.4375 H 190.375 l -0.0293,23.93555 h 6.6836 z" />
    <path
       id="path14303-7"
       style="fill:#cccccc;stroke:#00ff00;stroke-width:0.377953;stroke-opacity:0"
       d="m 597.43359,150.45117 0.16993,23.9375 h 6.50976 v -23.9375 z" />
    <path
       style="fill:none;stroke:#000000;stroke-linecap:round"
       d="M 196.9905,174.352 V 150.5"
       id="path13979-6" />
    <path
       style="fill:none;stroke:#000000;stroke-linecap:round"
       d="M 597.5125,174.352 V 150.5"
       id="path13981-2" />
    <path
       style="fill:none;stroke:#000000;stroke-linecap:round"
       d="M 237.0435,174.352 V 150.5"
       id="path13983-3" />
    <path
       style="fill:none;stroke:#000000;stroke-linecap:round"
       d="M 254.3985,174.352 V 150.5"
       id="path13985-3" />
    <path
       style="fill:none;stroke:#000000;stroke-linecap:round"
       d="M 271.7545,174.352 V 150.5"
       id="path13987-4" />
    <path
       style="fill:none;stroke:#000000;stroke-linecap:round"
       d="M 289.1105,174.352 V 150.5"
       id="path13989-6" />
    <path
       style="fill:none;stroke:#000000;stroke-linecap:round"
       d="M 306.4665,174.352 V 150.5"
       id="path13991-5" />
    <path
       style="fill:none;stroke:#000000;stroke-linecap:round"
       d="M 366.5455,174.352 V 150.5"
       id="path13993-4" />
    <path
       style="fill:none;stroke:#000000;stroke-linecap:round"
       d="M 379.8955,174.352 V 150.5"
       id="path13995-8" />
    <path
       style="fill:none;stroke:#000000;stroke-linecap:round"
       d="M 406.5975,174.352 V 150.5"
       id="path13997-2" />
    <path
       style="fill:none;stroke:#000000;stroke-linecap:round"
       d="M 419.9485,174.352 V 150.5"
       id="path13999-0" />
    <path
       style="fill:none;stroke:#000000;stroke-linecap:round"
       d="M 469.3455,174.352 V 150.5"
       id="path14001-1" />
    <path
       style="fill:none;stroke:#000000;stroke-linecap:round"
       d="M 486.7015,174.352 V 150.5"
       id="path14003-8" />
    <path
       style="fill:none;stroke:#000000;stroke-linecap:round"
       d="M 504.0575,174.352 V 150.5"
       id="path14005-6" />
    <path
       style="fill:none;stroke:#000000;stroke-linecap:round"
       d="M 521.4135,174.352 V 150.5"
       id="path14007-4" />
    <path
       style="fill:none;stroke:#000000;stroke-linecap:round"
       d="M 538.7695,174.352 V 150.5"
       id="path14009-4" />
    <path
       style="fill:none;stroke:#000000;stroke-linecap:round"
       d="M 556.1255,174.352 V 150.5"
       id="path14011-4" />
    <path
       style="fill:none;stroke:#000000;stroke-linecap:round"
       d="M 323.8225,174.352 V 150.5"
       id="path14013-5" />
    <path
       style="fill:none;stroke:#000000;stroke-width:0.631;stroke-linecap:round"
       d="m 190.3155,174.442 h 413.873"
       id="path14015-6" />
    <path
       style="fill:none;stroke:#000000;stroke-width:0.631;stroke-linecap:round"
       d="M 604.1885,150.41 H 190.3155"
       id="path14017-0" />
    <path
       style="fill:none;stroke:#000000;stroke-width:0.631;stroke-linecap:round"
       d="m 190.3155,150.41 v 24.032"
       id="path14019-9" />
    <path
       style="fill:none;stroke:#000000;stroke-width:0.631;stroke-linecap:round"
       d="m 604.1885,150.41 v 24.032"
       id="path14021-7" />
    <path
       id="path14214-44"
       style="fill:#cccccc;stroke:#00ff00;stroke-width:0.377953;stroke-opacity:0"
       d="M 196.92578,200.4375 H 190.375 l -0.0293,23.93555 h 6.6836 z" />
    <path
       id="path14303-6"
       style="fill:#cccccc;stroke:#00ff00;stroke-width:0.377953;stroke-opacity:0"
       d="m 597.43359,200.45117 0.16993,23.9375 h 6.50976 v -23.9375 z" />
    <path
       style="fill:none;stroke:#000000;stroke-linecap:round"
       d="M 196.9905,224.352 V 200.5"
       id="path13979-5" />
    <path
       style="fill:none;stroke:#000000;stroke-linecap:round"
       d="M 597.5125,224.352 V 200.5"
       id="path13981-3" />
    <path
       style="fill:none;stroke:#000000;stroke-linecap:round"
       d="M 237.0435,224.352 V 200.5"
       id="path13983-7" />
    <path
       style="fill:none;stroke:#000000;stroke-linecap:round"
       d="M 254.3985,224.352 V 200.5"
       id="path13985-0" />
    <path
       style="fill:none;stroke:#000000;stroke-linecap:round"
       d="M 271.7545,224.352 V 200.5"
       id="path13987-9" />
    <path
       style="fill:none;stroke:#000000;stroke-linecap:round"
       d="M 289.1105,224.352 V 200.5"
       id="path13989-5" />
    <path
       style="fill:none;stroke:#000000;stroke-linecap:round"
       d="M 306.4665,224.352 V 200.5"
       id="path13991-6" />
    <path
       style="fill:none;stroke:#000000;stroke-linecap:round"
       d="M 366.5455,224.352 V 200.5"
       id="path13993-3" />
    <path
       style="fill:none;stroke:#000000;stroke-linecap:round"
       d="M 379.8955,224.352 V 200.5"
       id="path13995-7" />
    <path
       style="fill:none;stroke:#000000;stroke-linecap:round"
       d="M 406.5975,224.352 V 200.5"
       id="path13997-0" />
    <path
       style="fill:none;stroke:#000000;stroke-linecap:round"
       d="M 419.9485,224.352 V 200.5"
       id="path13999-6" />
    <path
       style="fill:none;stroke:#000000;stroke-linecap:round"
       d="M 469.3455,224.352 V 200.5"
       id="path14001-9" />
    <path
       style="fill:none;stroke:#000000;stroke-linecap:round"
       d="M 486.7015,224.352 V 200.5"
       id="path14003-6" />
    <path
       style="fill:none;stroke:#000000;stroke-linecap:round"
       d="M 504.0575,224.352 V 200.5"
       id="path14005-2" />
    <path
       style="fill:none;stroke:#000000;stroke-linecap:round"
       d="M 521.4135,224.352 V 200.5"
       id="path14007-40" />
    <path
       style="fill:none;stroke:#000000;stroke-linecap:round"
       d="M 538.7695,224.352 V 200.5"
       id="path14009-1" />
    <path
       style="fill:none;stroke:#000000;stroke-linecap:round"
       d="M 556.1255,224.352 V 200.5"
       id="path14011-5" />
    <path
       style="fill:none;stroke:#000000;stroke-linecap:round"
       d="M 323.8225,224.352 V 200.5"
       id="path14013-0" />
    <path
       style="fill:none;stroke:#000000;stroke-width:0.631;stroke-linecap:round"
       d="m 190.3155,224.442 h 413.873"
       id="path14015-9" />
    <path
       style="fill:none;stroke:#000000;stroke-width:0.631;stroke-linecap:round"
       d="M 604.1885,200.41 H 190.3155"
       id="path14017-8" />
    <path
       style="fill:none;stroke:#000000;stroke-width:0.631;stroke-linecap:round"
       d="m 190.3155,200.41 v 24.032"
       id="path14019-1" />
    <path
       style="fill:none;stroke:#000000;stroke-width:0.631;stroke-linecap:round"
       d="m 604.1885,200.41 v 24.032"
       id="path14021-8" />
    <path
       id="path14214-2"
       style="fill:#cccccc;stroke:#00ff00;stroke-width:0.377953;stroke-opacity:0"
       d="M 196.92578,250.4375 H 190.375 l -0.0293,23.93555 h 6.6836 z" />
    <path
       id="path14303-3"
       style="fill:#cccccc;stroke:#00ff00;stroke-width:0.377953;stroke-opacity:0"
       d="m 597.43359,250.45117 0.16993,23.9375 h 6.50976 v -23.9375 z" />
    <path
       style="fill:none;stroke:#000000;stroke-linecap:round"
       d="M 196.9905,274.352 V 250.5"
       id="path13979-8" />
    <path
       style="fill:none;stroke:#000000;stroke-linecap:round"
       d="M 597.5125,274.352 V 250.5"
       id="path13981-7" />
    <path
       style="fill:none;stroke:#000000;stroke-linecap:round"
       d="M 237.0435,274.352 V 250.5"
       id="path13983-4" />
    <path
       style="fill:none;stroke:#000000;stroke-linecap:round"
       d="M 254.3985,274.352 V 250.5"
       id="path13985-2" />
    <path
       style="fill:none;stroke:#000000;stroke-linecap:round"
       d="M 271.7545,274.352 V 250.5"
       id="path13987-7" />
    <path
       style="fill:none;stroke:#000000;stroke-linecap:round"
       d="M 289.1105,274.352 V 250.5"
       id="path13989-3" />
    <path
       style="fill:none;stroke:#000000;stroke-linecap:round"
       d="M 306.4665,274.352 V 250.5"
       id="path13991-69" />
    <path
       style="fill:none;stroke:#000000;stroke-linecap:round"
       d="M 366.5455,274.352 V 250.5"
       id="path13993-1" />
    <path
       style="fill:none;stroke:#000000;stroke-linecap:round"
       d="M 379.8955,274.352 V 250.5"
       id="path13995-6" />
    <path
       style="fill:none;stroke:#000000;stroke-linecap:round"
       d="M 406.5975,274.352 V 250.5"
       id="path13997-1" />
    <path
       style="fill:none;stroke:#000000;stroke-linecap:round"
       d="M 419.9485,274.352 V 250.5"
       id="path13999-5" />
    <path
       style="fill:none;stroke:#000000;stroke-linecap:round"
       d="M 469.3455,274.352 V 250.5"
       id="path14001-6" />
    <path
       style="fill:none;stroke:#000000;stroke-linecap:round"
       d="M 486.7015,274.352 V 250.5"
       id="path14003-0" />
    <path
       style="fill:none;stroke:#000000;stroke-linecap:round"
       d="M 504.0575,274.352 V 250.5"
       id="path14005-24" />
    <path
       style="fill:none;stroke:#000000;stroke-linecap:round"
       d="M 521.4135,274.352 V 250.5"
       id="path14007-5" />
    <path
       style="fill:none;stroke:#000000;stroke-linecap:round"
       d="M 538.7695,274.352 V 250.5"
       id="path14009-13" />
    <path
       style="fill:none;stroke:#000000;stroke-linecap:round"
       d="M 556.1255,274.352 V 250.5"
       id="path14011-43" />
    <path
       style="fill:none;stroke:#000000;stroke-linecap:round"
       d="M 323.8225,274.352 V 250.5"
       id="path14013-7" />
    <path
       style="fill:none;stroke:#000000;stroke-width:0.631;stroke-linecap:round"
       d="m 190.3155,274.442 h 413.873"
       id="path14015-7" />
    <path
       style="fill:none;stroke:#000000;stroke-width:0.631;stroke-linecap:round"
       d="M 604.1885,250.41 H 190.3155"
       id="path14017-1" />
    <path
       style="fill:none;stroke:#000000;stroke-width:0.631;stroke-linecap:round"
       d="m 190.3155,250.41 v 24.032"
       id="path14019-97" />
    <path
       style="fill:none;stroke:#000000;stroke-width:0.631;stroke-linecap:round"
       d="m 604.1885,250.41 v 24.032"
       id="path14021-0" />
  </g>
  <g
     inkscape:groupmode="layer"
     inkscape:label="FORMAT"
     id="g14029" />
</svg>
