<?xml version="1.0" encoding="UTF-8" standalone="no"?>
<svg
   viewBox="145 180 500 20"
   width="300"
   height="180"
   version="1.1"
   id="svg17181"
   sodipodi:docname="B9.svg"
   inkscape:version="1.2.2 (732a01da63, 2022-12-09)"
   xmlns:inkscape="http://www.inkscape.org/namespaces/inkscape"
   xmlns:sodipodi="http://sodipodi.sourceforge.net/DTD/sodipodi-0.dtd"
   xmlns="http://www.w3.org/2000/svg"
   xmlns:svg="http://www.w3.org/2000/svg">
  <sodipodi:namedview
     id="namedview17183"
     pagecolor="#ffffff"
     bordercolor="#000000"
     borderopacity="0.25"
     inkscape:showpageshadow="2"
     inkscape:pageopacity="0.0"
     inkscape:pagecheckerboard="0"
     inkscape:deskcolor="#d1d1d1"
     showgrid="false"
     inkscape:zoom="1.8796998"
     inkscape:cx="449.53986"
     inkscape:cy="251.36992"
     inkscape:window-width="2400"
     inkscape:window-height="1271"
     inkscape:window-x="2391"
     inkscape:window-y="72"
     inkscape:window-maximized="1"
     inkscape:current-layer="g17179" />
  <desc
     id="desc16490">MP_9.DXF - scale = 0.176619, origin = (0.000000, 0.000000), method = auto</desc>
  <defs
     id="defs16505">
    <marker
       id="DistanceX"
       orient="auto"
       refX="0.0"
       refY="0.0"
       style="overflow:visible">
      <path
         d="M 3,-3 L -3,3 M 0,-5 L  0,5"
         style="stroke:#000000; stroke-width:0.5"
         id="path16492" />
    </marker>
    <pattern
       id="Hatch"
       patternUnits="userSpaceOnUse"
       width="8"
       height="8"
       x="0"
       y="0">
      <path
         d="M8 4 l-4,4"
         stroke="#000000"
         stroke-width="0.25"
         linecap="square"
         id="path16495" />
      <path
         d="M6 2 l-4,4"
         stroke="#000000"
         stroke-width="0.25"
         linecap="square"
         id="path16497" />
      <path
         d="M4 0 l-4,4"
         stroke="#000000"
         stroke-width="0.25"
         linecap="square"
         id="path16499" />
    </pattern>
    <symbol
       id="*Model_Space" />
    <symbol
       id="*Paper_Space" />
    <symbol
       id="*Paper_Space0" />
  </defs>
  <g
     inkscape:groupmode="layer"
     inkscape:label="0"
     id="g17177" />
  <g
     inkscape:groupmode="layer"
     inkscape:label="FORMAT"
     id="g17179">
    <path
       id="path17534-80"
       style="fill:#b3b3b3;stroke:#00ff00;stroke-width:0.377953;stroke-opacity:0"
       d="m 597.45703,200.31641 0.12305,24.19336 h 6.5332 l 0.1211,-24.19532 z" />
    <g
       id="b9-s1">
      <path
         id="path17501"
         style="fill:#ff9955;stroke:#00ff00;stroke-width:0.377953;stroke-opacity:0"
         d="M 210.18164 100.46094 L 196.97656 100.46484 L 197.03125 124.50977 L 210.3418 124.50977 L 210.18164 100.46094 z " />
      <path
         id="path17501-0"
         style="fill:#ff9955;stroke:#00ff00;stroke-width:0.377953;stroke-opacity:0"
         d="m 210.18164,150.46094 -13.20508,0.004 0.0547,24.04493 h 13.31055 z" />
      <path
         id="path17501-5"
         style="fill:#ff9955;stroke:#00ff00;stroke-width:0.377953;stroke-opacity:0"
         d="m 210.18164,200.46094 -13.20508,0.004 0.0547,24.04493 h 13.31055 z" />
      <path
         id="path17501-4"
         style="fill:#ff9955;stroke:#00ff00;stroke-width:0.377953;stroke-opacity:0"
         d="m 210.18164,250.46094 -13.20508,0.004 0.0547,24.04493 h 13.31055 z" />
    </g>
    <g
       id="b9-s2"
       style="fill:#008080">
      <path
         id="path17504"
         style="fill:#008080;stroke:#00ff00;stroke-width:0.377953;stroke-opacity:0"
         d="M 250.25195 100.44531 L 210.18164 100.46094 L 210.3418 124.50977 L 250.38086 124.50977 L 250.25195 100.44531 z " />
      <path
         id="path17504-3"
         style="fill:#008080;stroke:#00ff00;stroke-width:0.377953;stroke-opacity:0"
         d="m 250.25195,150.44531 -40.07031,0.0156 0.16016,24.04883 h 40.03906 z" />
      <path
         id="path17504-9"
         style="fill:#008080;stroke:#00ff00;stroke-width:0.377953;stroke-opacity:0"
         d="m 250.25195,200.44531 -40.07031,0.0156 0.16016,24.04883 h 40.03906 z" />
      <path
         id="path17504-2"
         style="fill:#008080;stroke:#00ff00;stroke-width:0.377953;stroke-opacity:0"
         d="m 250.25195,250.44531 -40.07031,0.0156 0.16016,24.04883 h 40.03906 z" />
    </g>
    <g
       id="b9-s3">
      <path
         id="path17507"
         style="fill:#ff9955;stroke:#00ff00;stroke-width:0.377953;stroke-opacity:0"
         d="M 263.66211 100.43945 L 250.25195 100.44531 L 250.38086 124.50977 L 263.53711 124.50977 L 263.66211 100.43945 z " />
      <path
         id="path17507-0"
         style="fill:#ff9955;stroke:#00ff00;stroke-width:0.377953;stroke-opacity:0"
         d="m 263.66211,150.43945 -13.41016,0.006 0.12891,24.06446 h 13.15625 z" />
      <path
         id="path17507-3"
         style="fill:#ff9955;stroke:#00ff00;stroke-width:0.377953;stroke-opacity:0"
         d="m 263.66211,200.43945 -13.41016,0.006 0.12891,24.06446 h 13.15625 z" />
      <path
         id="path17507-1"
         style="fill:#ff9955;stroke:#00ff00;stroke-width:0.377953;stroke-opacity:0"
         d="m 263.66211,250.43945 -13.41016,0.006 0.12891,24.06446 h 13.15625 z" />
    </g>
    <g
       id="b9-s4"
       style="fill:#008080">
      <path
         id="path17510"
         style="fill:#008080;stroke:#00ff00;stroke-width:0.377953;stroke-opacity:0"
         d="M 303.7168 100.42383 L 263.66211 100.43945 L 263.53711 124.50977 L 303.7168 124.50977 L 303.7168 100.42383 z " />
      <path
         id="path17510-1"
         style="fill:#008080;stroke:#00ff00;stroke-width:0.377953;stroke-opacity:0"
         d="m 303.7168,150.42383 -40.05469,0.0156 -0.125,24.07032 h 40.17969 z" />
      <path
         id="path17510-0"
         style="fill:#008080;stroke:#00ff00;stroke-width:0.377953;stroke-opacity:0"
         d="m 303.7168,200.42383 -40.05469,0.0156 -0.125,24.07032 h 40.17969 z" />
      <path
         id="path17510-06"
         style="fill:#008080;stroke:#00ff00;stroke-width:0.377953;stroke-opacity:0"
         d="m 303.7168,250.42383 -40.05469,0.0156 -0.125,24.07032 h 40.17969 z" />
    </g>
    <g
       id="b9-s5">
      <path
         id="path17513"
         style="fill:#ff9955;stroke:#00ff00;stroke-width:0.377953;stroke-opacity:0"
         d="M 317.24414 100.41797 L 303.7168 100.42383 L 303.7168 124.50977 L 317.21875 124.50977 L 317.24414 100.41797 z " />
      <path
         id="path17513-5"
         style="fill:#ff9955;stroke:#00ff00;stroke-width:0.377953;stroke-opacity:0"
         d="m 317.24414,150.41797 -13.52734,0.006 v 24.08594 h 13.50195 z" />
      <path
         id="path17513-6"
         style="fill:#ff9955;stroke:#00ff00;stroke-width:0.377953;stroke-opacity:0"
         d="m 317.24414,200.41797 -13.52734,0.006 v 24.08594 h 13.50195 z" />
      <path
         id="path17513-61"
         style="fill:#ff9955;stroke:#00ff00;stroke-width:0.377953;stroke-opacity:0"
         d="m 317.24414,250.41797 -13.52734,0.006 v 24.08594 h 13.50195 z" />
    </g>
    <g
       id="b9-s6"
       style="fill:#008080">
      <path
         id="path17516"
         style="fill:#008080;stroke:#00ff00;stroke-width:0.377953;stroke-opacity:0"
         d="M 357.11719 100.4043 L 317.24414 100.41797 L 317.21875 124.50977 L 357.24609 124.50977 L 357.11719 100.4043 z " />
      <path
         id="path17516-5"
         style="fill:#008080;stroke:#00ff00;stroke-width:0.377953;stroke-opacity:0"
         d="m 357.11719,150.4043 -39.87305,0.0137 -0.0254,24.0918 h 40.02734 z" />
      <path
         id="path17516-7"
         style="fill:#008080;stroke:#00ff00;stroke-width:0.377953;stroke-opacity:0"
         d="m 357.11719,200.4043 -39.87305,0.0137 -0.0254,24.0918 h 40.02734 z" />
      <path
         id="path17516-9"
         style="fill:#008080;stroke:#00ff00;stroke-width:0.377953;stroke-opacity:0"
         d="m 357.11719,250.4043 -39.87305,0.0137 -0.0254,24.0918 h 40.02734 z" />
    </g>
    <g
       id="b9-s7">
      <path
         id="path17519"
         style="fill:#ff9955;stroke:#00ff00;stroke-width:0.377953;stroke-opacity:0"
         d="M 437.28125 100.375 L 357.11719 100.4043 L 357.24609 124.50977 L 437.33398 124.50977 L 437.28125 100.375 z " />
      <path
         id="path17519-7"
         style="fill:#ff9955;stroke:#00ff00;stroke-width:0.377953;stroke-opacity:0"
         d="m 437.28125,150.375 -80.16406,0.0293 0.1289,24.10547 h 80.08789 z" />
      <path
         id="path17519-1"
         style="fill:#ff9955;stroke:#00ff00;stroke-width:0.377953;stroke-opacity:0"
         d="m 437.28125,200.375 -80.16406,0.0293 0.1289,24.10547 h 80.08789 z" />
      <path
         id="path17519-8"
         style="fill:#ff9955;stroke:#00ff00;stroke-width:0.377953;stroke-opacity:0"
         d="m 437.28125,250.375 -80.16406,0.0293 0.1289,24.10547 h 80.08789 z" />
    </g>
    <g
       id="b9-s8"
       style="fill:#008080">
      <path
         id="path17522"
         style="fill:#008080;stroke:#00ff00;stroke-width:0.377953;stroke-opacity:0"
         d="M 477.26562 100.36133 L 437.28125 100.375 L 437.33398 124.50977 L 477.39844 124.50977 L 477.26562 100.36133 z " />
      <path
         id="path17522-8"
         style="fill:#008080;stroke:#00ff00;stroke-width:0.377953;stroke-opacity:0"
         d="m 477.26562,150.36133 -39.98437,0.0137 0.0527,24.13477 h 40.06446 z" />
      <path
         id="path17522-87"
         style="fill:#008080;stroke:#00ff00;stroke-width:0.377953;stroke-opacity:0"
         d="m 477.26562,200.36133 -39.98437,0.0137 0.0527,24.13477 h 40.06446 z" />
      <path
         id="path17522-9"
         style="fill:#008080;stroke:#00ff00;stroke-width:0.377953;stroke-opacity:0"
         d="m 477.26562,250.36133 -39.98437,0.0137 0.0527,24.13477 h 40.06446 z" />
    </g>
    <g
       id="b9-s9">
      <path
         id="path17525"
         style="fill:#ff9955;stroke:#00ff00;stroke-width:0.377953;stroke-opacity:0"
         d="M 490.63281 100.35547 L 477.26562 100.36133 L 477.39844 124.50977 L 490.85742 124.50977 L 490.63281 100.35547 z " />
      <path
         id="path17525-8"
         style="fill:#ff9955;stroke:#00ff00;stroke-width:0.377953;stroke-opacity:0"
         d="m 490.63281,150.35547 -13.36719,0.006 0.13282,24.14844 h 13.45898 z" />
      <path
         id="path17525-6"
         style="fill:#ff9955;stroke:#00ff00;stroke-width:0.377953;stroke-opacity:0"
         d="m 490.63281,200.35547 -13.36719,0.006 0.13282,24.14844 h 13.45898 z" />
      <path
         id="path17525-9"
         style="fill:#ff9955;stroke:#00ff00;stroke-width:0.377953;stroke-opacity:0"
         d="m 490.63281,250.35547 -13.36719,0.006 0.13282,24.14844 h 13.45898 z" />
    </g>
    <g
       id="b9-s10"
       style="fill:#008080">
      <path
         id="path18096"
         style="fill:#008080;stroke:#00ff00;stroke-width:0.377953;stroke-opacity:0"
         d="M 530.66602 100.3418 L 490.63281 100.35547 L 490.85742 124.50977 L 530.86719 124.50977 L 530.66602 100.3418 z " />
      <path
         id="path18096-0"
         style="fill:#008080;stroke:#00ff00;stroke-width:0.377953;stroke-opacity:0"
         d="m 530.66602,150.3418 -40.03321,0.0137 0.22461,24.1543 h 40.00977 z" />
      <path
         id="path18096-6"
         style="fill:#008080;stroke:#00ff00;stroke-width:0.377953;stroke-opacity:0"
         d="m 530.66602,200.3418 -40.03321,0.0137 0.22461,24.1543 h 40.00977 z" />
      <path
         id="path18096-5"
         style="fill:#008080;stroke:#00ff00;stroke-width:0.377953;stroke-opacity:0"
         d="m 530.66602,250.3418 -40.03321,0.0137 0.22461,24.1543 h 40.00977 z" />
    </g>
    <g
       id="b9-s11">
      <path
         id="path18099"
         style="fill:#ff9955;stroke:#00ff00;stroke-width:0.377953;stroke-opacity:0"
         d="M 530.66602 100.3418 L 530.86719 124.50977 L 544.05859 124.50977 L 544.13281 100.33594 L 530.66602 100.3418 z " />
      <path
         id="path18099-9"
         style="fill:#ff9955;stroke:#00ff00;stroke-width:0.377953;stroke-opacity:0"
         d="m 530.66602,150.3418 0.20117,24.16797 h 13.1914 l 0.0742,-24.17383 z" />
      <path
         id="path18099-5"
         style="fill:#ff9955;stroke:#00ff00;stroke-width:0.377953;stroke-opacity:0"
         d="m 530.66602,200.3418 0.20117,24.16797 h 13.1914 l 0.0742,-24.17383 z" />
      <path
         id="path18099-2"
         style="fill:#ff9955;stroke:#00ff00;stroke-width:0.377953;stroke-opacity:0"
         d="m 530.66602,250.3418 0.20117,24.16797 h 13.1914 l 0.0742,-24.17383 z" />
    </g>
    <g
       id="b9-s12"
       style="fill:#008080">
      <path
         id="path17528"
         style="fill:#008080;stroke:#00ff00;stroke-width:0.377953;stroke-opacity:0"
         d="M 584.07422 100.32227 L 544.13281 100.33594 L 544.05859 124.50977 L 584.17578 124.50977 L 584.07422 100.32227 z " />
      <path
         id="path17528-5"
         style="fill:#008080;stroke:#00ff00;stroke-width:0.377953;stroke-opacity:0"
         d="m 584.07422,150.32227 -39.94141,0.0137 -0.0742,24.17383 h 40.11719 z" />
      <path
         id="path17528-4"
         style="fill:#008080;stroke:#00ff00;stroke-width:0.377953;stroke-opacity:0"
         d="m 584.07422,200.32227 -39.94141,0.0137 -0.0742,24.17383 h 40.11719 z" />
      <path
         id="path17528-58"
         style="fill:#008080;stroke:#00ff00;stroke-width:0.377953;stroke-opacity:0"
         d="m 584.07422,250.32227 -39.94141,0.0137 -0.0742,24.17383 h 40.11719 z" />
    </g>
    <g
       id="b9-s13">
      <path
         id="path17531"
         style="fill:#ff9955;stroke:#00ff00;stroke-width:0.377953;stroke-opacity:0"
         d="M 597.45703 100.31641 L 584.07422 100.32227 L 584.17578 124.50977 L 597.58008 124.50977 L 597.45703 100.31641 z " />
      <path
         id="path17531-8"
         style="fill:#ff9955;stroke:#00ff00;stroke-width:0.377953;stroke-opacity:0"
         d="m 597.45703,150.31641 -13.38281,0.006 0.10156,24.1875 h 13.4043 z" />
      <path
         id="path17531-4"
         style="fill:#ff9955;stroke:#00ff00;stroke-width:0.377953;stroke-opacity:0"
         d="m 597.45703,200.31641 -13.38281,0.006 0.10156,24.1875 h 13.4043 z" />
      <path
         id="path17531-7"
         style="fill:#ff9955;stroke:#00ff00;stroke-width:0.377953;stroke-opacity:0"
         d="m 597.45703,250.31641 -13.38281,0.006 0.10156,24.1875 h 13.4043 z" />
    </g>
    <path
       id="path17471"
       style="fill:#b3b3b3;stroke:#00ff00;stroke-width:0.377953;stroke-opacity:0"
       d="M 196.97656 100.46484 L 190.39062 100.4668 L 190.35938 124.50977 L 197.03125 124.50977 L 196.97656 100.46484 z " />
    <path
       id="path17534"
       style="fill:#b3b3b3;stroke:#00ff00;stroke-width:0.377953;stroke-opacity:0"
       d="M 597.45703 100.31641 L 597.58008 124.50977 L 604.11328 124.50977 L 604.23438 100.31445 L 597.45703 100.31641 z " />
    <path
       style="fill:none;stroke:#000000;stroke-linecap:round"
       d="M 196.9905,124.352 V 100.5"
       id="path17137-3" />
    <path
       style="fill:none;stroke:#000000;stroke-linecap:round"
       d="M 597.5125,124.352 V 100.5"
       id="path17139-3" />
    <path
       style="fill:none;stroke:#000000;stroke-linecap:round"
       d="M 584.1615,124.352 V 100.5"
       id="path17141-9" />
    <path
       style="fill:none;stroke:#000000;stroke-linecap:round"
       d="M 544.1095,124.352 V 100.5"
       id="path17143-9" />
    <path
       style="fill:none;stroke:#000000;stroke-linecap:round"
       d="M 530.7585,124.352 V 100.5"
       id="path17145-4" />
    <path
       style="fill:none;stroke:#000000;stroke-linecap:round"
       d="M 490.7065,124.352 V 100.5"
       id="path17147-3" />
    <path
       style="fill:none;stroke:#000000;stroke-linecap:round"
       d="M 477.3555,124.352 V 100.5"
       id="path17149-1" />
    <path
       style="fill:none;stroke:#000000;stroke-linecap:round"
       d="M 437.3035,124.352 V 100.5"
       id="path17151-5" />
    <path
       style="fill:none;stroke:#000000;stroke-linecap:round"
       d="M 357.1995,124.352 V 100.5"
       id="path17153-8" />
    <path
       style="fill:none;stroke:#000000;stroke-linecap:round"
       d="M 317.1475,124.352 V 100.5"
       id="path17155-7" />
    <path
       style="fill:none;stroke:#000000;stroke-linecap:round"
       d="M 303.7965,124.352 V 100.5"
       id="path17157-4" />
    <path
       style="fill:none;stroke:#000000;stroke-linecap:round"
       d="M 210.3415,124.352 V 100.5"
       id="path17159-6" />
    <path
       style="fill:none;stroke:#000000;stroke-linecap:round"
       d="M 250.3935,124.352 V 100.5"
       id="path17161-4" />
    <path
       style="fill:none;stroke:#000000;stroke-linecap:round"
       d="M 263.7445,124.352 V 100.5"
       id="path17163-8" />
    <path
       style="fill:none;stroke:#000000;stroke-width:0.631;stroke-linecap:round"
       d="m 190.3155,124.442 h 413.872"
       id="path17165-5" />
    <path
       style="fill:none;stroke:#000000;stroke-width:0.631;stroke-linecap:round"
       d="M 604.1875,100.411 H 190.3155"
       id="path17167-1" />
    <path
       style="fill:none;stroke:#000000;stroke-width:0.631;stroke-linecap:round"
       d="m 190.3155,100.411 v 24.031"
       id="path17169-5" />
    <path
       style="fill:none;stroke:#000000;stroke-width:0.631;stroke-linecap:round"
       d="m 604.1875,100.411 v 24.031"
       id="path17171-5" />
    <path
       id="path17471-9"
       style="fill:#b3b3b3;stroke:#00ff00;stroke-width:0.377953;stroke-opacity:0"
       d="m 196.97656,150.46484 -6.58594,0.002 -0.0312,24.04297 h 6.67187 z" />
    <path
       id="path17534-8"
       style="fill:#b3b3b3;stroke:#00ff00;stroke-width:0.377953;stroke-opacity:0"
       d="m 597.45703,150.31641 0.12305,24.19336 h 6.5332 l 0.1211,-24.19532 z" />
    <path
       style="fill:none;stroke:#000000;stroke-linecap:round"
       d="M 196.9905,174.352 V 150.5"
       id="path17137-3-2" />
    <path
       style="fill:none;stroke:#000000;stroke-linecap:round"
       d="M 597.5125,174.352 V 150.5"
       id="path17139-3-7" />
    <path
       style="fill:none;stroke:#000000;stroke-linecap:round"
       d="M 584.1615,174.352 V 150.5"
       id="path17141-9-0" />
    <path
       style="fill:none;stroke:#000000;stroke-linecap:round"
       d="M 544.1095,174.352 V 150.5"
       id="path17143-9-5" />
    <path
       style="fill:none;stroke:#000000;stroke-linecap:round"
       d="M 530.7585,174.352 V 150.5"
       id="path17145-4-7" />
    <path
       style="fill:none;stroke:#000000;stroke-linecap:round"
       d="M 490.7065,174.352 V 150.5"
       id="path17147-3-4" />
    <path
       style="fill:none;stroke:#000000;stroke-linecap:round"
       d="M 477.3555,174.352 V 150.5"
       id="path17149-1-0" />
    <path
       style="fill:none;stroke:#000000;stroke-linecap:round"
       d="M 437.3035,174.352 V 150.5"
       id="path17151-5-3" />
    <path
       style="fill:none;stroke:#000000;stroke-linecap:round"
       d="M 357.1995,174.352 V 150.5"
       id="path17153-8-8" />
    <path
       style="fill:none;stroke:#000000;stroke-linecap:round"
       d="M 317.1475,174.352 V 150.5"
       id="path17155-7-3" />
    <path
       style="fill:none;stroke:#000000;stroke-linecap:round"
       d="M 303.7965,174.352 V 150.5"
       id="path17157-4-5" />
    <path
       style="fill:none;stroke:#000000;stroke-linecap:round"
       d="M 210.3415,174.352 V 150.5"
       id="path17159-6-9" />
    <path
       style="fill:none;stroke:#000000;stroke-linecap:round"
       d="M 250.3935,174.352 V 150.5"
       id="path17161-4-2" />
    <path
       style="fill:none;stroke:#000000;stroke-linecap:round"
       d="M 263.7445,174.352 V 150.5"
       id="path17163-8-7" />
    <path
       style="fill:none;stroke:#000000;stroke-width:0.631;stroke-linecap:round"
       d="m 190.3155,174.442 h 413.872"
       id="path17165-5-8" />
    <path
       style="fill:none;stroke:#000000;stroke-width:0.631;stroke-linecap:round"
       d="M 604.1875,150.411 H 190.3155"
       id="path17167-1-1" />
    <path
       style="fill:none;stroke:#000000;stroke-width:0.631;stroke-linecap:round"
       d="m 190.3155,150.411 v 24.031"
       id="path17169-5-3" />
    <path
       style="fill:none;stroke:#000000;stroke-width:0.631;stroke-linecap:round"
       d="m 604.1875,150.411 v 24.031"
       id="path17171-5-5" />
    <path
       id="path17471-5"
       style="fill:#b3b3b3;stroke:#00ff00;stroke-width:0.377953;stroke-opacity:0"
       d="m 196.97656,200.46484 -6.58594,0.002 -0.0312,24.04297 h 6.67187 z" />
    <path
       style="fill:#b3b3b3;stroke:#000000;stroke-linecap:round"
       d="M 196.9905,224.352 V 200.5"
       id="path17137-3-25" />
    <path
       style="fill:none;stroke:#000000;stroke-linecap:round"
       d="M 597.5125,224.352 V 200.5"
       id="path17139-3-0" />
    <path
       style="fill:none;stroke:#000000;stroke-linecap:round"
       d="M 584.1615,224.352 V 200.5"
       id="path17141-9-1" />
    <path
       style="fill:none;stroke:#000000;stroke-linecap:round"
       d="M 544.1095,224.352 V 200.5"
       id="path17143-9-9" />
    <path
       style="fill:none;stroke:#000000;stroke-linecap:round"
       d="M 530.7585,224.352 V 200.5"
       id="path17145-4-78" />
    <path
       style="fill:none;stroke:#000000;stroke-linecap:round"
       d="M 490.7065,224.352 V 200.5"
       id="path17147-3-8" />
    <path
       style="fill:none;stroke:#000000;stroke-linecap:round"
       d="M 477.3555,224.352 V 200.5"
       id="path17149-1-2" />
    <path
       style="fill:none;stroke:#000000;stroke-linecap:round"
       d="M 437.3035,224.352 V 200.5"
       id="path17151-5-9" />
    <path
       style="fill:none;stroke:#000000;stroke-linecap:round"
       d="M 357.1995,224.352 V 200.5"
       id="path17153-8-7" />
    <path
       style="fill:none;stroke:#000000;stroke-linecap:round"
       d="M 317.1475,224.352 V 200.5"
       id="path17155-7-36" />
    <path
       style="fill:none;stroke:#000000;stroke-linecap:round"
       d="M 303.7965,224.352 V 200.5"
       id="path17157-4-4" />
    <path
       style="fill:none;stroke:#000000;stroke-linecap:round"
       d="M 210.3415,224.352 V 200.5"
       id="path17159-6-0" />
    <path
       style="fill:none;stroke:#000000;stroke-linecap:round"
       d="M 250.3935,224.352 V 200.5"
       id="path17161-4-1" />
    <path
       style="fill:none;stroke:#000000;stroke-linecap:round"
       d="M 263.7445,224.352 V 200.5"
       id="path17163-8-3" />
    <path
       style="fill:none;stroke:#000000;stroke-width:0.631;stroke-linecap:round"
       d="m 190.3155,224.442 h 413.872"
       id="path17165-5-83" />
    <path
       style="fill:none;stroke:#000000;stroke-width:0.631;stroke-linecap:round"
       d="M 604.1875,200.411 H 190.3155"
       id="path17167-1-4" />
    <path
       style="fill:none;stroke:#000000;stroke-width:0.631;stroke-linecap:round"
       d="m 190.3155,200.411 v 24.031"
       id="path17169-5-0" />
    <path
       style="fill:none;stroke:#000000;stroke-width:0.631;stroke-linecap:round"
       d="m 604.1875,200.411 v 24.031"
       id="path17171-5-1" />
    <path
       id="path17471-3"
       style="fill:#b3b3b3;stroke:#00ff00;stroke-width:0.377953;stroke-opacity:0"
       d="m 196.97656,250.46484 -6.58594,0.002 -0.0312,24.04297 h 6.67187 z" />
    <path
       id="path17534-0"
       style="fill:#b3b3b3;stroke:#00ff00;stroke-width:0.377953;stroke-opacity:0"
       d="m 597.45703,250.31641 0.12305,24.19336 h 6.5332 l 0.1211,-24.19532 z" />
    <path
       style="fill:none;stroke:#000000;stroke-linecap:round"
       d="M 196.9905,274.352 V 250.5"
       id="path17137-3-1" />
    <path
       style="fill:none;stroke:#000000;stroke-linecap:round"
       d="M 597.5125,274.352 V 250.5"
       id="path17139-3-9" />
    <path
       style="fill:none;stroke:#000000;stroke-linecap:round"
       d="M 584.1615,274.352 V 250.5"
       id="path17141-9-12" />
    <path
       style="fill:none;stroke:#000000;stroke-linecap:round"
       d="M 544.1095,274.352 V 250.5"
       id="path17143-9-7" />
    <path
       style="fill:none;stroke:#000000;stroke-linecap:round"
       d="M 530.7585,274.352 V 250.5"
       id="path17145-4-8" />
    <path
       style="fill:none;stroke:#000000;stroke-linecap:round"
       d="M 490.7065,274.352 V 250.5"
       id="path17147-3-0" />
    <path
       style="fill:none;stroke:#000000;stroke-linecap:round"
       d="M 477.3555,274.352 V 250.5"
       id="path17149-1-6" />
    <path
       style="fill:none;stroke:#000000;stroke-linecap:round"
       d="M 437.3035,274.352 V 250.5"
       id="path17151-5-7" />
    <path
       style="fill:none;stroke:#000000;stroke-linecap:round"
       d="M 357.1995,274.352 V 250.5"
       id="path17153-8-3" />
    <path
       style="fill:none;stroke:#000000;stroke-linecap:round"
       d="M 317.1475,274.352 V 250.5"
       id="path17155-7-2" />
    <path
       style="fill:none;stroke:#000000;stroke-linecap:round"
       d="M 303.7965,274.352 V 250.5"
       id="path17157-4-49" />
    <path
       style="fill:none;stroke:#000000;stroke-linecap:round"
       d="M 210.3415,274.352 V 250.5"
       id="path17159-6-3" />
    <path
       style="fill:none;stroke:#000000;stroke-linecap:round"
       d="M 250.3935,274.352 V 250.5"
       id="path17161-4-24" />
    <path
       style="fill:none;stroke:#000000;stroke-linecap:round"
       d="M 263.7445,274.352 V 250.5"
       id="path17163-8-5" />
    <path
       style="fill:none;stroke:#000000;stroke-width:0.631;stroke-linecap:round"
       d="m 190.3155,274.442 h 413.872"
       id="path17165-5-1" />
    <path
       style="fill:none;stroke:#000000;stroke-width:0.631;stroke-linecap:round"
       d="M 604.1875,250.411 H 190.3155"
       id="path17167-1-5" />
    <path
       style="fill:none;stroke:#000000;stroke-width:0.631;stroke-linecap:round"
       d="m 190.3155,250.411 v 24.031"
       id="path17169-5-36" />
    <path
       style="fill:#b3b3b3;stroke:#000000;stroke-width:0.631;stroke-linecap:round"
       d="m 604.1875,250.411 v 24.031"
       id="path17171-5-4" />
  </g>
</svg>
