<?xml version="1.0" encoding="UTF-8" standalone="no"?>
<svg
   viewBox="145 180 500 20"
   width="500"
   height="280"
   version="1.1"
   id="svg19479"
   sodipodi:docname="Bar_V110.svg"
   inkscape:version="1.2.2 (732a01da63, 2022-12-09)"
   xmlns:inkscape="http://www.inkscape.org/namespaces/inkscape"
   xmlns:sodipodi="http://sodipodi.sourceforge.net/DTD/sodipodi-0.dtd"
   xmlns="http://www.w3.org/2000/svg"
   xmlns:svg="http://www.w3.org/2000/svg">
  <sodipodi:namedview
     id="namedview19481"
     pagecolor="#ffffff"
     bordercolor="#000000"
     borderopacity="0.25"
     inkscape:showpageshadow="2"
     inkscape:pageopacity="0.0"
     inkscape:pagecheckerboard="0"
     inkscape:deskcolor="#d1d1d1"
     showgrid="false"
     inkscape:zoom="2"
     inkscape:cx="412.5"
     inkscape:cy="186.75"
     inkscape:window-width="2400"
     inkscape:window-height="1271"
     inkscape:window-x="2391"
     inkscape:window-y="72"
     inkscape:window-maximized="1"
     inkscape:current-layer="g19475" />
  <desc
     id="desc18804">Bar 10.DXF - scale = 0.176619, origin = (0.000000, 0.000000), method = auto</desc>
  <defs
     id="defs18819">
    <marker
       id="DistanceX"
       orient="auto"
       refX="0.0"
       refY="0.0"
       style="overflow:visible">
      <path
         d="M 3,-3 L -3,3 M 0,-5 L  0,5"
         style="stroke:#000000; stroke-width:0.5"
         id="path18806" />
    </marker>
    <pattern
       id="Hatch"
       patternUnits="userSpaceOnUse"
       width="8"
       height="8"
       x="0"
       y="0">
      <path
         d="M8 4 l-4,4"
         stroke="#000000"
         stroke-width="0.25"
         linecap="square"
         id="path18809" />
      <path
         d="M6 2 l-4,4"
         stroke="#000000"
         stroke-width="0.25"
         linecap="square"
         id="path18811" />
      <path
         d="M4 0 l-4,4"
         stroke="#000000"
         stroke-width="0.25"
         linecap="square"
         id="path18813" />
    </pattern>
    <symbol
       id="*Model_Space" />
    <symbol
       id="*Paper_Space" />
    <symbol
       id="*Paper_Space0" />
  </defs>
  <g
     inkscape:groupmode="layer"
     inkscape:label="0"
     id="g19475">
    <g
       id="b10-s1"
       style="fill:#ff9955">
      <path
         id="path19655"
         style="fill:#ff9955;stroke:#00ff00;stroke-width:0.377953;stroke-opacity:0"
         d="M 197.05273 100.46875 L 197.27148 124.40234 L 223.73633 124.40234 L 223.66602 100.4707 L 197.05273 100.46875 z " />
      <path
         id="path19655-9"
         style="fill:#ff9955;stroke:#00ff00;stroke-width:0.377953;stroke-opacity:0"
         d="m 197.05273,150.46875 0.21875,23.93359 h 26.46485 l -0.0703,-23.93164 z" />
      <path
         id="path19655-4"
         style="fill:#ff9955;stroke:#00ff00;stroke-width:0.377953;stroke-opacity:0"
         d="m 197.05273,200.46875 0.21875,23.93359 h 26.46485 l -0.0703,-23.93164 z" />
      <path
         id="path19655-42"
         style="fill:#ff9955;stroke:#00ff00;stroke-width:0.377953;stroke-opacity:0"
         d="m 197.05273,250.46875 0.21875,23.93359 h 26.46485 l -0.0703,-23.93164 z" />
    </g>
    <g
       id="b10-s2"
       style="fill:#008080">
      <path
         id="path19652"
         style="fill:#008080;stroke:#00ff00;stroke-width:0.377953;stroke-opacity:0"
         d="M 223.66602 100.4707 L 223.73633 124.40234 L 383.93359 124.4043 L 383.9082 100.48242 L 223.66602 100.4707 z " />
      <path
         id="path19652-4"
         style="fill:#008080;stroke:#00ff00;stroke-width:0.377953;stroke-opacity:0"
         d="m 223.66602,150.4707 0.0703,23.93164 160.19726,0.002 -0.0254,-23.92188 z" />
      <path
         id="path19652-1"
         style="fill:#008080;stroke:#00ff00;stroke-width:0.377953;stroke-opacity:0"
         d="m 223.66602,200.4707 0.0703,23.93164 160.19726,0.002 -0.0254,-23.92188 z" />
      <path
         id="path19652-0"
         style="fill:#008080;stroke:#00ff00;stroke-width:0.377953;stroke-opacity:0"
         d="m 223.66602,250.4707 0.0703,23.93164 160.19726,0.002 -0.0254,-23.92188 z" />
    </g>
    <g
       id="b10-s3"
       style="fill:#ff9955">
      <path
         id="path19649"
         style="fill:#ff9955;stroke:#00ff00;stroke-width:0.377953;stroke-opacity:0"
         d="M 383.9082 100.48242 L 383.93359 124.4043 L 410.55078 124.4043 L 410.46289 100.48438 L 383.9082 100.48242 z " />
      <path
         id="path19649-5"
         style="fill:#ff9955;stroke:#00ff00;stroke-width:0.377953;stroke-opacity:0"
         d="m 383.9082,150.48242 0.0254,23.92189 h 26.61719 l -0.0879,-23.91993 z" />
      <path
         id="path19649-50"
         style="fill:#ff9955;stroke:#00ff00;stroke-width:0.377953;stroke-opacity:0"
         d="m 383.9082,200.48242 0.0254,23.92188 h 26.61719 l -0.0879,-23.91992 z" />
      <path
         id="path19649-8"
         style="fill:#ff9955;stroke:#00ff00;stroke-width:0.377953;stroke-opacity:0"
         d="m 383.9082,250.48242 0.0254,23.92188 h 26.61719 l -0.0879,-23.91992 z" />
    </g>
    <g
       id="b10-s4"
       style="fill:#008080">
      <path
         id="path19646"
         style="fill:#008080;stroke:#00ff00;stroke-width:0.377953;stroke-opacity:0"
         d="M 410.46289 100.48438 L 410.55078 124.4043 L 557.50391 124.40625 L 557.39648 100.49609 L 410.46289 100.48438 z " />
      <path
         id="path19646-3"
         style="fill:#008080;stroke:#00ff00;stroke-width:0.377953;stroke-opacity:0"
         d="m 410.46289,150.48438 0.0879,23.91993 146.95313,0.002 -0.10743,-23.91016 z" />
      <path
         id="path19646-0"
         style="fill:#008080;stroke:#00ff00;stroke-width:0.377953;stroke-opacity:0"
         d="m 410.46289,200.48438 0.0879,23.91992 146.95313,0.002 -0.10743,-23.91016 z" />
      <path
         id="path19646-1"
         style="fill:#008080;stroke:#00ff00;stroke-width:0.377953;stroke-opacity:0"
         d="m 410.46289,250.48438 0.0879,23.91992 146.95313,0.002 -0.10743,-23.91016 z" />
    </g>
    <g
       id="b10-s5"
       style="fill:#ff9955">
      <path
         id="path19643"
         style="fill:#ff9955;stroke:#00ff00;stroke-width:0.377953;stroke-opacity:0"
         d="M 557.39648 100.49609 L 557.50391 124.40625 L 597.28906 124.40625 L 597.36328 100.49805 L 557.39648 100.49609 z " />
      <path
         id="path19643-0"
         style="fill:#ff9955;stroke:#00ff00;stroke-width:0.377953;stroke-opacity:0"
         d="m 557.39648,150.49609 0.10743,23.91016 h 39.78515 l 0.0742,-23.90819 z" />
      <path
         id="path19643-9"
         style="fill:#ff9955;stroke:#00ff00;stroke-width:0.377953;stroke-opacity:0"
         d="m 557.39648,200.49609 0.10743,23.91016 h 39.78515 l 0.0742,-23.9082 z" />
      <path
         id="path19643-2"
         style="fill:#ff9955;stroke:#00ff00;stroke-width:0.377953;stroke-opacity:0"
         d="m 557.39648,250.49609 0.10743,23.91016 h 39.78515 l 0.0742,-23.9082 z" />
    </g>
    <path
       id="path19626"
       style="fill:#b3b3b3;stroke:#00ff00;stroke-width:0.377953;stroke-opacity:0"
       d="M 197.05273 100.46875 L 190.32812 100.46875 L 190.33203 124.40234 L 197.27148 124.40234 L 197.05273 100.46875 z " />
    <path
       id="path19640"
       style="fill:#b3b3b3;stroke:#00ff00;stroke-width:0.377953;stroke-opacity:0"
       d="M 597.36328 100.49805 L 597.28906 124.40625 L 604.13477 124.40625 L 604.24414 100.49805 L 597.36328 100.49805 z " />
    <path
       style="fill:none;stroke:#000000;stroke-linecap:round"
       d="M 196.9915,124.352 V 100.5"
       id="path19451" />
    <path
       style="fill:none;stroke:#000000;stroke-linecap:round"
       d="M 597.5125,124.352 V 100.5"
       id="path19453" />
    <path
       style="fill:none;stroke:#000000;stroke-linecap:round"
       d="M 557.4605,124.352 V 100.5"
       id="path19455" />
    <path
       style="fill:none;stroke:#000000;stroke-linecap:round"
       d="M 410.6025,124.352 V 100.5"
       id="path19457" />
    <path
       style="fill:none;stroke:#000000;stroke-linecap:round"
       d="M 383.9015,124.352 V 100.5"
       id="path19459" />
    <path
       style="fill:none;stroke:#000000;stroke-linecap:round"
       d="M 223.6925,124.352 V 100.5"
       id="path19461" />
    <path
       style="fill:none;stroke:#000000;stroke-width:0.631;stroke-linecap:round"
       d="m 190.3155,124.441 h 413.873"
       id="path19463" />
    <path
       style="fill:none;stroke:#000000;stroke-width:0.631;stroke-linecap:round"
       d="M 604.1885,100.41 H 190.3155"
       id="path19465" />
    <path
       style="fill:none;stroke:#000000;stroke-width:0.631;stroke-linecap:round"
       d="m 190.3155,100.41 v 24.031"
       id="path19467" />
    <path
       style="fill:none;stroke:#000000;stroke-width:0.631;stroke-linecap:round"
       d="m 604.1885,100.41 v 24.031"
       id="path19469" />
    <path
       id="path19626-4"
       style="fill:#b3b3b3;stroke:#00ff00;stroke-width:0.377953;stroke-opacity:0"
       d="m 197.05273,150.46875 h -6.72461 l 0.004,23.93359 h 6.93945 z" />
    <path
       id="path19640-0"
       style="fill:#b3b3b3;stroke:#00ff00;stroke-width:0.377953;stroke-opacity:0"
       d="m 597.36328,150.49806 -0.0742,23.90819 h 6.84571 l 0.10937,-23.90819 z" />
    <path
       style="fill:none;stroke:#000000;stroke-linecap:round"
       d="M 196.9915,174.35201 V 150.5"
       id="path19451-4" />
    <path
       style="fill:none;stroke:#000000;stroke-linecap:round"
       d="M 597.5125,174.35201 V 150.5"
       id="path19453-3" />
    <path
       style="fill:none;stroke:#000000;stroke-linecap:round"
       d="M 557.4605,174.35201 V 150.5"
       id="path19455-9" />
    <path
       style="fill:none;stroke:#000000;stroke-linecap:round"
       d="M 410.6025,174.35201 V 150.5"
       id="path19457-3" />
    <path
       style="fill:none;stroke:#000000;stroke-linecap:round"
       d="M 383.9015,174.35201 V 150.5"
       id="path19459-7" />
    <path
       style="fill:none;stroke:#000000;stroke-linecap:round"
       d="M 223.6925,174.35201 V 150.5"
       id="path19461-0" />
    <path
       style="fill:none;stroke:#000000;stroke-width:0.631;stroke-linecap:round"
       d="m 190.3155,174.44101 h 413.873"
       id="path19463-7" />
    <path
       style="fill:none;stroke:#000000;stroke-width:0.631;stroke-linecap:round"
       d="M 604.1885,150.41 H 190.3155"
       id="path19465-7" />
    <path
       style="fill:none;stroke:#000000;stroke-width:0.631;stroke-linecap:round"
       d="m 190.3155,150.41 v 24.03101"
       id="path19467-0" />
    <path
       style="fill:none;stroke:#000000;stroke-width:0.631;stroke-linecap:round"
       d="m 604.1885,150.41 v 24.03101"
       id="path19469-0" />
    <path
       id="path19626-6"
       style="fill:#b3b3b3;stroke:#00ff00;stroke-width:0.377953;stroke-opacity:0"
       d="m 197.05273,200.46875 h -6.72461 l 0.004,23.93359 h 6.93945 z" />
    <path
       id="path19640-3"
       style="fill:#b3b3b3;stroke:#00ff00;stroke-width:0.377953;stroke-opacity:0"
       d="m 597.36328,200.49805 -0.0742,23.9082 h 6.84571 l 0.10937,-23.9082 z" />
    <path
       style="fill:none;stroke:#000000;stroke-linecap:round"
       d="M 196.9915,224.352 V 200.5"
       id="path19451-8" />
    <path
       style="fill:none;stroke:#000000;stroke-linecap:round"
       d="M 597.5125,224.352 V 200.5"
       id="path19453-4" />
    <path
       style="fill:none;stroke:#000000;stroke-linecap:round"
       d="M 557.4605,224.352 V 200.5"
       id="path19455-5" />
    <path
       style="fill:none;stroke:#000000;stroke-linecap:round"
       d="M 410.6025,224.352 V 200.5"
       id="path19457-8" />
    <path
       style="fill:none;stroke:#000000;stroke-linecap:round"
       d="M 383.9015,224.352 V 200.5"
       id="path19459-6" />
    <path
       style="fill:none;stroke:#000000;stroke-linecap:round"
       d="M 223.6925,224.352 V 200.5"
       id="path19461-8" />
    <path
       style="fill:none;stroke:#000000;stroke-width:0.631;stroke-linecap:round"
       d="m 190.3155,224.441 h 413.873"
       id="path19463-8" />
    <path
       style="fill:none;stroke:#000000;stroke-width:0.631;stroke-linecap:round"
       d="M 604.1885,200.41 H 190.3155"
       id="path19465-4" />
    <path
       style="fill:none;stroke:#000000;stroke-width:0.631;stroke-linecap:round"
       d="m 190.3155,200.41 v 24.031"
       id="path19467-4" />
    <path
       style="fill:none;stroke:#000000;stroke-width:0.631;stroke-linecap:round"
       d="m 604.1885,200.41 v 24.031"
       id="path19469-8" />
    <path
       id="path19626-0"
       style="fill:#b3b3b3;stroke:#00ff00;stroke-width:0.377953;stroke-opacity:0"
       d="m 197.05273,250.46875 h -6.72461 l 0.004,23.93359 h 6.93945 z" />
    <path
       id="path19640-5"
       style="fill:#b3b3b3;stroke:#00ff00;stroke-width:0.377953;stroke-opacity:0"
       d="m 597.36328,250.49805 -0.0742,23.9082 h 6.84571 l 0.10937,-23.9082 z" />
    <path
       style="fill:none;stroke:#000000;stroke-linecap:round"
       d="M 196.9915,274.352 V 250.5"
       id="path19451-6" />
    <path
       style="fill:none;stroke:#000000;stroke-linecap:round"
       d="M 597.5125,274.352 V 250.5"
       id="path19453-1" />
    <path
       style="fill:none;stroke:#000000;stroke-linecap:round"
       d="M 557.4605,274.352 V 250.5"
       id="path19455-3" />
    <path
       style="fill:none;stroke:#000000;stroke-linecap:round"
       d="M 410.6025,274.352 V 250.5"
       id="path19457-5" />
    <path
       style="fill:none;stroke:#000000;stroke-linecap:round"
       d="M 383.9015,274.352 V 250.5"
       id="path19459-8" />
    <path
       style="fill:none;stroke:#000000;stroke-linecap:round"
       d="M 223.6925,274.352 V 250.5"
       id="path19461-5" />
    <path
       style="fill:none;stroke:#000000;stroke-width:0.631;stroke-linecap:round"
       d="m 190.3155,274.441 h 413.873"
       id="path19463-80" />
    <path
       style="fill:none;stroke:#000000;stroke-width:0.631;stroke-linecap:round"
       d="M 604.1885,250.41 H 190.3155"
       id="path19465-43" />
    <path
       style="fill:none;stroke:#000000;stroke-width:0.631;stroke-linecap:round"
       d="m 190.3155,250.41 v 24.031"
       id="path19467-3" />
    <path
       style="fill:none;stroke:#000000;stroke-width:0.631;stroke-linecap:round"
       d="m 604.1885,250.41 v 24.031"
       id="path19469-87" />
  </g>
  <g
     inkscape:groupmode="layer"
     inkscape:label="FORMAT"
     id="g19477" />
</svg>
